<?xml version="1.0" encoding="iso-8859-1"?>
<!-- Generator: Adobe Illustrator 19.0.0, SVG Export Plug-In . SVG Version: 6.00 Build 0)  -->
<svg version="1.1" id="Capa_1" xmlns="http://www.w3.org/2000/svg" xmlns:xlink="http://www.w3.org/1999/xlink" x="0px" y="0px"
	 viewBox="0 0 400.137 400.137" style="enable-background:new 0 0 400.137 400.137;" xml:space="preserve">
<g>
	<g>
		<path d="M220.49,142.745c-1.465-1.322-3.367-2.056-5.341-2.061h-29.36l35.04-35.84c3.093-3.155,3.043-8.22-0.112-11.313
			c-0.016-0.016-0.032-0.031-0.048-0.047h0c-3.12-3.102-8.16-3.102-11.28,0l-48,49.68c-3.093,3.155-3.042,8.22,0.113,11.313
			c1.507,1.477,3.537,2.299,5.647,2.287h30.32l-36.24,40c-2.766,3.445-2.216,8.48,1.229,11.247c3.16,2.538,7.718,2.311,10.611-0.527
			l48-53.44C224.029,150.764,223.77,145.706,220.49,142.745z"/>
	</g>
</g>
<g>
	<g>
		<path d="M386.989,219.244c-0.054-0.001-0.107-0.001-0.161,0h-26.4c-2.457-50.035-28.104-96.064-69.36-124.48l19.92-26.4
			c3.737,1.398,7.69,2.129,11.68,2.16c19.175,0.109,34.808-15.347,34.917-34.522c0.109-19.175-15.347-34.808-34.522-34.917
			c-19.175-0.109-34.808,15.347-34.917,34.522c-0.051,8.895,3.315,17.47,9.402,23.957l-20.16,26.72
			c-48.104-26.534-106.456-26.534-154.56,0l-20-26.56c13.456-14.153,12.891-36.535-1.262-49.991
			C87.413-3.722,65.031-3.157,51.576,10.996C38.12,25.149,38.685,47.531,52.838,60.987c9.774,9.292,23.982,12.216,36.631,7.538
			l19.76,26.16c-41.391,28.398-67.137,74.504-69.6,124.64h-26.4c-4.418,0-8,3.582-8,8v72c0,4.418,3.582,8,8,8h34.8
			c-21.215,21.274-21.167,55.718,0.107,76.933c21.274,21.215,55.718,21.167,76.933-0.107c21.173-21.232,21.173-55.594,0-76.826
			h149.92c-21.215,21.274-21.167,55.718,0.107,76.933c21.274,21.215,55.718,21.167,76.933-0.107
			c21.173-21.232,21.173-55.594,0-76.826h34.88c4.418,0,8-3.582,8-8v-72C394.953,222.906,391.407,219.289,386.989,219.244z
			 M322.508,17.644c0.054,0,0.107,0,0.161,0.001l0.16,0.08c10.205,0.177,18.334,8.593,18.157,18.797s-8.593,18.334-18.797,18.157
			c-10.11-0.175-18.202-8.443-18.16-18.554C304.028,25.918,312.302,17.644,322.508,17.644z M77.789,54.604
			c-10.205,0.133-18.586-8.033-18.718-18.238s8.033-18.586,18.238-18.718c10.205-0.133,18.586,8.033,18.718,18.238
			c0.001,0.079,0.002,0.159,0.002,0.238C96.029,46.238,87.901,54.473,77.789,54.604z M200.029,82.364
			c76.868,0.09,140.315,60.134,144.64,136.88H55.389C59.713,142.498,123.161,82.454,200.029,82.364z M86.589,384.044
			c-21.208,0-38.4-17.192-38.4-38.4c0-21.208,17.192-38.4,38.4-38.4c21.208,0,38.4,17.192,38.4,38.4
			C124.945,366.834,107.778,384,86.589,384.044z M313.469,384.044c-21.208,0-38.4-17.192-38.4-38.4c0-21.208,17.192-38.4,38.4-38.4
			s38.4,17.192,38.4,38.4C351.825,366.834,334.658,384,313.469,384.044z M378.828,291.164h-357.6v-56h357.6V291.164z"/>
	</g>
</g>
<g>
	<g>
		<circle cx="86.589" cy="345.564" r="13.2"/>
	</g>
</g>
<g>
	<g>
		<circle cx="313.469" cy="345.564" r="13.2"/>
	</g>
</g>
<g>
</g>
<g>
</g>
<g>
</g>
<g>
</g>
<g>
</g>
<g>
</g>
<g>
</g>
<g>
</g>
<g>
</g>
<g>
</g>
<g>
</g>
<g>
</g>
<g>
</g>
<g>
</g>
<g>
</g>
</svg>
