<?xml version="1.0" encoding="iso-8859-1"?>
<!-- Generator: Adobe Illustrator 19.0.0, SVG Export Plug-In . SVG Version: 6.00 Build 0)  -->
<svg version="1.1" id="Capa_1" xmlns="http://www.w3.org/2000/svg" xmlns:xlink="http://www.w3.org/1999/xlink" x="0px" y="0px"
	 viewBox="0 0 476.27 476.27" style="enable-background:new 0 0 476.27 476.27;" xml:space="preserve">
<g>
	<g>
		<path d="M193.695,122.19c-17.275,0-31.28,14.005-31.28,31.28c0,17.276,14.005,31.28,31.28,31.28
			c17.257-0.044,31.236-14.023,31.28-31.28C224.975,136.194,210.97,122.19,193.695,122.19z M193.695,168.75
			c-8.421-0.044-15.236-6.859-15.28-15.28c0-8.439,6.841-15.28,15.28-15.28s15.28,6.841,15.28,15.28S202.134,168.75,193.695,168.75z
			"/>
	</g>
</g>
<g>
	<g>
		<path d="M282.815,122.11c-17.275,0-31.28,14.005-31.28,31.28c0,17.275,14.005,31.28,31.28,31.28s31.28-14.005,31.28-31.28
			C314.051,136.132,300.072,122.154,282.815,122.11z M282.815,168.75c-8.439,0-15.28-6.841-15.28-15.28s6.841-15.28,15.28-15.28
			s15.28,6.841,15.28,15.28S291.254,168.75,282.815,168.75z"/>
	</g>
</g>
<g>
	<g>
		<path d="M282.815,202.99h-89.12c-4.418,0-8,3.582-8,8s3.582,8,8,8h89.12c4.418,0,8-3.582,8-8S287.233,202.99,282.815,202.99z"/>
	</g>
</g>
<g>
	<g>
		<path d="M263.695,308.91h-28.16l33.2-27.12c3.563-2.613,4.333-7.619,1.72-11.182c-2.613-3.563-7.619-4.333-11.182-1.72
			c-0.214,0.157-0.42,0.325-0.618,0.502l-50.64,41.28c-3.446,2.765-3.999,7.8-1.234,11.246c1.526,1.902,3.836,3.004,6.274,2.994
			v0.08h29.44l-34.72,30.4c-3.187,3.061-3.289,8.125-0.228,11.311c2.874,2.992,7.557,3.291,10.788,0.689l50.64-44.48
			c3.314-2.922,3.631-7.978,0.709-11.292C268.167,309.899,265.987,308.913,263.695,308.91z"/>
	</g>
</g>
<g>
	<g>
		<path d="M436.095,324.83L436.095,324.83l-7.04-12.8c-12.769-22.151-34.401-37.786-59.44-42.96v-70.48
			c-0.164-69.334-54.156-126.618-123.36-130.88v-16.8c13.709-4.418,21.241-19.114,16.823-32.823
			c-4.418-13.709-19.113-21.241-32.823-16.823c-13.709,4.418-21.241,19.113-16.823,32.823c2.574,7.988,8.835,14.248,16.823,16.823
			v16.8c-69.222,4.223-123.235,61.53-123.36,130.88v70.48c-25.075,5.191-46.735,20.854-59.52,43.04l-6.96,12.64
			c-15.531,2.477-26.96,15.873-26.96,31.6c0,4.418,3.582,8,8,8s8-3.582,8-8c0-8.837,7.163-16,16-16s16,7.163,16,16
			c0,4.418,3.582,8,8,8s8-3.582,8-8c-0.019-12.928-7.815-24.575-19.76-29.52l3.76-6.8c9.905-17.127,26.328-29.51,45.52-34.32v105.76
			c0.027,0.932,0.216,1.853,0.56,2.72v0.48c0.196,0.475,0.437,0.931,0.72,1.36l58,77.04c1.511,2.014,3.882,3.2,6.4,3.2h131.36
			c2.518,0,4.889-1.186,6.4-3.2l57.6-76.88c0.283-0.429,0.524-0.885,0.72-1.36v-0.48c0.344-0.867,0.533-1.788,0.56-2.72V285.71
			c19.186,4.774,35.613,17.13,45.52,34.24l3.76,6.88c-11.945,4.945-19.741,16.592-19.76,29.52c0,4.418,3.582,8,8,8s8-3.582,8-8
			c0-8.837,7.163-16,16-16s16,7.163,16,16c0,4.418,3.582,8,8,8s8-3.582,8-8C462.795,340.73,451.501,327.407,436.095,324.83z
			 M228.175,26.19c0-5.567,4.513-10.08,10.08-10.08s10.08,4.513,10.08,10.08s-4.513,10.08-10.08,10.08
			C232.706,36.226,228.218,31.739,228.175,26.19z M176.495,460.27l-45.6-60.88h54.72l12.64,60.88H176.495z M262.175,460.27h-47.52
			l-12.64-60.88h72.8L262.175,460.27z M300.095,460.27h-21.84l12.64-60.88h54.48L300.095,460.27z M122.895,383.39V250.35h230.72
			l0.08,133.04H122.895z M122.895,234.27v-35.68c0-63.712,51.648-115.36,115.36-115.36s115.36,51.648,115.36,115.36l0.08,35.68
			H122.895z"/>
	</g>
</g>
<g>
</g>
<g>
</g>
<g>
</g>
<g>
</g>
<g>
</g>
<g>
</g>
<g>
</g>
<g>
</g>
<g>
</g>
<g>
</g>
<g>
</g>
<g>
</g>
<g>
</g>
<g>
</g>
<g>
</g>
</svg>
