<?xml version="1.0" encoding="iso-8859-1"?>
<!-- Generator: Adobe Illustrator 19.0.0, SVG Export Plug-In . SVG Version: 6.00 Build 0)  -->
<svg version="1.1" id="Capa_1" xmlns="http://www.w3.org/2000/svg" xmlns:xlink="http://www.w3.org/1999/xlink" x="0px" y="0px"
	 viewBox="0 0 467.84 467.84" style="enable-background:new 0 0 467.84 467.84;" xml:space="preserve">
<g>
	<g>
		<path d="M390.56,169.92L390.56,169.92l-32,0c-4.418,0-8,3.582-8,8v21.92h-17.92v-13.28c0-9.19-7.45-16.64-16.64-16.64h-18.88
			v-11.2H316c9.19,0,16.64-7.45,16.64-16.64v0V16.64C332.64,7.45,325.19,0,316,0H151.84c-9.19,0-16.64,7.45-16.64,16.64v125.52
			c0,9.19,7.45,16.64,16.64,16.64h18.88v11.12h-18.88c-9.19,0-16.64,7.45-16.64,16.64v13.36h-17.68v-22c0-4.418-3.582-8-8-8h-32
			c-4.418,0-8,3.582-8,8v168c0,4.418,3.582,8,8,8h32c4.418,0,8-3.582,8-8v-98.64h17.68V292c0,9.19,7.45,16.64,16.64,16.64h2.72
			v113.04h-3.84c-9.19,0-16.64,7.45-16.64,16.64v12.88c0,9.19,7.45,16.64,16.64,16.64h60.24c9.159-0.044,16.56-7.481,16.56-16.64
			v-12.96c0-9.159-7.401-16.596-16.56-16.64h-3.84V308.64h53.52v113.04h-3.84c-9.159,0.044-16.56,7.481-16.56,16.64v12.88
			c0,9.159,7.401,16.596,16.56,16.64h60.32c9.159-0.044,16.56-7.481,16.56-16.64v-12.96c0-9.159-7.401-16.596-16.56-16.64h-3.84
			V308.64H316c9.19,0,16.64-7.45,16.64-16.64v-44.72h17.68v98.64c0,4.418,3.582,8,8,8h32c4.418,0,8-3.582,8-8v-168
			C398.322,173.594,394.884,170.05,390.56,169.92z M101.52,207.92v130h-16v-152h16V207.92z M135.2,231.28h-17.68v-15.36h17.68
			V231.28z M151.84,142.8l0-0.08c-0.306,0.048-0.592-0.161-0.64-0.466c-0.009-0.057-0.009-0.116,0-0.174V16.64
			c-0.048-0.306,0.161-0.592,0.466-0.64c0.057-0.009,0.116-0.009,0.174,0H316c0.306-0.048,0.592,0.161,0.64,0.466
			c0.009,0.057,0.009,0.116,0,0.174v125.52c0.048,0.306-0.161,0.592-0.466,0.64c-0.057,0.009-0.116,0.009-0.174,0H151.84z
			 M281.12,158.72v11.2h-94.4v-11.2H281.12z M211.04,437.6l-0.08,0.08c0.309-0.003,0.563,0.245,0.566,0.554
			c0,0.029-0.002,0.057-0.006,0.086v12.88c0.044,0.306-0.168,0.59-0.474,0.634c-0.028,0.004-0.057,0.006-0.086,0.006H150.8
			c-0.353,0-0.64-0.287-0.64-0.64v-12.96c0-0.353,0.287-0.64,0.64-0.64H211.04z M170.56,421.68V308.64h20.56v113.04H170.56z
			 M317.12,437.6v0.08c0.322,0.041,0.563,0.316,0.56,0.64v12.88c0.003,0.324-0.238,0.599-0.56,0.64h-60.24
			c-0.322-0.041-0.563-0.316-0.56-0.64v-12.96c-0.003-0.324,0.238-0.599,0.56-0.64H317.12z M276.72,421.68V308.64h20.56v113.04
			H276.72z M316.72,292c0,0.353-0.287,0.64-0.64,0.64H151.84c-0.306,0.048-0.592-0.161-0.64-0.466c-0.009-0.057-0.009-0.116,0-0.174
			V186.56c-0.048-0.306,0.161-0.592,0.466-0.64c0.057-0.009,0.116-0.009,0.174,0H316c0.306-0.048,0.592,0.161,0.64,0.466
			c0.009,0.057,0.009,0.116,0,0.174l0.08,21.36V292z M332.64,231.28v-15.36h17.68l0.08,15.36H332.64z M382.4,337.76h-16V185.92h16
			V337.76z"/>
	</g>
</g>
<g>
	<g>
		<path d="M192.801,34.72c-15.243,0.088-27.528,12.517-27.44,27.76c0.088,15.18,12.419,27.44,27.599,27.44
			c15.287-0.044,27.644-12.473,27.6-27.76c0,0,0,0,0,0C220.472,46.917,208.043,34.632,192.801,34.72z M192.96,73.92
			c-6.451,0-11.68-5.229-11.68-11.68c0-0.027,0-0.054,0-0.08h0c0.089-6.406,5.353-11.527,11.759-11.439s11.527,5.353,11.439,11.759
			C204.391,68.792,199.272,73.876,192.96,73.92z"/>
	</g>
</g>
<g>
	<g>
		<path d="M274.88,34.72c-15.243,0-27.6,12.357-27.6,27.6c0.044,15.225,12.375,27.556,27.6,27.6c15.243,0,27.6-12.357,27.6-27.6
			C302.48,47.077,290.123,34.72,274.88,34.72z M274.88,73.84c-6.407,0-11.6-5.193-11.6-11.6c0-6.42,5.181-11.636,11.6-11.68v0.08
			c6.406,0,11.6,5.194,11.6,11.6S281.287,73.84,274.88,73.84z"/>
	</g>
</g>
<g>
	<g>
		<path d="M233.92,80.56c-4.418,0-8,3.582-8,8v20.96c0,4.418,3.582,8,8,8s8-3.582,8-8V88.56
			C241.92,84.142,238.338,80.56,233.92,80.56z"/>
	</g>
</g>
<g>
	<g>
		<path d="M277.44,215.6h-90.32c-4.418,0-8,3.582-8,8c0,29.359,23.801,53.16,53.16,53.16c29.359,0,53.16-23.801,53.16-53.16
			C285.44,219.182,281.858,215.6,277.44,215.6z M232.28,260.799c-17.418-0.015-32.496-12.114-36.28-29.119h72.56
			C264.776,248.685,249.698,260.784,232.28,260.799z"/>
	</g>
</g>
<g>
</g>
<g>
</g>
<g>
</g>
<g>
</g>
<g>
</g>
<g>
</g>
<g>
</g>
<g>
</g>
<g>
</g>
<g>
</g>
<g>
</g>
<g>
</g>
<g>
</g>
<g>
</g>
<g>
</g>
</svg>
