<?xml version="1.0" encoding="iso-8859-1"?>
<!-- Generator: Adobe Illustrator 19.0.0, SVG Export Plug-In . SVG Version: 6.00 Build 0)  -->
<svg version="1.1" id="Capa_1" xmlns="http://www.w3.org/2000/svg" xmlns:xlink="http://www.w3.org/1999/xlink" x="0px" y="0px"
	 viewBox="0 0 448.217 448.217" style="enable-background:new 0 0 448.217 448.217;" xml:space="preserve">
<g>
	<g>
		<path d="M384.217,308.763v0.16h-116.8v-36.8c18.892-13.611,23.172-39.96,9.561-58.852c-5.049-7.008-12.128-12.295-20.281-15.148
			l-11.92-44.4c15.216-17.625,13.262-44.248-4.363-59.463c-13.015-11.235-31.548-13.442-46.837-5.577l-109.92-44.64
			C78.234,21.263,55.37,7.193,32.59,12.616S-4.261,40.903,1.162,63.683s28.287,36.851,51.067,31.427
			c4.871-1.16,9.499-3.173,13.667-5.947l104.8,42.56c1.876,15.179,11.78,28.171,25.92,34l12.48,46.72
			c-14.196,18.289-10.878,44.623,7.41,58.819c0.378,0.294,0.761,0.581,1.15,0.861v36.8h-24.4v-45.84c0-8.837-7.163-16-16-16h-76.16
			c-8.837,0-16,7.163-16,16v46.16c-0.028,0.506-0.028,1.014,0,1.52c-34.245,8.756-54.907,43.615-46.151,77.859
			c7.168,28.035,32.256,47.772,61.191,48.141h284.08c35.346,0,64-28.654,64-64C448.217,337.417,419.563,308.763,384.217,308.763z
			 M42.457,80.123c-14.58,0-26.4-11.82-26.4-26.4s11.82-26.4,26.4-26.4s26.4,11.82,26.4,26.4
			C68.813,68.285,57.019,80.079,42.457,80.123z M171.897,115.003v-0.16l-93.92-38c3.023-4.667,5.09-9.888,6.08-15.36l95.36,38.72
			C175.951,104.587,173.394,109.619,171.897,115.003z M212.537,152.923C212.537,152.923,212.537,152.923,212.537,152.923l0-0.16
			c-14.58,0-26.4-11.82-26.4-26.4c0-14.58,11.82-26.4,26.4-26.4s26.4,11.82,26.4,26.4
			C238.981,140.988,227.162,152.879,212.537,152.923z M216.057,168.763l0.4,0c4.817-0.416,9.526-1.661,13.92-3.68h0.8l8,31.36
			c-5.969,0.416-11.78,2.107-17.04,4.96l-8.48-32L216.057,168.763z M216.217,238.444c0-0.08-0.001-0.16,0-0.241l0.24,0.16
			c0-14.58,11.82-26.4,26.4-26.4c14.58,0,26.4,11.82,26.4,26.4c0,14.58-11.82,26.4-26.4,26.4
			C228.233,264.852,216.306,253.068,216.217,238.444z M251.737,279.803v29.12h-18.08v-29.28c5.824,1.282,11.856,1.282,17.68,0
			L251.737,279.803z M101.497,263.483l76.08-0.24v45.68h-76.08V263.483z M384.217,420.843h-283.6c-26.51,0-48-21.49-48-48
			c0-26.51,21.49-48,48-48h283.6c26.51,0,48,21.49,48,48C432.217,399.353,410.727,420.843,384.217,420.843z"/>
	</g>
</g>
<g>
	<g>
		<path d="M111.657,338.123c-19.219,0-34.8,15.58-34.8,34.8c0,19.219,15.581,34.8,34.8,34.8c19.22,0,34.8-15.581,34.8-34.8
			C146.457,353.704,130.876,338.123,111.657,338.123z M111.657,391.643c-10.383,0-18.8-8.417-18.8-18.8s8.417-18.8,18.8-18.8
			c10.383,0,18.8,8.417,18.8,18.8C130.457,383.226,122.04,391.643,111.657,391.643z"/>
	</g>
</g>
<g>
	<g>
		<g>
			<polygon points="198.937,338.123 198.937,338.123 198.937,338.123 			"/>
			<path d="M198.937,338.123c-19.22,0-34.8,15.58-34.8,34.8c0,19.219,15.581,34.8,34.8,34.8c19.22,0,34.8-15.58,34.8-34.8
				S218.156,338.123,198.937,338.123z M198.937,391.643c-10.383,0-18.8-8.417-18.8-18.8c0-10.383,8.417-18.8,18.8-18.8
				c10.383,0,18.8,8.417,18.8,18.8C217.737,383.226,209.32,391.643,198.937,391.643z"/>
		</g>
	</g>
</g>
<g>
	<g>
		<path d="M286.217,338.123c-19.219,0-34.8,15.58-34.8,34.8c0,19.219,15.58,34.8,34.8,34.8c19.219,0,34.8-15.58,34.8-34.8
			S305.436,338.123,286.217,338.123z M286.217,391.643c-10.383,0-18.8-8.417-18.8-18.8c0-10.383,8.417-18.8,18.8-18.8
			s18.8,8.417,18.8,18.8S296.6,391.643,286.217,391.643z"/>
	</g>
</g>
<g>
	<g>
		<path d="M373.497,338.123c-19.219-0.044-34.836,15.501-34.88,34.72c-0.044,19.219,15.501,34.836,34.72,34.88
			c19.219,0.044,34.836-15.501,34.88-34.72c0-0.053,0-0.107,0-0.16C408.173,353.686,392.654,338.167,373.497,338.123z
			 M373.497,391.643c-10.383,0.044-18.836-8.337-18.88-18.72c-0.044-10.383,8.337-18.836,18.72-18.88
			c10.383-0.044,18.836,8.337,18.88,18.72c0,0.027,0,0.053,0,0.08C392.217,383.195,383.849,391.599,373.497,391.643z"/>
	</g>
</g>
<g>
</g>
<g>
</g>
<g>
</g>
<g>
</g>
<g>
</g>
<g>
</g>
<g>
</g>
<g>
</g>
<g>
</g>
<g>
</g>
<g>
</g>
<g>
</g>
<g>
</g>
<g>
</g>
<g>
</g>
</svg>
