<?xml version="1.0" standalone="no"?>
<!DOCTYPE svg PUBLIC "-//W3C//DTD SVG 20010904//EN"
 "http://www.w3.org/TR/2001/REC-SVG-20010904/DTD/svg10.dtd">
<svg version="1.0" xmlns="http://www.w3.org/2000/svg"
 width="1200.000000pt" height="1200.000000pt" viewBox="0 0 1200.000000 1200.000000"
 preserveAspectRatio="xMidYMid meet">
<metadata>
Created by potrace 1.14, written by Peter Selinger 2001-2017
</metadata>
<g transform="translate(0.000000,1200.000000) scale(0.100000,-0.100000)"
fill="#000000" stroke="none">
<path d="M2093 10430 c-299 -42 -552 -221 -685 -485 -63 -124 -106 -336 -93
-455 27 -241 104 -409 260 -565 276 -276 676 -341 1027 -167 l97 48 1100 -445
1100 -446 11 -55 c35 -173 119 -336 236 -456 71 -72 182 -152 259 -187 l41
-18 131 -492 131 -492 -27 -40 c-124 -184 -175 -386 -150 -600 24 -208 104
-371 262 -527 l97 -97 0 -386 0 -385 -260 0 -259 0 -3 523 -3 522 -29 63 c-36
77 -105 143 -182 171 -54 21 -72 21 -919 21 -847 0 -865 0 -919 -21 -77 -28
-146 -94 -182 -171 l-29 -63 -5 -539 -5 -538 -95 -34 c-467 -166 -780 -525
-887 -1017 -27 -128 -25 -390 6 -527 55 -252 169 -466 344 -647 107 -112 200
-184 325 -251 167 -91 336 -143 526 -161 148 -15 6013 -15 6176 -1 479 43 880
314 1095 740 140 279 178 631 98 930 -98 371 -345 679 -683 854 -125 64 -220
98 -357 125 -99 21 -127 21 -1407 21 l-1306 0 0 393 0 392 59 48 c111 89 219
257 272 422 27 87 38 312 19 408 -32 164 -131 349 -248 464 -73 72 -186 149
-266 181 -34 13 -62 25 -63 26 -1 1 -57 206 -123 456 -66 250 -122 460 -125
467 -2 6 14 35 35 63 328 440 177 1071 -315 1316 -117 58 -214 83 -350 91
-132 7 -228 -9 -362 -59 l-90 -34 -1154 470 -1154 469 -28 86 c-90 276 -335
499 -627 570 -101 24 -231 33 -317 21z m222 -335 c109 -23 206 -76 282 -154
212 -217 216 -553 10 -768 -115 -121 -237 -174 -397 -176 -162 -1 -291 51
-400 162 -112 114 -162 236 -161 394 0 161 61 299 180 409 135 123 308 170
486 133z m1774 -1114 c541 -220 985 -402 987 -404 3 -2 -19 -42 -48 -89 -29
-46 -64 -114 -78 -152 -21 -57 -28 -67 -45 -63 -22 5 -1945 783 -1951 790 -3
2 14 40 36 84 22 44 50 116 62 161 18 62 27 80 38 77 8 -3 458 -185 999 -404z
m1820 -416 c150 -36 287 -144 360 -285 113 -218 74 -476 -98 -649 -109 -109
-239 -164 -386 -163 -249 1 -462 155 -541 392 -26 77 -26 253 0 330 61 183
219 332 399 376 72 17 189 17 266 -1z m348 -1684 c46 -178 82 -325 80 -327 -1
-2 -30 -7 -64 -13 -51 -8 -99 -23 -284 -87 -12 -4 -30 53 -102 327 -48 183
-84 336 -80 340 5 5 40 13 78 18 82 12 170 34 217 55 69 30 63 42 155 -313z
m336 -684 c173 -63 295 -187 353 -357 15 -42 19 -83 18 -175 0 -105 -4 -129
-26 -186 -54 -138 -148 -243 -270 -303 -230 -113 -471 -75 -649 103 -150 150
-195 321 -142 536 44 180 213 349 393 393 25 6 54 14 65 16 47 11 195 -4 258
-27z m-1543 -1532 l0 -485 -805 0 -805 0 0 485 0 485 805 0 805 0 0 -485z
m1550 -177 l0 -308 -190 0 -190 0 0 308 0 307 190 0 190 0 0 -307z m2860 -638
c266 -24 478 -125 657 -314 190 -201 274 -418 274 -702 -1 -222 -69 -429 -196
-593 -48 -63 -162 -177 -215 -216 -59 -44 -191 -112 -270 -138 -161 -55 22
-52 -3310 -52 -2929 0 -3099 1 -3177 18 -167 36 -331 116 -446 217 -244 214
-361 467 -360 775 0 274 91 500 282 698 172 178 391 285 632 306 140 12 5988
13 6129 1z"/>
<path d="M3525 3559 c-145 -24 -270 -92 -385 -208 -98 -99 -157 -202 -190
-335 -76 -301 64 -639 329 -796 189 -112 414 -135 620 -61 110 39 184 84 266
166 138 136 205 289 212 485 6 148 -12 234 -73 360 -40 81 -61 109 -139 186
-78 78 -106 99 -186 137 -143 70 -300 92 -454 66z m298 -353 c75 -36 147 -107
189 -187 32 -61 33 -69 33 -174 0 -101 -2 -114 -29 -167 -78 -154 -211 -234
-379 -226 -149 6 -271 86 -338 223 -32 65 -34 76 -34 170 0 93 2 105 33 167
76 154 204 231 377 225 74 -3 100 -8 148 -31z"/>
<path d="M5336 3554 c-292 -65 -501 -283 -562 -583 -30 -151 -7 -299 73 -461
61 -126 177 -245 299 -307 224 -116 464 -116 688 0 117 60 246 190 303 307 61
124 77 194 77 330 0 88 -5 133 -22 193 -69 244 -240 423 -477 502 -102 35
-273 43 -379 19z m326 -352 c81 -40 149 -111 191 -200 28 -59 31 -77 32 -157
0 -81 -3 -97 -32 -157 -42 -90 -110 -160 -192 -201 -61 -30 -72 -32 -171 -32
-95 0 -111 3 -162 28 -121 59 -204 167 -228 297 -29 151 44 313 181 400 74 48
122 60 225 57 79 -2 100 -7 156 -35z"/>
<path d="M7198 3560 c-152 -27 -267 -89 -384 -205 -78 -76 -98 -104 -138 -185
-55 -112 -76 -202 -76 -325 0 -209 71 -379 220 -525 301 -296 807 -265 1069
65 116 146 166 303 158 490 -9 199 -73 344 -216 485 -94 93 -175 142 -296 180
-79 24 -257 35 -337 20z m294 -357 c84 -40 151 -107 192 -193 28 -59 31 -74
31 -165 0 -92 -3 -106 -32 -167 -40 -84 -107 -151 -193 -192 -59 -28 -74 -31
-165 -31 -92 0 -106 3 -167 32 -85 40 -151 106 -191 191 -30 62 -32 75 -32
172 0 96 2 110 29 160 57 108 113 160 223 206 49 21 71 24 148 22 77 -3 100
-8 157 -35z"/>
<path d="M9024 3559 c-137 -23 -263 -90 -375 -199 -87 -86 -149 -184 -187
-297 -23 -69 -26 -93 -26 -218 0 -123 4 -149 26 -217 67 -203 221 -374 406
-452 194 -82 430 -78 604 10 261 132 410 369 410 654 0 257 -117 473 -332 616
-141 94 -343 134 -526 103z m301 -354 c156 -75 248 -247 225 -418 -18 -124
-107 -244 -225 -302 -55 -27 -69 -30 -165 -30 -95 0 -111 3 -168 29 -81 38
-171 131 -203 213 -35 87 -33 226 4 306 31 67 115 160 172 190 74 38 117 47
210 44 75 -3 100 -8 150 -32z"/>
</g>
</svg>
