<?xml version="1.0" standalone="no"?>
<!DOCTYPE svg PUBLIC "-//W3C//DTD SVG 20010904//EN"
 "http://www.w3.org/TR/2001/REC-SVG-20010904/DTD/svg10.dtd">
<svg version="1.0" xmlns="http://www.w3.org/2000/svg"
 width="800.000000pt" height="800.000000pt" viewBox="0 0 800.000000 800.000000"
 preserveAspectRatio="xMidYMid meet">
<metadata>
Created by potrace 1.11, written by Peter Selinger 2001-2013
</metadata>
<g transform="translate(0.000000,800.000000) scale(0.100000,-0.100000)"
fill="#000000" stroke="none">
<path d="M3645 7994 c-16 -2 -73 -9 -125 -14 -52 -6 -157 -22 -234 -36 -975
-175 -1874 -727 -2467 -1515 -359 -476 -597 -990 -723 -1559 -69 -313 -91
-521 -91 -865 0 -372 31 -630 116 -970 220 -884 739 -1672 1464 -2220 585
-443 1232 -701 1985 -792 202 -24 658 -24 860 0 313 38 560 92 840 186 1308
438 2301 1524 2620 2866 133 560 145 1141 34 1705 -171 869 -631 1663 -1303
2249 -524 457 -1210 789 -1883 911 -265 48 -312 52 -693 55 -203 2 -383 1
-400 -1z m364 -2058 c8 -9 11 -59 9 -152 l-3 -139 -150 0 -150 0 -3 140 c-1
76 0 145 2 152 8 19 279 19 295 -1z m6 -471 l0 -150 -150 0 -150 0 -3 140 c-1
76 0 145 2 152 4 11 38 13 153 11 l148 -3 0 -150z m320 0 l0 -150 -150 0 -150
0 -3 140 c-1 76 0 145 2 152 4 11 38 13 153 11 l148 -3 0 -150z m-320 -320 l0
-150 -150 0 -150 0 -3 140 c-1 76 0 145 2 152 4 11 38 13 153 11 l148 -3 0
-150z m650 0 l0 -150 -150 0 -150 0 -3 140 c-1 76 0 145 2 152 4 11 38 13 153
11 l148 -3 0 -150z m-1300 -330 l0 -150 -150 0 -150 0 -3 140 c-1 76 0 145 2
152 4 11 38 13 153 11 l148 -3 0 -150z m650 0 l0 -150 -150 0 -150 0 -3 140
c-1 76 0 145 2 152 4 11 38 13 153 11 l148 -3 0 -150z m970 0 l0 -150 -150 0
-150 0 -3 140 c-1 76 0 145 2 152 4 11 38 13 153 11 l148 -3 0 -150z m-1300
-320 l0 -150 -145 0 -145 0 -3 140 c-1 76 0 145 2 152 4 11 37 13 148 11 l143
-3 0 -150z m330 0 l0 -150 -150 0 -150 0 -3 140 c-1 76 0 145 2 152 4 11 38
13 153 11 l148 -3 0 -150z m650 0 l0 -150 -150 0 -150 0 -3 140 c-1 76 0 145
2 152 4 11 38 13 153 11 l148 -3 0 -150z m-647 -319 c2 -95 -1 -143 -9 -152
-9 -12 -41 -14 -153 -12 l-141 3 -3 140 c-1 76 0 145 2 152 4 11 38 13 153 11
l148 -3 3 -139z m317 -11 l0 -150 -139 -3 c-93 -2 -143 1 -152 9 -11 9 -14 44
-14 149 0 75 3 140 7 144 4 3 72 5 152 4 l146 -3 0 -150z m-320 -320 l0 -150
-150 0 -150 0 -3 140 c-1 76 0 145 2 152 4 11 38 13 153 11 l148 -3 0 -150z
m320 0 l0 -150 -150 0 -150 0 -3 140 c-1 76 0 145 2 152 4 11 38 13 153 11
l148 -3 0 -150z m-650 -330 l0 -150 -145 0 -145 0 -3 140 c-1 76 0 145 2 152
4 11 37 13 148 11 l143 -3 0 -150z m333 11 c2 -95 -1 -143 -9 -152 -9 -12 -41
-14 -153 -12 l-141 3 -3 140 c-1 76 0 145 2 152 4 11 38 13 153 11 l148 -3 3
-139z m640 -9 l3 -147 -146 0 c-80 0 -145 3 -145 8 -9 162 -11 265 -6 278 5
13 26 15 148 11 l143 -4 3 -146z m-1293 -322 l0 -150 -150 0 -150 0 -3 140
c-1 76 0 145 2 152 4 11 38 13 153 11 l148 -3 0 -150z m650 3 c0 -173 19 -156
-173 -154 l-127 1 -3 140 c-1 76 0 145 2 152 4 11 38 13 153 11 l148 -3 0
-147z m965 -3 l0 -145 -145 0 -145 0 0 145 0 145 145 0 145 0 0 -145z m-977
-175 c4 0 7 -65 7 -145 l0 -145 -144 0 -143 0 -5 38 c-8 60 -10 241 -2 254 5
7 47 9 143 5 75 -4 139 -7 144 -7z m657 -145 l0 -145 -145 0 -145 0 0 145 0
145 145 0 145 0 0 -145z m-650 -330 l0 -145 -145 0 -145 0 0 145 0 145 145 0
145 0 0 -145z m320 0 l0 -145 -145 0 -145 0 0 145 0 145 145 0 145 0 0 -145z
m-320 -325 l0 -140 -145 0 -145 0 0 140 0 140 145 0 145 0 0 -140z"/>
</g>
</svg>
