<?xml version="1.0" encoding="iso-8859-1"?>
<!-- Generator: Adobe Illustrator 19.0.0, SVG Export Plug-In . SVG Version: 6.00 Build 0)  -->
<svg version="1.1" id="Layer_1" xmlns="http://www.w3.org/2000/svg" xmlns:xlink="http://www.w3.org/1999/xlink" x="0px" y="0px"
	 viewBox="0 0 511.999 511.999" style="enable-background:new 0 0 511.999 511.999;" xml:space="preserve">
<g>
	<g>
		<g>
			<path d="M412.952,155.384c-6.488,0-12.811,1.198-18.795,3.56c-6.167,2.435-9.193,9.408-6.759,15.575
				c2.436,6.167,9.411,9.195,15.576,6.758c3.165-1.25,6.522-1.883,9.979-1.883c14.894,0,27.013,12.117,27.013,27.013
				c0,6.631,5.376,12.006,12.006,12.006c6.63,0,12.006-5.375,12.006-12.006C463.977,178.273,441.088,155.384,412.952,155.384z"/>
			<path d="M256,52.266c-6.63,0-12.006,5.375-12.006,12.006S249.37,76.278,256,76.278c32.952,0,61.082,24.553,65.432,57.113
				c0.807,6.033,5.961,10.417,11.885,10.417c0.529,0,1.066-0.035,1.605-0.107c6.573-0.878,11.188-6.918,10.311-13.49
				C339.295,85.776,300.934,52.266,256,52.266z"/>
			<path d="M206.375,67.229c-3.356,2.221-6.59,4.687-9.615,7.328c-4.993,4.362-5.506,11.947-1.143,16.94
				c2.375,2.717,5.702,4.107,9.046,4.107c2.802,0,5.617-0.976,7.894-2.964c2.224-1.943,4.602-3.755,7.071-5.389
				c5.529-3.659,7.044-11.109,3.384-16.638C219.353,65.085,211.903,63.571,206.375,67.229z"/>
			<path d="M412.952,107.361c-7.704,0-15.299,0.876-22.704,2.616C375.554,48.805,320.142,4.243,256,4.243
				S136.447,48.805,121.752,109.977c-7.405-1.738-15-2.616-22.704-2.616C44.434,107.361,0,151.793,0,206.409
				s44.434,99.048,99.048,99.048h117.933v105.051h-21.01c-4.64,0-8.866,2.675-10.852,6.87c-1.985,4.195-1.376,9.158,1.567,12.748
				l60.029,73.235c2.28,2.782,5.688,4.395,9.285,4.395s7.005-1.612,9.285-4.395l60.029-73.235c2.941-3.59,3.551-8.553,1.567-12.748
				c-1.986-4.195-6.212-6.87-10.852-6.87h-21.01V305.457h117.932c54.614,0,99.048-44.432,99.048-99.048
				S467.567,107.361,412.952,107.361z M256,476.81l-34.664-42.291h7.651c6.63,0,12.006-5.375,12.006-12.006V188.4h30.015v234.113
				c0,6.631,5.376,12.006,12.006,12.006h7.651L256,476.81z M412.952,281.445H295.019V176.394c0-6.631-5.376-12.006-12.006-12.006
				h-54.026c-6.63,0-12.006,5.375-12.006,12.006v105.051H99.048c-41.376,0-75.036-33.662-75.036-75.036s33.661-75.036,75.036-75.036
				c9.517,0,18.807,1.762,27.612,5.237c3.431,1.354,7.302,1.055,10.487-0.815c3.184-1.871,5.331-5.102,5.82-8.762
				C150.492,70.72,199.084,28.256,256,28.256c56.916,0,105.51,42.465,113.031,98.777c0.489,3.661,2.635,6.893,5.82,8.762
				c3.184,1.872,7.053,2.171,10.487,0.815c8.805-3.474,18.095-5.237,27.612-5.237c41.376,0,75.036,33.662,75.036,75.036
				S454.328,281.445,412.952,281.445z"/>
		</g>
	</g>
</g>
<g>
</g>
<g>
</g>
<g>
</g>
<g>
</g>
<g>
</g>
<g>
</g>
<g>
</g>
<g>
</g>
<g>
</g>
<g>
</g>
<g>
</g>
<g>
</g>
<g>
</g>
<g>
</g>
<g>
</g>
</svg>
