<?xml version="1.0" encoding="UTF-8" standalone="no"?>
<!-- Created with Inkscape (http://www.inkscape.org/) -->

<svg
   xmlns:dc="http://purl.org/dc/elements/1.1/"
   xmlns:cc="http://creativecommons.org/ns#"
   xmlns:rdf="http://www.w3.org/1999/02/22-rdf-syntax-ns#"
   xmlns:svg="http://www.w3.org/2000/svg"
   xmlns="http://www.w3.org/2000/svg"
   xmlns:sodipodi="http://sodipodi.sourceforge.net/DTD/sodipodi-0.dtd"
   xmlns:inkscape="http://www.inkscape.org/namespaces/inkscape"
   width="210mm"
   height="297mm"
   viewBox="0 0 210 297"
   version="1.1"
   id="svg8"
   inkscape:version="0.92.3 (2405546, 2018-03-11)"
   sodipodi:docname="LogoPathEcht.svg">
  <defs
     id="defs2" />
  <sodipodi:namedview
     id="base"
     pagecolor="#ffffff"
     bordercolor="#666666"
     borderopacity="1.0"
     inkscape:pageopacity="0.0"
     inkscape:pageshadow="2"
     inkscape:zoom="0.12374369"
     inkscape:cx="1093.8766"
     inkscape:cy="1145.4279"
     inkscape:document-units="mm"
     inkscape:current-layer="layer1"
     showgrid="false"
     inkscape:window-width="1920"
     inkscape:window-height="1017"
     inkscape:window-x="1358"
     inkscape:window-y="-8"
     inkscape:window-maximized="1" />
  <metadata
     id="metadata5">
    <rdf:RDF>
      <cc:Work
         rdf:about="">
        <dc:format>image/svg+xml</dc:format>
        <dc:type
           rdf:resource="http://purl.org/dc/dcmitype/StillImage" />
        <dc:title></dc:title>
      </cc:Work>
    </rdf:RDF>
  </metadata>
  <g
     inkscape:label="Ebene 1"
     inkscape:groupmode="layer"
     id="layer1">
    <path
       style="fill:#000000;stroke-width:0.0701858"
       d="m 98.23353,230.61311 c -0.0386,-0.0136 -0.38603,-0.12574 -0.77205,-0.24919 -1.23495,-0.39495 -2.47683,-1.0408 -3.61457,-1.87977 -0.32726,-0.24133 -4.24391,-4.10082 -10.35347,-10.20239 l -9.82707,-9.81421 -10.21097,-6e-5 c -10.4721,-6e-5 -11.12661,-0.0149 -12.40875,-0.28206 -1.54489,-0.32187 -3.36052,-1.10988 -4.64534,-2.01617 -0.87383,-0.61638 -2.55982,-2.30237 -3.1762,-3.17621 -1.25197,-1.77489 -2.0415,-3.98119 -2.22734,-6.22417 -0.0406,-0.49019 -0.0692,-4.96314 -0.0698,-10.93496 l -0.001,-10.10546 -9.84642,-9.8624 c -10.0538,-10.07011 -10.12363,-10.1434 -10.93473,-11.47667 -2.32477,-3.82142 -2.32474,-9.23219 7e-5,-13.05456 0.81072,-1.33296 0.88064,-1.40634 10.93465,-11.47667 l 9.84642,-9.8624 10e-4,-10.10546 c 6.3e-4,-5.97182 0.0292,-10.444776 0.0698,-10.934969 0.18595,-2.244286 0.97704,-4.453963 2.22833,-6.224172 0.61647,-0.872137 2.30308,-2.55874 3.17521,-3.175217 1.28654,-0.9094 3.10636,-1.698539 4.63967,-2.011932 1.34434,-0.27477 1.88735,-0.287344 12.4093,-0.287344 h 10.21656 l 9.79175,-9.780997 c 6.20385,-6.197038 9.99803,-9.935611 10.3547,-10.202953 1.58163,-1.18548 3.28497,-1.940205 5.29756,-2.347281 0.71241,-0.144095 1.00072,-0.162906 2.4565,-0.160281 1.51494,0.0027 1.72121,0.01827 2.53087,0.190678 1.272,0.270857 2.07542,0.549187 3.18927,1.104864 1.84193,0.918891 1.30802,0.424329 12.21363,11.31345 l 9.89748,9.88252 10.21075,5.9e-5 c 6.50802,3.8e-5 10.4907,0.02646 10.98278,0.07286 2.14096,0.201879 4.02955,0.87309 5.86052,2.082843 1.10879,0.732599 2.7655,2.383156 3.50086,3.487854 1.21176,1.8204 1.89233,3.709119 2.11039,5.856748 0.048,0.472307 0.0738,4.31888 0.0738,10.98417 v 10.25734 l 9.62052,9.61536 c 5.31189,5.30904 9.86379,9.91552 10.16372,10.28558 0.89708,1.10686 1.61964,2.4182 2.1251,3.85676 l 0.23428,0.66676 v 3.43911 3.4391 l -0.23075,0.66677 c -0.32409,0.93649 -1.1254,2.51057 -1.67927,3.29873 -0.38975,0.55462 -2.13047,2.33131 -10.34908,10.56296 l -9.88053,9.8962 -0.0239,10.73843 c -0.0238,10.67253 -0.0248,10.74326 -0.17585,11.52602 -0.33098,1.71555 -0.99327,3.33065 -1.96509,4.79218 -0.76477,1.15015 -2.39636,2.78409 -3.52422,3.52929 -1.81194,1.19718 -3.68066,1.86629 -5.81532,2.08223 -0.47047,0.0476 -4.34423,0.0735 -10.98302,0.0735 h -10.25615 l -9.89725,9.88273 c -8.1934,8.18137 -10.01204,9.96366 -10.56402,10.35288 -0.78833,0.55588 -2.3625,1.35702 -3.29873,1.67882 l -0.66677,0.22919 -3.33382,0.0133 c -1.83361,0.007 -3.36541,0.002 -3.40401,-0.0114 z M 87.8333,207.48418 c 3.1765,-0.26318 6.20446,-1.72934 8.15674,-3.94953 1.60828,-1.82896 2.72109,-4.41554 2.97646,-6.9184 0.10306,-1.01005 0.10306,-34.31361 0,-35.32367 -0.30586,-2.99758 -1.8488,-6.11519 -3.89133,-7.86266 -1.65453,-1.41551 -3.78057,-2.43477 -6.00585,-2.87928 l -0.80218,-0.16024 -17.2657,-0.0219 c -17.57605,-0.0223 -18.1701,-0.015 -19.39561,0.2381 -3.17589,0.65584 -5.9206,2.43741 -7.55785,4.90573 -1.31055,1.9758 -1.99762,3.99967 -2.13935,6.30177 -0.0944,1.5336 -0.0905,34.2395 0.004,35.00441 0.40203,3.24752 1.9497,6.1355 4.31299,8.0481 1.68848,1.36648 4.22353,2.40867 6.422,2.64016 0.59862,0.063 34.41406,0.0413 35.18545,-0.0226 z m -31.94467,-8.4436 -0.1526,-0.16244 v -19.6879 -19.68792 l 0.16244,-0.1526 c 0.16074,-0.15101 0.18962,-0.15261 2.7601,-0.15261 h 2.59766 l 0.15261,0.16245 0.15261,0.16244 v 8.0493 8.04929 h 8.66794 8.66795 v -8.05913 -8.05914 l 0.16244,-0.1526 c 0.16084,-0.1511 0.18849,-0.15261 2.80234,-0.15261 h 2.63989 l 0.14547,0.18494 0.14547,0.18492 v 19.62117 19.62118 l -0.1886,0.19685 -0.1886,0.19685 h -2.6066 -2.6066 l -0.15261,-0.16244 -0.1526,-0.16244 v -9.067 -9.06698 h -8.66795 -8.66794 v 9.07682 9.07683 l -0.16245,0.15261 c -0.16074,0.15101 -0.18962,0.1526 -2.7601,0.1526 h -2.59766 z m 4.83059,-9.78187 v -9.0319 l 0.1526,-0.16244 0.15261,-0.16244 h 9.19513 9.19513 l 0.16244,0.1526 0.16244,0.15261 v 9.04173 9.04174 h 2.07048 2.07048 v -19.12563 -19.12564 h -2.07048 -2.07048 v 8.0493 8.0493 l -0.15261,0.16244 -0.1526,0.16244 H 70.23923 61.0441 l -0.16244,-0.1526 -0.16244,-0.15261 v -8.05913 -8.05914 h -2.07048 -2.07049 v 19.12564 19.12563 h 2.07049 2.07048 z m 90.55805,18.13492 c 5.21417,-1.05367 8.73161,-4.57107 9.78664,-9.78651 0.11675,-0.57714 0.12566,-1.68737 0.14493,-18.05612 0.0224,-18.99239 0.0343,-18.34436 -0.3671,-19.9859 -0.59663,-2.44013 -2.03685,-4.84462 -3.75742,-6.2731 -1.92214,-1.59585 -4.23854,-2.57571 -6.77293,-2.86504 -0.41531,-0.0474 -6.47442,-0.0723 -17.68949,-0.0727 -14.42312,-7e-4 -17.18207,0.015 -17.86228,0.10041 -1.52706,0.19169 -2.68919,0.53612 -4.03302,1.1953 -2.46439,1.20883 -4.0896,2.80355 -5.33077,5.23076 -0.67493,1.31989 -1.12494,2.85873 -1.29747,4.43672 -0.10365,0.94807 -0.1038,34.32382 0,35.2739 0.17301,1.5859 0.55631,2.90019 1.26317,4.3312 0.26694,0.54043 0.69798,1.28265 0.95786,1.64937 0.60684,0.85632 1.83671,2.08525 2.68782,2.68575 1.65642,1.16869 3.92144,2.01124 5.96579,2.21919 0.32812,0.0334 8.49248,0.0563 18.14303,0.0508 16.48735,-0.009 17.58357,-0.0173 18.1614,-0.1341 z m -20.78697,-7.77528 c -1.63326,-0.12517 -3.58834,-0.5494 -4.68517,-1.01663 -2.74991,-1.1714 -4.79422,-3.16544 -6.16164,-6.01011 -0.97961,-2.03791 -1.42224,-3.64324 -1.77657,-6.44315 -0.0968,-0.76488 -0.11428,-2.54046 -0.1364,-13.85454 l -0.0254,-12.97722 0.15508,-0.16507 0.15508,-0.16507 h 2.5724 2.57241 l 0.14938,0.15901 0.14938,0.15901 0.0262,12.56217 c 0.0286,13.72289 0.0111,13.11775 0.43951,15.18378 0.47496,2.29035 1.46272,4.3461 2.59899,5.40902 0.54805,0.51267 0.88927,0.74911 1.60913,1.11499 1.90443,0.96797 4.65345,1.15325 7.0041,0.47205 1.1306,-0.32763 2.43455,-1.11971 3.13042,-1.90154 1.21045,-1.36 2.12523,-3.58566 2.49353,-6.06677 0.23465,-1.58071 0.2496,-2.45307 0.25032,-14.60396 l 7e-4,-12.18255 0.16245,-0.15261 c 0.16048,-0.15076 0.19242,-0.1526 2.65482,-0.1526 h 2.49238 l 0.15542,0.16543 0.15541,0.16543 -0.0266,12.94176 c -0.0188,9.16171 -0.0501,13.12627 -0.10702,13.57345 -0.37449,2.94277 -0.73923,4.38725 -1.58648,6.28297 -0.66307,1.48362 -1.39674,2.58759 -2.46725,3.71251 -1.13499,1.19267 -2.10088,1.90418 -3.49055,2.57124 -2.08713,1.00185 -5.28603,1.46256 -8.46402,1.219 z m 2.98385,-0.83792 c 3.33349,-0.26394 5.73877,-1.16766 7.80424,-2.93225 1.38793,-1.18574 2.88327,-3.77905 3.6024,-6.2475 0.16475,-0.56552 0.44468,-1.82884 0.555,-2.50471 0.30729,-1.88259 0.30135,-1.61515 0.32817,-14.75656 l 0.0255,-12.51062 h -1.96775 -1.96775 v 11.98422 c 0,7.54223 -0.0271,12.34844 -0.0726,12.96683 -0.21,2.85246 -0.89262,5.14508 -2.04469,6.86726 -0.43344,0.64795 -1.88864,2.06272 -2.52999,2.45972 -1.40477,0.86956 -2.77158,1.19261 -5.03805,1.19077 -2.8857,-0.002 -4.58158,-0.62908 -6.30482,-2.33002 -1.04071,-1.02723 -1.65768,-2.02561 -2.24056,-3.62565 -0.53733,-1.47504 -0.80796,-2.97434 -0.92817,-5.14221 -0.0398,-0.71787 -0.0696,-6.13887 -0.0704,-12.80781 l -0.002,-11.56311 h -2.03775 -2.03776 l 0.0251,12.5808 c 0.0268,13.43022 0.0134,12.88041 0.36575,14.96712 0.4923,2.91554 1.74472,5.82924 3.31143,7.70389 1.08303,1.29588 3.18812,2.5572 5.17814,3.10261 1.99981,0.54809 4.07625,0.75319 6.04612,0.59722 z m -45.32707,-53.4848 c 2.54253,-0.27933 4.83456,-1.25357 6.79604,-2.88868 1.69536,-1.41327 3.09727,-3.73701 3.70771,-6.14571 0.40561,-1.60049 0.38983,-0.81146 0.38983,-19.49144 0,-18.80832 0.02,-17.871119 -0.41705,-19.566096 -0.59807,-2.319561 -2.02174,-4.672333 -3.64943,-6.03108 -2.02116,-1.687216 -4.35133,-2.660787 -7.01277,-2.930016 -0.4849,-0.04905 -6.41225,-0.07353 -17.80723,-0.07353 -15.05134,0 -17.17312,0.01293 -17.86102,0.108879 -1.90334,0.265471 -3.57343,0.895539 -5.18999,1.95801 -2.86318,1.881807 -4.73761,5.012777 -5.19031,8.669697 -0.10009,0.808499 -0.1022,34.187376 -0.002,35.270216 0.4993,5.40834 3.94939,9.50463 9.10181,10.80657 1.53616,0.38817 0.7689,0.37304 19.30745,0.38084 11.72131,0.005 17.36127,-0.0165 17.8272,-0.0677 z m -20.8304,-8.28198 c -1.99118,-0.21918 -3.79299,-0.85461 -5.3316,-1.88028 -0.70896,-0.4726 -2.2309,-1.92402 -2.85498,-2.72268 -0.63158,-0.80826 -1.21832,-1.76579 -1.21832,-1.98823 0,-0.10496 0.0696,-0.25127 0.15792,-0.33211 0.0869,-0.0795 0.9301,-0.68507 1.87387,-1.34576 1.91979,-1.34398 2.01698,-1.38421 2.35077,-0.97317 0.10187,0.12546 0.37114,0.51236 0.59838,0.85978 0.22723,0.34742 0.56808,0.81356 0.75745,1.03586 1.6287,1.91203 4.5861,2.69742 7.14071,1.89635 0.68461,-0.21468 0.99476,-0.36688 1.55179,-0.76152 1.02767,-0.72808 1.75904,-2.44777 2.02743,-4.76714 0.0906,-0.78269 0.10553,-2.92771 0.10553,-15.13035 V 96.686033 l 0.16245,-0.152607 c 0.16074,-0.151007 0.18964,-0.152606 2.7592,-0.152606 h 2.59677 l 0.19139,0.199768 0.19139,0.199769 -0.0245,14.662073 c -0.0225,13.45549 -0.0345,14.7285 -0.14575,15.46922 -0.50278,3.34701 -1.42779,5.38252 -3.3057,7.27429 -1.50143,1.51249 -3.06353,2.33016 -5.16248,2.70224 -0.93137,0.1651 -3.42006,0.23573 -4.42171,0.12547 z m 3.14358,-0.84191 c 1.97436,-0.21616 3.63106,-0.82599 5.08622,-1.87223 0.98583,-0.7088 1.86244,-1.83528 2.54148,-3.26589 0.59408,-1.25161 0.95996,-2.49963 1.2432,-4.2406 l 0.1577,-0.96925 0.0223,-14.30036 0.0223,-14.30036 h -2.10607 -2.10606 l -0.0243,14.54601 c -0.0221,13.22855 -0.0349,14.60587 -0.14185,15.20692 -0.36138,2.03146 -0.88611,3.1636 -1.9273,4.15835 -0.6749,0.64479 -1.2108,0.97462 -2.01978,1.24308 -0.83555,0.27728 -1.79148,0.38819 -2.9343,0.34043 -1.47701,-0.0617 -2.4747,-0.34762 -3.55408,-1.01848 -0.6703,-0.4166 -1.9303,-1.67401 -2.4916,-2.48647 -0.23161,-0.33525 -0.44875,-0.61117 -0.48253,-0.61316 -0.10142,-0.006 -2.78111,1.89247 -2.78111,1.9703 0,0.11106 0.60059,1.01642 1.08836,1.64064 1.77579,2.2726 4.47862,3.63782 7.89543,3.98805 0.55609,0.057 1.87418,0.0428 2.5119,-0.027 z m 80.78231,9.00391 c 2.38135,-0.47644 4.66295,-1.61911 6.23783,-3.12403 2.11189,-2.01809 3.42031,-4.82746 3.67393,-7.88847 0.0423,-0.51095 0.0692,-7.36234 0.0698,-17.84055 9.9e-4,-15.0535 -0.0115,-17.096896 -0.10843,-17.757012 -0.24734,-1.684379 -0.79842,-3.261574 -1.60943,-4.606178 -1.75749,-2.913802 -4.41337,-4.777571 -7.9267,-5.562579 l -0.84711,-0.189275 -17.09024,-0.0233 c -17.75101,-0.0242 -18.59827,-0.01287 -19.92349,0.26639 -0.88175,0.185804 -2.1864,0.628347 -2.99126,1.014641 -0.92426,0.443601 -2.23783,1.341665 -2.95406,2.019641 -2.04567,1.936394 -3.39897,4.784604 -3.67685,7.738412 -0.1004,1.06721 -0.10013,34.02957 0,35.0929 0.2908,3.07944 1.7391,6.03389 3.90845,7.97301 1.76513,1.57782 4.37012,2.71229 6.89733,3.0038 0.28952,0.0334 8.4065,0.0562 18.03775,0.0508 l 17.51136,-0.01 0.7908,-0.15822 z m -20.82885,-8.13417 c -2.82041,-0.28291 -4.81825,-0.90399 -6.4571,-2.00734 -0.98849,-0.66551 -2.05457,-1.63846 -2.78611,-2.54272 -0.76262,-0.9427 -1.68565,-2.65196 -2.23075,-4.13091 -0.57751,-1.56689 -1.00119,-3.79052 -1.15639,-6.06916 -0.0465,-0.68321 -0.0733,-5.55257 -0.0733,-13.34062 V 96.686033 l 0.16244,-0.152607 c 0.16074,-0.151009 0.18961,-0.152606 2.7601,-0.152606 h 2.59767 l 0.15043,0.160136 0.15045,0.160136 0.0232,12.806698 c 0.0213,11.74349 0.0334,12.87343 0.14538,13.6106 0.36131,2.37751 1.02582,4.28918 2.00497,5.76781 1.62547,2.45468 5.32027,3.56097 8.98148,2.68922 1.80489,-0.42976 3.24488,-1.39554 4.18949,-2.80987 0.77494,-1.16028 1.406,-2.74741 1.74178,-4.38059 0.39105,-1.90201 0.39429,-2.02875 0.39429,-15.40482 V 96.686033 l 0.16245,-0.152607 c 0.16048,-0.150767 0.19245,-0.152606 2.65393,-0.152606 h 2.49148 l 0.18859,0.196852 0.1886,0.196852 -0.002,11.260986 c -0.002,13.32339 -0.0411,14.80697 -0.45428,17.19168 -0.64783,3.7392 -2.21816,6.74705 -4.62141,8.85195 -2.01304,1.76314 -4.14932,2.61024 -7.40566,2.9366 -0.66613,0.0668 -3.2188,0.0841 -3.80014,0.0257 z m 4.00059,-0.9357 c 0.92525,-0.11816 2.21401,-0.39501 2.9478,-0.63325 1.49455,-0.48522 3.03645,-1.38429 4.09905,-2.39013 1.89465,-1.79345 3.42483,-5.04758 3.97424,-8.45179 0.31118,-1.92806 0.30177,-1.50478 0.3286,-14.79166 l 0.0255,-12.6159 h -1.92811 -1.92809 l -0.0276,12.33516 c -0.0248,11.06894 -0.0399,12.43962 -0.14737,13.35285 -0.41506,3.52768 -1.3989,5.82707 -3.23818,7.5681 -1.13907,1.07822 -2.07594,1.61003 -3.40392,1.93222 -1.1347,0.2753 -1.96582,0.35054 -3.36041,0.30423 -2.39822,-0.0797 -3.83208,-0.56823 -5.31951,-1.81258 -1.05362,-0.88144 -1.70501,-1.72045 -2.3087,-2.97369 -0.69445,-1.44164 -1.09322,-2.93657 -1.33863,-5.01828 -0.10778,-0.91424 -0.12276,-2.27174 -0.14728,-13.35285 l -0.0273,-12.33516 h -2.03408 -2.03408 l 0.0278,12.40534 c 0.0288,12.85859 0.0255,12.71141 0.3346,14.79166 0.38445,2.58698 1.33226,5.12634 2.64823,7.09505 0.8285,1.23945 1.67095,2.03077 3.05945,2.87375 1.53962,0.93472 3.62704,1.55423 6.01311,1.78459 0.79551,0.0768 2.95634,0.0382 3.78499,-0.0677 z"
       id="path3759"
       inkscape:connector-curvature="0" />
  </g>
</svg>
