<svg id="svg" xmlns="http://www.w3.org/2000/svg" xmlns:xlink="http://www.w3.org/1999/xlink" width="400" height="400" viewBox="0, 0, 400,400"><g id="svgg"><path id="path0" d="M192.982 60.275 C 190.491 61.197,160.926 77.730,137.719 91.178 C 128.311 96.630,111.561 106.199,100.496 112.442 C 89.431 118.685,78.860 124.996,77.004 126.465 C 70.673 131.480,71.053 126.602,71.053 202.959 L 71.053 271.795 73.465 274.699 C 77.172 279.160,79.733 281.182,86.404 284.912 C 89.781 286.800,114.452 300.811,141.228 316.048 C 195.141 346.727,192.941 345.614,199.695 345.614 C 205.380 345.614,199.138 348.873,263.158 312.477 C 325.350 277.120,321.070 279.730,324.351 275.162 L 327.193 271.204 327.193 202.913 C 327.193 120.360,329.660 130.223,305.628 116.710 C 299.879 113.477,277.412 100.774,255.702 88.480 C 233.991 76.187,213.598 64.671,210.384 62.889 C 204.619 59.693,197.459 58.618,192.982 60.275 M193.656 96.272 L 193.421 117.982 168.421 120.714 C 154.671 122.216,135.132 124.302,125.000 125.350 C 114.868 126.398,105.000 127.457,103.070 127.704 C 99.574 128.151,99.569 128.148,101.754 126.749 C 106.039 124.007,192.555 74.714,193.217 74.639 C 193.587 74.596,193.785 84.331,193.656 96.272 M241.869 95.467 C 262.021 106.965,282.950 118.898,288.377 121.984 C 297.318 127.069,300.755 129.803,296.711 128.614 C 295.063 128.130,275.000 125.769,247.368 122.809 C 215.173 119.359,205.701 118.249,205.044 117.845 C 204.337 117.411,204.103 74.561,204.807 74.561 C 205.039 74.561,221.716 83.969,241.869 95.467 M172.584 95.689 C 170.773 96.116,167.319 97.465,164.909 98.686 C 160.536 100.902,160.526 100.903,160.526 99.028 C 160.526 95.728,156.145 97.628,142.122 107.006 C 132.755 113.271,128.947 116.306,128.947 117.506 C 128.947 122.861,135.113 120.151,152.617 107.102 L 155.672 104.825 153.713 107.355 C 145.045 118.554,167.806 120.046,180.575 109.115 C 191.936 99.391,187.624 92.145,172.584 95.689 M213.158 97.352 C 213.158 100.839,228.880 115.853,233.114 116.408 C 239.743 117.278,238.391 113.983,228.048 104.055 C 218.750 95.131,213.158 92.613,213.158 97.352 M226.316 98.965 C 226.316 101.980,228.215 103.509,231.960 103.509 C 233.376 103.509,234.211 103.021,234.211 102.193 C 234.211 100.509,236.233 100.517,239.517 102.216 C 242.213 103.610,242.767 105.128,241.164 106.731 C 239.047 108.848,240.617 113.512,244.005 115.168 C 250.450 118.319,270.175 120.190,270.175 117.651 C 270.175 115.039,266.374 113.198,258.756 112.120 L 251.727 111.126 252.286 108.146 C 253.356 102.444,245.185 97.685,232.675 96.726 L 226.316 96.238 226.316 98.965 M177.193 100.357 C 177.193 103.452,164.498 112.158,162.662 110.323 C 161.807 109.468,168.678 102.688,172.132 100.978 C 176.548 98.792,177.193 98.713,177.193 100.357 M178.532 143.202 C 173.488 150.559,159.003 171.873,146.343 190.566 C 133.683 209.259,123.059 224.259,122.734 223.899 C 122.408 223.540,116.523 209.232,109.655 192.105 C 102.787 174.978,95.265 156.334,92.939 150.674 C 90.614 145.015,89.014 140.196,89.385 139.967 C 89.757 139.737,97.922 138.742,107.530 137.755 C 117.139 136.769,130.526 135.378,137.281 134.665 C 144.035 133.953,155.680 132.757,163.158 132.008 C 170.636 131.259,177.346 130.507,178.070 130.337 C 178.794 130.167,181.257 129.982,183.545 129.926 L 187.704 129.825 178.532 143.202 M235.088 131.960 C 241.601 132.667,257.785 134.423,271.053 135.862 C 284.320 137.301,297.939 138.750,301.316 139.082 C 304.693 139.413,307.914 139.933,308.474 140.237 C 309.423 140.752,306.864 147.342,285.609 199.123 C 283.529 204.189,280.327 212.001,278.493 216.483 C 276.660 220.965,274.875 224.321,274.528 223.939 C 274.180 223.558,263.331 207.654,250.419 188.596 C 237.506 169.539,223.181 148.456,218.586 141.745 L 210.232 129.542 216.739 130.109 C 220.318 130.420,228.575 131.253,235.088 131.960 M220.689 164.474 C 232.112 181.360,246.933 203.145,253.624 212.886 C 260.315 222.627,265.789 230.818,265.789 231.088 C 265.789 231.358,235.777 231.579,199.095 231.579 L 132.400 231.579 133.525 229.553 C 136.451 224.282,198.739 133.353,199.290 133.549 C 199.636 133.672,209.265 147.588,220.689 164.474 M269.518 145.167 C 263.531 147.769,266.292 154.501,272.763 153.080 C 278.575 151.803,283.038 157.263,279.098 160.829 C 277.015 162.714,273.862 162.642,265.789 160.526 C 258.383 158.585,249.139 158.230,247.544 159.825 C 242.434 164.934,259.889 187.866,265.404 183.289 C 267.492 181.556,266.857 178.856,263.102 173.503 C 259.088 167.781,259.439 167.445,267.025 169.746 C 276.738 172.693,286.577 170.664,288.618 165.293 C 293.296 152.991,281.095 140.135,269.518 145.167 M113.966 146.731 C 102.602 154.390,105.011 171.053,117.482 171.053 C 120.695 171.053,121.173 171.358,122.725 174.401 C 125.645 180.124,130.697 182.330,137.022 180.645 C 153.813 176.169,151.861 150.270,134.870 152.100 C 130.967 152.520,130.621 152.388,129.392 150.012 C 126.521 144.460,119.540 142.975,113.966 146.731 M122.080 155.838 C 124.136 157.698,124.106 158.995,121.965 160.933 C 118.417 164.144,113.689 160.839,115.655 156.523 C 116.800 154.012,119.718 153.700,122.080 155.838 M94.715 184.211 C 113.469 230.392,114.900 234.099,114.422 235.248 C 114.158 235.883,109.719 239.822,104.558 244.000 C 99.398 248.179,92.511 253.834,89.254 256.567 L 83.333 261.536 83.389 209.058 C 83.420 179.861,83.772 157.357,84.182 158.333 C 84.587 159.298,89.327 170.943,94.715 184.211 M314.706 234.745 L 314.474 260.718 299.395 248.342 C 291.101 241.536,284.078 235.583,283.788 235.113 C 283.497 234.643,290.283 216.941,298.867 195.775 L 314.474 157.291 314.706 183.031 C 314.834 197.189,314.834 220.460,314.706 234.745 M138.321 163.311 C 140.852 165.689,140.882 167.304,138.444 169.900 C 133.871 174.766,126.485 168.819,130.313 163.353 C 132.070 160.844,135.675 160.825,138.321 163.311 M177.207 178.043 C 168.880 180.132,164.662 193.072,172.106 193.691 C 175.113 193.941,175.484 193.701,177.152 190.431 C 180.087 184.678,184.309 183.864,186.826 188.566 C 188.222 191.176,186.407 194.071,180.239 199.077 C 162.229 213.689,162.830 219.298,182.405 219.298 C 197.140 219.298,197.368 219.230,197.368 214.835 C 197.368 210.882,196.878 210.661,187.346 210.311 L 181.272 210.088 187.516 204.985 C 204.265 191.298,197.267 173.010,177.207 178.043 M209.996 178.099 C 203.216 180.171,200.519 186.159,200.527 199.123 C 200.536 213.586,204.730 219.292,215.351 219.292 C 226.239 219.292,229.825 214.264,229.825 198.996 C 229.825 181.935,222.545 174.264,209.996 178.099 M217.469 186.623 C 221.685 190.077,221.673 207.256,217.452 210.746 C 212.871 214.533,210.965 210.989,210.965 198.684 C 210.965 186.368,212.862 182.849,217.469 186.623 M88.146 192.119 C 87.160 193.208,86.392 195.735,86.147 198.698 C 85.927 201.344,85.348 203.509,84.859 203.509 C 83.477 203.509,84.633 214.112,86.394 217.583 C 89.661 224.026,93.952 225.728,96.799 221.711 C 97.568 220.625,97.201 222.063,95.984 224.906 C 93.046 231.769,93.272 237.161,96.514 237.539 C 99.564 237.895,105.543 224.551,105.103 218.372 C 104.731 213.166,101.656 212.300,99.624 216.828 C 98.320 219.734,98.319 219.734,98.894 217.105 C 102.008 202.863,94.409 185.198,88.146 192.119 M300.937 193.749 C 299.353 196.707,299.867 198.932,305.198 212.205 C 306.545 215.558,306.731 216.644,305.832 215.897 C 305.131 215.316,304.295 213.771,303.974 212.464 C 302.123 204.935,297.640 203.922,294.419 210.307 C 290.162 218.746,290.247 230.597,294.578 232.663 C 296.105 233.391,297.025 234.606,297.201 236.126 C 298.555 247.807,308.647 235.646,308.750 222.210 C 308.768 219.993,309.177 219.363,310.746 219.140 C 313.841 218.700,313.163 212.040,308.932 201.316 C 305.282 192.065,302.996 189.901,300.937 193.749 M93.890 202.743 C 95.091 207.204,93.751 209.235,92.152 205.377 C 91.225 203.139,91.493 199.123,92.569 199.123 C 92.759 199.123,93.354 200.752,93.890 202.743 M299.123 218.744 C 299.123 219.829,298.543 221.484,297.835 222.420 C 296.634 224.008,296.545 223.881,296.519 220.541 C 296.504 218.571,296.744 216.707,297.052 216.398 C 298.018 215.433,299.123 216.685,299.123 218.744 M302.717 228.701 C 301.919 230.071,301.804 229.985,301.781 227.997 C 301.766 226.751,302.050 225.432,302.412 225.068 C 303.466 224.005,303.716 226.984,302.717 228.701 M264.911 242.168 C 264.912 242.444,258.367 251.129,250.367 261.467 C 242.368 271.805,227.687 290.822,217.744 303.728 C 207.800 316.634,199.364 327.193,198.997 327.193 C 198.273 327.193,134.382 244.450,133.667 242.586 C 133.314 241.667,145.627 241.474,199.071 241.560 C 235.282 241.619,264.910 241.892,264.911 242.168 M128.797 254.789 C 134.353 261.974,135.574 264.035,134.274 264.035 C 130.795 264.035,129.825 265.013,129.825 268.515 C 129.825 270.589,130.255 271.984,130.921 272.068 C 131.524 272.143,130.044 272.439,127.632 272.726 C 122.618 273.320,121.491 275.493,124.117 279.501 C 125.517 281.637,125.507 281.677,123.795 280.761 C 121.434 279.497,120.739 278.229,120.671 275.057 C 120.553 269.551,111.404 268.380,111.404 273.871 C 111.404 285.145,150.540 300.574,151.589 289.713 C 151.952 285.958,145.670 279.112,138.640 275.599 C 134.176 273.368,133.829 273.008,135.453 272.293 C 136.456 271.852,137.475 270.450,137.717 269.177 C 138.111 267.110,139.754 268.936,153.070 286.249 C 161.272 296.911,171.320 309.967,175.398 315.261 C 179.477 320.555,182.438 324.666,181.977 324.398 C 181.517 324.129,171.075 318.194,158.772 311.209 C 97.569 276.462,89.400 271.718,89.647 271.067 C 90.102 269.862,120.524 244.848,121.100 245.205 C 121.400 245.390,124.864 249.703,128.797 254.789 M294.985 259.184 C 310.846 272.272,310.106 271.047,304.167 274.404 C 301.634 275.835,281.534 287.280,259.501 299.838 C 237.468 312.395,218.635 323.100,217.649 323.628 C 216.187 324.410,239.340 293.706,271.693 251.957 C 277.275 244.754,277.327 244.715,279.255 246.256 C 280.323 247.109,287.401 252.927,294.985 259.184 M178.286 249.258 C 177.685 249.859,177.193 251.615,177.193 253.160 C 177.193 255.492,176.747 256.124,174.561 256.886 C 171.380 257.995,170.490 264.035,173.509 264.035 C 176.665 264.035,177.193 265.813,177.193 276.441 C 177.193 286.092,177.316 286.829,179.143 288.108 C 183.541 291.189,184.996 290.025,197.469 273.456 C 208.053 259.396,207.808 257.028,195.771 257.004 C 187.750 256.988,186.763 256.487,186.051 252.065 C 185.461 248.407,180.816 246.728,178.286 249.258 M210.557 249.942 C 208.982 252.886,209.375 285.183,211.015 287.524 C 212.561 289.732,215.540 290.052,217.974 288.273 C 219.942 286.834,221.138 255.178,219.395 250.658 C 218.205 247.574,212.090 247.079,210.557 249.942 M193.267 264.612 C 193.736 265.081,190.583 269.622,186.692 274.079 C 186.292 274.537,185.965 272.847,185.965 270.323 C 185.965 265.291,190.444 261.789,193.267 264.612 M267.660 270.925 C 265.908 272.785,262.895 276.105,260.965 278.302 C 258.535 281.068,256.352 282.590,253.867 283.250 C 248.023 284.802,244.956 290.351,249.942 290.351 C 250.905 290.351,252.115 291.140,252.632 292.105 C 253.947 294.564,255.441 294.305,259.494 290.919 C 262.422 288.473,264.612 287.644,272.516 285.988 C 285.174 283.336,287.719 281.931,287.719 277.600 C 287.719 276.937,285.258 274.404,282.250 271.970 C 275.183 266.252,272.261 266.043,267.660 270.925 M274.476 277.529 C 275.291 278.511,274.935 278.825,272.610 279.179 C 269.158 279.705,268.695 279.416,270.158 277.653 C 271.538 275.990,273.161 275.944,274.476 277.529 M140.273 283.110 C 142.639 284.915,143.051 285.574,141.947 285.786 C 140.152 286.132,134.113 283.141,132.397 281.057 C 130.371 278.593,136.418 280.170,140.273 283.110 " stroke="none" fill="#000000" fill-rule="evenodd"></path></g></svg>