<svg id="Capa_1" enable-background="new 0 0 512.029 512.029" height="512" viewBox="0 0 512.029 512.029" width="512" xmlns="http://www.w3.org/2000/svg"><g><g><g><path d="m370.346 359.107-126.07-126.07-13.99 22.96-15.3-52.25-55.99-55.99-31.67 77.91-17.64-9.7-49.12 131.021v.01l1.43 40-18.06 4.33v.01l-37.65 100.39c-2.25 6-.44 11.97 3.45 15.86 3.88 3.89 9.83 5.72 15.86 3.45l79.43-29.78 3.05-18.59 28.33 6.82 61.63-23.11v-23.05l32.25 10.96 59.76-22.41 6.28-17.88 24.87 6.19h.01l43.8-16.42c10.23-3.84 13.03-16.971 5.34-24.661z" fill="#ff7d43"/></g></g><path d="m365.006 383.767-43.8 16.42s0 0-.01 0l-24.87-6.19-6.28 17.88-59.76 22.41-32.25-10.96v23.05l-61.63 23.11-28.33-6.82-3.05 18.59-79.43 29.78c-6.03 2.27-11.98.44-15.86-3.45l254.55-254.54 106.06 106.06c7.69 7.69 4.89 20.821-5.34 24.66z" fill="#e63950"/><g><path d="m321.196 400.187-31.15 11.69c-31.8-32.85-54.76-73.57-66.62-117.98-7.71-28.87-10.73-59.31-8.44-90.15l29.29 29.29c.44 12.14 1.8 24.16 4.05 35.96 9.53 50.03 34.92 96.11 72.87 131.19z" fill="#f0f7ff"/></g><path d="m321.196 400.187-31.15 11.69c-31.8-32.85-54.76-73.57-66.62-117.98l24.9-24.9c9.53 50.03 34.92 96.11 72.87 131.19z" fill="#dfe7f4"/><g><path d="m230.286 434.287-32.25 12.09c-22.67-20.3-41.7-44.22-56.34-70.75-26.868-48.663-38.055-104.771-32.01-159.66l23.87-63.65c3.83-10.19 16.94-13.06 24.66-5.34l.78.78c-30.237 68.208-26.616 143.356 4.9 205.67 15.85 31.38 38.48 59.001 66.39 80.86z" fill="#f0f7ff"/></g><path d="m230.286 434.287-32.25 12.09c-22.67-20.3-41.7-44.22-56.34-70.75l22.2-22.2c15.85 31.38 38.48 59.001 66.39 80.86z" fill="#dfe7f4"/><g><path d="m136.406 469.488-31.38 11.77c-11.7-11.35-22.36-23.76-31.84-37.12-10.759-14.957-21.183-33.338-29.25-52.8v-.01l16.63-44.33c6.85 27.38 18.39 52.94 33.97 75.79 11.74 17.239 25.79 32.929 41.87 46.7z" fill="#f0f7ff"/></g><path d="m136.406 469.488-31.38 11.77c-11.7-11.35-22.36-23.76-31.84-37.12l21.35-21.35c11.74 17.239 25.79 32.929 41.87 46.7z" fill="#dfe7f4"/><g><path d="m237.161 163.49c-5.858-5.858-5.858-15.355 0-21.213 56.432-56.432 38.985-111.381 38.803-111.93-2.619-7.859 1.628-16.354 9.487-18.974 7.857-2.621 16.354 1.628 18.974 9.487.985 2.958 23.347 73.232-46.051 142.629-5.856 5.858-15.355 5.859-21.213.001z" fill="#8cd96b"/></g><g><path d="m353.834 280.162c5.858 5.858 15.355 5.858 21.213 0 56.432-56.432 111.381-38.985 111.93-38.803 7.859 2.619 16.354-1.628 18.974-9.487 2.621-7.857-1.628-16.354-9.487-18.974-2.958-.985-73.232-23.347-142.629 46.051-5.858 5.857-5.859 15.356-.001 21.213z" fill="#5ab267"/></g><g><path d="m499.676 70.678c-13.22 13.22-36.8-.82-45.05 2.69-3.51 8.28 10.54 31.83-2.68 45.04-13.22 13.22-36.79-.82-45.05 2.69-3.52 8.28 10.54 31.82-2.68 45.04s-36.81-.82-45.05 2.69c-3.52 8.28 10.54 31.82-2.68 45.04-13.49 13.49-37.34-1.16-45.17 2.74-3.91 3.85-9.43 5.13-14.4 3.8-2.46-.65-4.79-1.95-6.72-3.88-5.86-5.86-5.86-15.36 0-21.22 11.45-11.45 27.48-9.64 39.31-7.49.38.07.76.14 1.13.21-.07-.37-.14-.75-.21-1.13-2.14-11.83-3.96-27.86 7.5-39.32 11.45-11.45 27.48-9.64 39.31-7.49.38.07.76.14 1.13.21-.07-.37-.14-.75-.21-1.13-2.14-11.83-3.96-27.86 7.5-39.32 11.45-11.45 27.48-9.64 39.31-7.49.38.07.76.14 1.13.21-.07-.37-.14-.75-.21-1.13-2.14-11.83-3.96-27.86 7.5-39.32 11.45-11.45 27.48-9.64 39.31-7.49.38.07.76.14 1.13.21-.07-.37-.14-.75-.21-1.13-2.14-11.83-3.96-27.86 7.5-39.32 5.85-5.85 15.35-5.85 21.21 0 1.93 1.93 3.23 4.26 3.88 6.73 1.33 4.96.07 10.48-3.79 14.4-3.86 7.759 10.62 31.799-2.74 45.16z" fill="#ff7d43"/></g><path d="m499.676 70.678c-13.22 13.22-36.8-.82-45.05 2.69-3.51 8.28 10.54 31.83-2.68 45.04-13.22 13.22-36.79-.82-45.05 2.69-3.52 8.28 10.54 31.82-2.68 45.04s-36.81-.82-45.05 2.69c-3.52 8.28 10.54 31.82-2.68 45.04-13.49 13.49-37.34-1.16-45.17 2.74-3.91 3.85-9.43 5.13-14.4 3.8l32.59-32.59c.38.07.76.14 1.13.21-.07-.37-.14-.75-.21-1.13l46.81-46.81c.38.07.76.14 1.13.21-.07-.37-.14-.75-.21-1.13l46.81-46.81c.38.07.76.14 1.13.21-.07-.37-.14-.75-.21-1.13l46.81-46.81c.38.07.76.14 1.13.21-.07-.37-.14-.75-.21-1.13l32.59-32.59c1.33 4.96.07 10.48-3.79 14.4-3.86 7.759 10.62 31.799-2.74 45.16z" fill="#e63950"/><g><circle cx="364.441" cy="57.424" fill="#ffe470" r="15"/></g><g><circle cx="470.507" cy="163.49" fill="#fabe2c" r="15"/></g><g><circle cx="449.293" cy="311.982" fill="#fabe2c" r="15"/></g><g><circle cx="215.948" cy="78.637" fill="#ffe470" r="15"/></g></g></svg>