v -2.499997616 -8.699998856 6.570000172
vn 0.0007804028573 0.9577882886 0.2874734402
v 142.5 -10.19999695 6.570000172
vn 0.000765965844 -0.958186686 0.2861427367
v 142.5 -8.699998856 6.570000172
vn -0.0008124724263 0.9971472621 0.07547603548
v 143.8370972 -10.0830183 6.570000172
vn 0.1433616728 -0.9791736007 0.1437586397
v 143.7095642 -8.580868721 6.570000172
vn -0.2244480401 0.9621949792 0.1542853117
v 145.1335602 -9.735634804 6.570000172
vn 0.3112270236 -0.939437747 0.1435076594
v 144.8726349 -8.228055 6.570000172
vn -0.407828927 0.899872303 0.1546136886
v 146.3500061 -9.168395996 6.570000172
vn 0.4696424305 -0.8711426258 0.1433406174
v 145.9445343 -7.655112743 6.570000172
vn -0.5755299926 0.8029937744 0.1548103094
v 147.4494629 -8.398543358 6.570000172
vn 0.6137884855 -0.7763640881 0.1432568431
v 146.8840637 -6.884061337 6.570000172
vn -0.7211224437 0.6752744913 0.1548765749
v 148.3985443 -7.449464321 6.570000172
vn 0.7392759323 -0.6579883099 0.14325656
v 147.6551056 -5.944532871 6.570000172
vn -0.8390115499 0.521625638 0.1548105776
v 149.168396 -6.350002289 6.570000172
vn 0.8422945738 -0.5196087956 0.1433404982
v 148.2280579 -4.872638226 6.570000172
vn -0.9246838093 0.3479292393 0.1546128094
v 149.7356262 -5.133556366 6.570000172
vn 0.9197044373 -0.3654441833 0.1435070634
v 148.5808716 -3.709559917 6.570000172
vn -0.9748453498 0.1608500034 0.1542848051
v 150.0830231 -3.837093353 6.570000172
vn 0.9691541195 -0.2001842558 0.1437586546
v 148.6999969 -2.499997616 6.570000172
vn -0.9887343645 0.0008055790095 0.1496784836
v 150.1999969 -2.499997616 6.570000172
vn 0.9890352488 -0.0007905807579 0.147677511
v 148.6999969 142.5 6.570000172
vn -0.9889256358 -0.0008057347732 0.1484095603
v 150.1999969 142.5 6.570000172
vn 0.9889360666 0.0007905014209 0.148340404
v 150.0830231 143.8370972 6.570000172
vn 0.9791736603 0.1433609724 0.1437587291
v -3.709559917 -8.580868721 6.570000172
vn 0.1608535349 0.9748447537 0.1542849988
v -3.837093353 -10.0830183 6.570000172
vn -0.2001808733 -0.9691548347 0.1437586695
v -2.499997616 -10.19999695 6.570000172
vn -0.0007971518789 -0.9971989989 0.07478992641
v -5.133556366 -9.735634804 6.570000172
vn -0.3654447794 -0.9197041392 0.1435076743
v -4.872638226 -8.228055 6.570000172
vn 0.3479275107 0.9246843457 0.1546134055
v -6.350002289 -9.168395996 6.570000172
vn -0.519610703 -0.8422935009 0.1433402747
v -5.944532871 -7.655112743 6.570000172
vn 0.5216229558 0.8390132189 0.1548105478
v -7.449464321 -8.398543358 6.570000172
vn -0.657987535 -0.7392766476 0.1432566047
v -6.884061337 -6.884061337 6.570000172
vn 0.6752764583 0.7211207151 0.1548762321
v -8.398543358 -7.449464321 6.570000172
vn -0.7763652802 -0.6137869954 0.1432565898
v -7.655112743 -5.944532871 6.570000172
vn 0.8029930592 0.5755308867 0.1548105329
v -9.168395996 -6.350002289 6.570000172
vn -0.8711429834 -0.4696418047 0.1433402896
v -8.228055 -4.872638226 6.570000172
vn 0.8998725414 0.4078285396 0.1546134204
v -9.735634804 -5.133556366 6.570000172
vn -0.939437747 -0.311226964 0.1435076743
v -8.580868721 -3.709559917 6.570000172
vn 0.9621950984 0.2244475186 0.1542849839
v -10.0830183 -3.837093353 6.570000172
vn -0.9791734815 -0.1433620751 0.1437586695
v -8.699998856 -2.499997616 6.570000172
vn 0.9889256358 0.0008057734813 0.1484095603
v -10.19999695 -2.499997616 6.570000172
vn -0.9889360666 -0.00079054659 0.148340404
v -10.19999695 142.5 6.570000172
vn -0.9890352488 0.0007906258106 0.147677511
v -8.699998856 142.5 6.570000172
vn 0.9887343645 -0.0008056177176 0.1496784985
v -10.0830183 143.8370972 6.570000172
vn -0.9691548347 0.2001806498 0.143758893
v -8.580868721 143.7095642 6.570000172
vn 0.9748447537 -0.1608534604 0.1542848796
v -9.735634804 145.1335602 6.570000172
vn -0.9197041392 0.36544469 0.1435075849
v -8.228055 144.8726349 6.570000172
vn 0.9246838689 -0.3479285538 0.1546139866
v -9.168395996 146.3500061 6.570000172
vn -0.8422923684 0.5196123123 0.1433408558
v -7.655112743 145.9445343 6.570000172
vn 0.8390136957 -0.5216222405 0.154810369
v -8.398543358 147.4494629 6.570000172
vn -0.739276588 0.6579875946 0.1432565302
v -6.884061337 146.8840637 6.570000172
vn 0.7211203575 -0.6752767563 0.1548762769
v -7.449464321 148.3985443 6.570000172
vn -0.6137869954 0.7763652802 0.1432566792
v -5.944532871 147.6551056 6.570000172
vn 0.5755298734 -0.8029937148 0.1548109949
v -6.350002289 149.168396 6.570000172
vn -0.4696388543 0.8711445332 0.1433405876
v -4.872638226 148.2280579 6.570000172
vn 0.4078331292 -0.8998705745 0.1546125859
v -5.133556366 149.7356262 6.570000172
vn -0.3112301528 0.9394368529 0.1435068697
v -3.709559917 148.5808716 6.570000172
vn 0.224445045 -0.9621957541 0.1542847902
v -3.837093353 150.0830231 6.570000172
vn -0.1433613896 0.9791736007 0.1437587589
v -2.499997616 148.6999969 6.570000172
vn 0.0008124334272 -0.9971472621 0.07547603548
v -2.499997616 150.1999969 6.570000172
vn -0.0007659221883 0.958186686 0.2861427367
v 142.5 148.6999969 6.570000172
vn -0.0007803653716 -0.9577882886 0.2874734402
v 142.5 150.1999969 6.570000172
vn 0.0007971063606 0.9971989989 0.07478992641
v 143.8370972 150.0830231 6.570000172
vn 0.2001840472 0.9691541195 0.1437588632
v 143.7095642 148.5808716 6.570000172
vn -0.1608499289 -0.9748454094 0.1542846859
v 145.1335602 149.7356262 6.570000172
vn 0.3654441237 0.9197044969 0.143506974
v 144.8726349 148.2280579 6.570000172
vn -0.3479302824 -0.9246832728 0.1546134055
v 146.3500061 149.168396 6.570000172
vn 0.5196104646 0.8422935009 0.1433410794
v 145.9445343 147.6551056 6.570000172
vn -0.5216249824 -0.8390119672 0.1548103988
v 147.4494629 148.3985443 6.570000172
vn 0.6579883695 0.7392759323 0.1432564855
v 146.8840637 146.8840637 6.570000172
vn -0.6752747893 -0.7211221457 0.1548766196
v 148.3985443 147.4494629 6.570000172
vn 0.7763640881 0.6137884855 0.1432569325
v 147.6551056 145.9445343 6.570000172
vn -0.8029944301 -0.5755289793 0.1548107713
v 149.168396 146.3500061 6.570000172
vn 0.8711441755 0.4696394801 0.1433409005
v 148.2280579 144.8726349 6.570000172
vn -0.8998703957 -0.4078335166 0.1546128541
v 149.7356262 145.1335602 6.570000172
vn 0.9394367933 0.3112302423 0.1435068399
v 148.5808716 143.7095642 6.570000172
vn -0.9621955752 -0.2244455814 0.154285118
v -2.499997616 -8.699998856 -3.430000305
vn 0.0008124724845 0.9971472621 -0.07547603548
v -3.709559917 -8.580868721 -3.430000305
vn 0.2244475186 0.9621950984 -0.1542849839
v -4.872638226 -8.228055 -3.430000305
vn 0.4078285396 0.8998725414 -0.1546134204
v -5.944532871 -7.655112743 -3.430000305
vn 0.5755308867 0.8029930592 -0.1548105329
v -6.884061337 -6.884061337 -3.430000305
vn 0.7211207151 0.6752764583 -0.1548762321
v -7.655112743 -5.944532871 -3.430000305
vn 0.8390132189 0.5216229558 -0.1548105478
v -8.228055 -4.872638226 -3.430000305
vn 0.9246843457 0.3479275107 -0.1546134055
v -8.580868721 -3.709559917 -3.430000305
vn 0.9748447537 0.1608535349 -0.1542849988
v -8.699998856 -2.499997616 -3.430000305
vn 0.9887343645 0.0008056177176 -0.1496784836
v -8.699998856 142.5 -3.430000305
vn 0.9889256358 -0.0008057734813 -0.1484095603
v -8.580868721 143.7095642 -3.430000305
vn 0.9621949792 -0.2244480401 -0.1542853117
v -8.228055 144.8726349 -3.430000305
vn 0.899872303 -0.407828927 -0.1546136886
v -7.655112743 145.9445343 -3.430000305
vn 0.8029937744 -0.5755299926 -0.1548103094
v -6.884061337 146.8840637 -3.430000305
vn 0.6752744913 -0.7211224437 -0.1548765749
v -5.944532871 147.6551056 -3.430000305
vn 0.521625638 -0.8390115499 -0.1548105776
v -4.872638226 148.2280579 -3.430000305
vn 0.3479292393 -0.9246838093 -0.1546128094
v -3.709559917 148.5808716 -3.430000305
vn 0.1608500034 -0.9748453498 -0.1542848051
v -2.499997616 148.6999969 -3.430000305
vn 0.0007803653716 -0.9577882886 -0.2874734402
v 142.5 148.6999969 -3.430000305
vn -0.0008124334272 -0.9971472621 -0.07547603548
v 143.7095642 148.5808716 -3.430000305
vn -0.2244455814 -0.9621955752 -0.154285118
v 144.8726349 148.2280579 -3.430000305
vn -0.4078335166 -0.8998703957 -0.1546128541
v 145.9445343 147.6551056 -3.430000305
vn -0.5755289793 -0.8029944301 -0.1548107713
v 146.8840637 146.8840637 -3.430000305
vn -0.7211221457 -0.6752747893 -0.1548766196
v 147.6551056 145.9445343 -3.430000305
vn -0.8390119672 -0.5216249824 -0.1548103988
v 148.2280579 144.8726349 -3.430000305
vn -0.9246833324 -0.3479302824 -0.1546134055
v 148.5808716 143.7095642 -3.430000305
vn -0.9748454094 -0.1608499289 -0.1542846859
v 148.6999969 142.5 -3.430000305
vn -0.9887343645 -0.0008055790095 -0.1496784985
v 148.6999969 -2.499997616 -3.430000305
vn -0.9889256358 0.0008057348314 -0.1484095603
v 148.5808716 -3.709559917 -3.430000305
vn -0.9621957541 0.224445045 -0.1542847902
v 148.2280579 -4.872638226 -3.430000305
vn -0.8998705745 0.4078331292 -0.1546125859
v 147.6551056 -5.944532871 -3.430000305
vn -0.8029937148 0.5755298734 -0.1548109949
v 146.8840637 -6.884061337 -3.430000305
vn -0.6752767563 0.7211203575 -0.1548762769
v 145.9445343 -7.655112743 -3.430000305
vn -0.5216222405 0.8390136957 -0.154810369
v 144.8726349 -8.228055 -3.430000305
vn -0.3479285538 0.9246838689 -0.1546139866
v 143.7095642 -8.580868721 -3.430000305
vn -0.1608534604 0.9748447537 -0.1542848796
v 142.5 -8.699998856 -3.430000305
vn -0.0007804028573 0.9577882886 -0.2874734402
v -2.499997616 -10.19999695 -3.430000305
vn -0.000765965844 -0.958186686 -0.2861427367
v 142.5 -10.19999695 -3.430000305
vn 0.0007971518789 -0.9971989989 -0.07478992641
v 143.8370972 -10.0830183 -3.430000305
vn 0.2001806498 -0.9691548347 -0.143758893
v 145.1335602 -9.735634804 -3.430000305
vn 0.36544469 -0.9197041392 -0.1435075849
v 146.3500061 -9.168395996 -3.430000305
vn 0.5196123123 -0.8422923684 -0.1433408558
v 147.4494629 -8.398543358 -3.430000305
vn 0.6579875946 -0.739276588 -0.1432565302
v 148.3985443 -7.449464321 -3.430000305
vn 0.7763652802 -0.6137869954 -0.1432566792
v 149.168396 -6.350002289 -3.430000305
vn 0.8711445332 -0.4696388543 -0.1433405876
v 149.7356262 -5.133556366 -3.430000305
vn 0.9394368529 -0.3112301528 -0.1435068697
v 150.0830231 -3.837093353 -3.430000305
vn 0.9791736007 -0.1433613896 -0.1437587589
v 150.1999969 -2.499997616 -3.430000305
vn 0.9889360666 -0.0007905014791 -0.148340404
v 150.1999969 142.5 -3.430000305
vn 0.9890352488 0.0007905806997 -0.147677511
v 150.0830231 143.8370972 -3.430000305
vn 0.9691541195 0.2001840472 -0.1437588632
v 149.7356262 145.1335602 -3.430000305
vn 0.9197044969 0.3654441237 -0.143506974
v 149.168396 146.3500061 -3.430000305
vn 0.8422935009 0.5196104646 -0.1433410794
v 148.3985443 147.4494629 -3.430000305
vn 0.7392759323 0.6579883695 -0.1432564855
v 147.4494629 148.3985443 -3.430000305
vn 0.6137884855 0.7763640881 -0.1432569325
v 146.3500061 149.168396 -3.430000305
vn 0.4696394801 0.8711441755 -0.1433409005
v 145.1335602 149.7356262 -3.430000305
vn 0.3112302423 0.9394367933 -0.1435068399
v 143.8370972 150.0830231 -3.430000305
vn 0.1433609724 0.9791736603 -0.1437587291
v 142.5 150.1999969 -3.430000305
vn 0.0007659221301 0.958186686 -0.2861427367
v -2.499997616 150.1999969 -3.430000305
vn -0.0007971064188 0.9971989989 -0.07478992641
v -3.837093353 150.0830231 -3.430000305
vn -0.2001842558 0.9691541195 -0.1437586546
v -5.133556366 149.7356262 -3.430000305
vn -0.3654441833 0.9197044373 -0.1435070634
v -6.350002289 149.168396 -3.430000305
vn -0.5196087956 0.8422945738 -0.1433404982
v -7.449464321 148.3985443 -3.430000305
vn -0.6579883099 0.7392759323 -0.14325656
v -8.398543358 147.4494629 -3.430000305
vn -0.7763640881 0.6137884855 -0.1432568431
v -9.168395996 146.3500061 -3.430000305
vn -0.8711426258 0.4696424305 -0.1433406174
v -9.735634804 145.1335602 -3.430000305
vn -0.939437747 0.3112270236 -0.1435076594
v -10.0830183 143.8370972 -3.430000305
vn -0.9791736007 0.1433616728 -0.1437586397
v -10.19999695 142.5 -3.430000305
vn -0.9889360666 0.0007905465318 -0.148340404
v -10.19999695 -2.499997616 -3.430000305
vn -0.9890352488 -0.0007906258688 -0.147677511
v -10.0830183 -3.837093353 -3.430000305
vn -0.9691548347 -0.2001808733 -0.1437586695
v -9.735634804 -5.133556366 -3.430000305
vn -0.9197041392 -0.3654447794 -0.1435076743
v -9.168395996 -6.350002289 -3.430000305
vn -0.8422935009 -0.519610703 -0.1433402747
v -8.398543358 -7.449464321 -3.430000305
vn -0.7392766476 -0.657987535 -0.1432566047
v -7.449464321 -8.398543358 -3.430000305
vn -0.6137869954 -0.7763652802 -0.1432565898
v -6.350002289 -9.168395996 -3.430000305
vn -0.4696418047 -0.8711429834 -0.1433402896
v -5.133556366 -9.735634804 -3.430000305
vn -0.311226964 -0.939437747 -0.1435076743
v -3.837093353 -10.0830183 -3.430000305
vn -0.1433620751 -0.9791734815 -0.1437586695
# mm_gid 0
g mmGroup0
f 1//1 2//2 3//3 
f 3//3 2//2 4//4 
f 3//3 4//4 5//5 
f 5//5 4//4 6//6 
f 5//5 6//6 7//7 
f 7//7 6//6 8//8 
f 7//7 8//8 9//9 
f 9//9 8//8 10//10 
f 9//9 10//10 11//11 
f 11//11 10//10 12//12 
f 11//11 12//12 13//13 
f 13//13 12//12 14//14 
f 13//13 14//14 15//15 
f 15//15 14//14 16//16 
f 15//15 16//16 17//17 
f 17//17 16//16 18//18 
f 17//17 18//18 19//19 
f 19//19 18//18 20//20 
f 19//19 20//20 21//21 
f 21//21 20//20 22//22 
f 21//21 22//22 23//23 
f 24//24 25//25 1//1 
f 1//1 25//25 26//26 
f 1//1 26//26 2//2 
f 25//25 24//24 27//27 
f 27//27 24//24 28//28 
f 27//27 28//28 29//29 
f 29//29 28//28 30//30 
f 29//29 30//30 31//31 
f 31//31 30//30 32//32 
f 31//31 32//32 33//33 
f 33//33 32//32 34//34 
f 33//33 34//34 35//35 
f 35//35 34//34 36//36 
f 35//35 36//36 37//37 
f 37//37 36//36 38//38 
f 37//37 38//38 39//39 
f 39//39 38//38 40//40 
f 39//39 40//40 41//41 
f 41//41 40//40 42//42 
f 42//42 40//40 43//43 
f 42//42 43//43 44//44 
f 44//44 43//43 45//45 
f 44//44 45//45 46//46 
f 46//46 45//45 47//47 
f 46//46 47//47 48//48 
f 48//48 47//47 49//49 
f 48//48 49//49 50//50 
f 50//50 49//49 51//51 
f 50//50 51//51 52//52 
f 52//52 51//51 53//53 
f 52//52 53//53 54//54 
f 54//54 53//53 55//55 
f 54//54 55//55 56//56 
f 56//56 55//55 57//57 
f 56//56 57//57 58//58 
f 58//58 57//57 59//59 
f 58//58 59//59 60//60 
f 60//60 59//59 61//61 
f 60//60 61//61 62//62 
f 62//62 61//61 63//63 
f 63//63 61//61 64//64 
f 63//63 64//64 65//65 
f 65//65 64//64 66//66 
f 65//65 66//66 67//67 
f 67//67 66//66 68//68 
f 67//67 68//68 69//69 
f 69//69 68//68 70//70 
f 69//69 70//70 71//71 
f 71//71 70//70 72//72 
f 71//71 72//72 73//73 
f 73//73 72//72 74//74 
f 73//73 74//74 75//75 
f 75//75 74//74 76//76 
f 75//75 76//76 23//23 
f 23//23 76//76 21//21 
f 1//1 77//77 24//24 
f 24//24 77//77 78//78 
f 24//24 78//78 28//28 
f 28//28 78//78 79//79 
f 28//28 79//79 30//30 
f 30//30 79//79 80//80 
f 30//30 80//80 32//32 
f 32//32 80//80 81//81 
f 32//32 81//81 34//34 
f 34//34 81//81 82//82 
f 34//34 82//82 36//36 
f 36//36 82//82 83//83 
f 36//36 83//83 38//38 
f 38//38 83//83 84//84 
f 38//38 84//84 40//40 
f 40//40 84//84 85//85 
f 85//85 86//86 40//40 
f 40//40 86//86 43//43 
f 43//43 86//86 45//45 
f 45//45 86//86 87//87 
f 45//45 87//87 47//47 
f 47//47 87//87 88//88 
f 47//47 88//88 49//49 
f 49//49 88//88 89//89 
f 49//49 89//89 51//51 
f 51//51 89//89 90//90 
f 51//51 90//90 53//53 
f 53//53 90//90 91//91 
f 53//53 91//91 55//55 
f 55//55 91//91 92//92 
f 55//55 92//92 57//57 
f 57//57 92//92 93//93 
f 57//57 93//93 59//59 
f 59//59 93//93 94//94 
f 94//94 95//95 59//59 
f 59//59 95//95 61//61 
f 61//61 95//95 64//64 
f 64//64 95//95 96//96 
f 64//64 96//96 66//66 
f 66//66 96//96 97//97 
f 66//66 97//97 68//68 
f 68//68 97//97 98//98 
f 68//68 98//98 70//70 
f 70//70 98//98 99//99 
f 70//70 99//99 72//72 
f 72//72 99//99 100//100 
f 72//72 100//100 74//74 
f 74//74 100//100 101//101 
f 74//74 101//101 76//76 
f 76//76 101//101 102//102 
f 76//76 102//102 21//21 
f 21//21 102//102 103//103 
f 103//103 104//104 21//21 
f 21//21 104//104 19//19 
f 19//19 104//104 17//17 
f 17//17 104//104 105//105 
f 17//17 105//105 15//15 
f 15//15 105//105 106//106 
f 15//15 106//106 13//13 
f 13//13 106//106 107//107 
f 13//13 107//107 11//11 
f 11//11 107//107 108//108 
f 11//11 108//108 9//9 
f 9//9 108//108 109//109 
f 9//9 109//109 7//7 
f 7//7 109//109 110//110 
f 7//7 110//110 5//5 
f 5//5 110//110 111//111 
f 5//5 111//111 3//3 
f 3//3 111//111 112//112 
f 112//112 77//77 3//3 
f 3//3 77//77 1//1 
f 113//113 114//114 26//26 
f 26//26 114//114 2//2 
f 2//2 114//114 4//4 
f 4//4 114//114 115//115 
f 4//4 115//115 6//6 
f 6//6 115//115 116//116 
f 6//6 116//116 8//8 
f 8//8 116//116 117//117 
f 8//8 117//117 10//10 
f 10//10 117//117 118//118 
f 10//10 118//118 12//12 
f 12//12 118//118 119//119 
f 12//12 119//119 14//14 
f 14//14 119//119 120//120 
f 14//14 120//120 16//16 
f 16//16 120//120 121//121 
f 16//16 121//121 18//18 
f 18//18 121//121 122//122 
f 18//18 122//122 20//20 
f 20//20 122//122 123//123 
f 123//123 124//124 20//20 
f 20//20 124//124 22//22 
f 22//22 124//124 23//23 
f 23//23 124//124 125//125 
f 23//23 125//125 75//75 
f 75//75 125//125 126//126 
f 75//75 126//126 73//73 
f 73//73 126//126 127//127 
f 73//73 127//127 71//71 
f 71//71 127//127 128//128 
f 71//71 128//128 69//69 
f 69//69 128//128 129//129 
f 69//69 129//129 67//67 
f 67//67 129//129 130//130 
f 67//67 130//130 65//65 
f 65//65 130//130 131//131 
f 65//65 131//131 63//63 
f 63//63 131//131 132//132 
f 63//63 132//132 62//62 
f 62//62 132//132 133//133 
f 133//133 134//134 62//62 
f 62//62 134//134 60//60 
f 60//60 134//134 58//58 
f 58//58 134//134 135//135 
f 58//58 135//135 56//56 
f 56//56 135//135 136//136 
f 56//56 136//136 54//54 
f 54//54 136//136 137//137 
f 54//54 137//137 52//52 
f 52//52 137//137 138//138 
f 52//52 138//138 50//50 
f 50//50 138//138 139//139 
f 50//50 139//139 48//48 
f 48//48 139//139 140//140 
f 48//48 140//140 46//46 
f 46//46 140//140 141//141 
f 46//46 141//141 44//44 
f 44//44 141//141 142//142 
f 44//44 142//142 42//42 
f 42//42 142//142 143//143 
f 143//143 144//144 42//42 
f 42//42 144//144 41//41 
f 41//41 144//144 39//39 
f 39//39 144//144 145//145 
f 39//39 145//145 37//37 
f 37//37 145//145 146//146 
f 37//37 146//146 35//35 
f 35//35 146//146 147//147 
f 35//35 147//147 33//33 
f 33//33 147//147 148//148 
f 33//33 148//148 31//31 
f 31//31 148//148 149//149 
f 31//31 149//149 29//29 
f 29//29 149//149 150//150 
f 29//29 150//150 27//27 
f 27//27 150//150 151//151 
f 27//27 151//151 25//25 
f 25//25 151//151 152//152 
f 25//25 152//152 26//26 
f 26//26 152//152 113//113 
f 112//112 113//113 77//77 
f 77//77 113//113 152//152 
f 77//77 152//152 78//78 
f 78//78 152//152 151//151 
f 78//78 151//151 79//79 
f 79//79 151//151 150//150 
f 79//79 150//150 80//80 
f 80//80 150//150 149//149 
f 80//80 149//149 81//81 
f 81//81 149//149 148//148 
f 81//81 148//148 82//82 
f 82//82 148//148 147//147 
f 82//82 147//147 83//83 
f 83//83 147//147 146//146 
f 83//83 146//146 84//84 
f 84//84 146//146 145//145 
f 84//84 145//145 85//85 
f 85//85 145//145 144//144 
f 85//85 144//144 86//86 
f 86//86 144//144 143//143 
f 86//86 143//143 142//142 
f 111//111 115//115 112//112 
f 112//112 115//115 114//114 
f 112//112 114//114 113//113 
f 115//115 111//111 116//116 
f 116//116 111//111 110//110 
f 116//116 110//110 117//117 
f 117//117 110//110 109//109 
f 117//117 109//109 118//118 
f 118//118 109//109 108//108 
f 118//118 108//108 119//119 
f 119//119 108//108 107//107 
f 119//119 107//107 120//120 
f 120//120 107//107 106//106 
f 120//120 106//106 121//121 
f 121//121 106//106 105//105 
f 121//121 105//105 122//122 
f 122//122 105//105 104//104 
f 122//122 104//104 123//123 
f 123//123 104//104 124//124 
f 124//124 104//104 103//103 
f 124//124 103//103 125//125 
f 125//125 103//103 102//102 
f 125//125 102//102 126//126 
f 126//126 102//102 101//101 
f 126//126 101//101 127//127 
f 127//127 101//101 100//100 
f 127//127 100//100 128//128 
f 128//128 100//100 99//99 
f 128//128 99//99 129//129 
f 129//129 99//99 98//98 
f 129//129 98//98 130//130 
f 130//130 98//98 97//97 
f 130//130 97//97 131//131 
f 131//131 97//97 96//96 
f 131//131 96//96 132//132 
f 132//132 96//96 95//95 
f 132//132 95//95 133//133 
f 133//133 95//95 94//94 
f 133//133 94//94 134//134 
f 134//134 94//94 135//135 
f 135//135 94//94 93//93 
f 135//135 93//93 136//136 
f 136//136 93//93 92//92 
f 136//136 92//92 137//137 
f 137//137 92//92 91//91 
f 137//137 91//91 138//138 
f 138//138 91//91 90//90 
f 138//138 90//90 139//139 
f 139//139 90//90 89//89 
f 139//139 89//89 140//140 
f 140//140 89//89 88//88 
f 140//140 88//88 141//141 
f 141//141 88//88 87//87 
f 141//141 87//87 142//142 
f 142//142 87//87 86//86 
