<svg xmlns:dc="http://purl.org/dc/elements/1.1/" xmlns:cc="http://creativecommons.org/ns#" xmlns:rdf="http://www.w3.org/1999/02/22-rdf-syntax-ns#" xmlns:svg="http://www.w3.org/2000/svg" xmlns="http://www.w3.org/2000/svg" id="el_C9XpSVSwE" version="1.1"  width="300px" height="300px" viewBox="0 0 210 297"><style>@-webkit-keyframes el_bfQ_149fs8_OxEZpokrs_Animation{0%{-webkit-transform: scale(1, 1);transform: scale(1, 1);}50%{-webkit-transform: scale(0.5, 0.5);transform: scale(0.5, 0.5);}100%{-webkit-transform: scale(1, 1);transform: scale(1, 1);}}@keyframes el_bfQ_149fs8_OxEZpokrs_Animation{0%{-webkit-transform: scale(1, 1);transform: scale(1, 1);}50%{-webkit-transform: scale(0.5, 0.5);transform: scale(0.5, 0.5);}100%{-webkit-transform: scale(1, 1);transform: scale(1, 1);}}@-webkit-keyframes el_bfQ_149fs8_0kRVLFWeC_Animation{0%{-webkit-transform: rotate(0deg);transform: rotate(0deg);}100%{-webkit-transform: rotate(360deg);transform: rotate(360deg);}}@keyframes el_bfQ_149fs8_0kRVLFWeC_Animation{0%{-webkit-transform: rotate(0deg);transform: rotate(0deg);}100%{-webkit-transform: rotate(360deg);transform: rotate(360deg);}}#el_C9XpSVSwE *{-webkit-animation-duration: 4s;animation-duration: 4s;-webkit-animation-iteration-count: infinite;animation-iteration-count: infinite;-webkit-animation-timing-function: cubic-bezier(0, 0, 1, 1);animation-timing-function: cubic-bezier(0, 0, 1, 1);}#el_bfQ_149fs8{-webkit-transform: matrix(-0.70710678,0.70710678,0.70710678,0.70710678,0,0);transform: matrix(-0.70710678,0.70710678,0.70710678,0.70710678,0,0);stroke-width: 0.26458332;}#el_2gJWq0PWKl{fill: none;stroke: #000000;stroke-width: 0.26458332px;stroke-linecap: butt;stroke-linejoin: miter;stroke-opacity: 1;}#el_kwyTjfDPyn{fill: none;stroke: #000000;stroke-width: 0.26458332px;stroke-linecap: butt;stroke-linejoin: miter;stroke-opacity: 1;}#el_PpyPCT0bQO{fill: #17b6e2;stroke-width: 0.26458332;fill-opacity: 1;}#el_IpQ-YGKR6y{fill: #52f800;stroke-width: 0.26458332;fill-opacity: 1;}#el_Vy6e7M3VAQ{fill: #52f800;stroke-width: 0.26458332;fill-opacity: 1;}#el_dmXVvI4o0_{fill: #17b6e2;stroke-width: 0.26458332;fill-opacity: 1;}#el_XAcfFDEM1J{font-style: normal;font-variant: normal;font-weight: normal;font-stretch: normal;font-size: 71.96666718px;line-height: 1.25;font-family: 'Source Sans Pro';-inkscape-font-specification: 'Source Sans Pro';letter-spacing: 0px;word-spacing: 0px;fill: #000000;fill-opacity: 1;stroke: none;stroke-width: 0.26458332;}#el_IurpoordtP{font-style: normal;font-variant: normal;font-weight: normal;font-stretch: normal;font-size: 71.96666718px;font-family: 'Source Sans Pro';-inkscape-font-specification: 'Source Sans Pro';stroke-width: 0.26458332;}#el_Uz9zlgKGx3{font-style: normal;font-variant: normal;font-weight: normal;font-stretch: normal;font-size: 71.96666718px;line-height: 1.25;font-family: 'Source Sans Pro';-inkscape-font-specification: 'Source Sans Pro';letter-spacing: 0px;word-spacing: 0px;fill: #000000;fill-opacity: 1;stroke: none;stroke-width: 0.26458332;}#el_qvDk5-vLug{font-style: normal;font-variant: normal;font-weight: normal;font-stretch: normal;font-size: 71.96666718px;font-family: 'Source Sans Pro';-inkscape-font-specification: 'Source Sans Pro';stroke-width: 0.26458332;}#el_RJ01lSEzGK{font-style: normal;font-variant: normal;font-weight: normal;font-stretch: normal;font-size: 71.96666718px;line-height: 1.25;font-family: 'Source Sans Pro';-inkscape-font-specification: 'Source Sans Pro';letter-spacing: 0px;word-spacing: 0px;fill: #000000;fill-opacity: 1;stroke: none;stroke-width: 0.26458332;}#el_QJJu8-MLw5{font-style: normal;font-variant: normal;font-weight: normal;font-stretch: normal;font-size: 71.96666718px;font-family: 'Source Sans Pro';-inkscape-font-specification: 'Source Sans Pro';stroke-width: 0.26458332;}#el_QA-8Z3whmp{font-style: normal;font-variant: normal;font-weight: normal;font-stretch: normal;font-size: 71.96666718px;line-height: 1.25;font-family: 'Source Sans Pro';-inkscape-font-specification: 'Source Sans Pro';letter-spacing: 0px;word-spacing: 0px;fill: #000000;fill-opacity: 1;stroke: none;stroke-width: 0.26458332;}#el_kGqttVkhpgu{font-style: normal;font-variant: normal;font-weight: normal;font-stretch: normal;font-size: 71.96666718px;font-family: 'Source Sans Pro';-inkscape-font-specification: 'Source Sans Pro';stroke-width: 0.26458332;}#el_AJSNGnJr4BZ{font-style: normal;font-variant: normal;font-weight: normal;font-stretch: normal;font-size: 71.96666718px;line-height: 1.25;font-family: 'Source Sans Pro';-inkscape-font-specification: 'Source Sans Pro';letter-spacing: 0px;word-spacing: 0px;fill: #000000;fill-opacity: 1;stroke: none;stroke-width: 0.26458332;}#el_BNf6AZ2FcJ9{font-style: normal;font-variant: normal;font-weight: normal;font-stretch: normal;font-size: 71.96666718px;font-family: 'Source Sans Pro';-inkscape-font-specification: 'Source Sans Pro';stroke-width: 0.26458332;}#el_bBerNkAextZ{-webkit-transform: translate(0px, 0px) scale(0.26458333, NaN);transform: translate(0px, 0px) scale(0.26458333, NaN);opacity: 1;fill: #97ff95;fill-opacity: 0;stroke-width: 1.41421354;paint-order: stroke fill markers;-webkit-filter: url(#filter4941);filter: url(#filter4941);}#el_NFSyN7xVmu5{-webkit-transform: translate(0px, 0px) scale(0.26458333, NaN);transform: translate(0px, 0px) scale(0.26458333, NaN);opacity: 1;fill: #97ff95;fill-opacity: 0;stroke-width: 1.41421354;paint-order: stroke fill markers;}#el_2Er971XNuCR{-webkit-transform: translate(0px, 0px) scale(0.26458333, NaN);transform: translate(0px, 0px) scale(0.26458333, NaN);opacity: 1;fill: #97ff95;fill-opacity: 0;stroke-width: 1.41421354;paint-order: stroke fill markers;}#el_Vji767xI128{-webkit-transform: translate(0px, 0px) scale(0.26458333, NaN);transform: translate(0px, 0px) scale(0.26458333, NaN);opacity: 1;fill: #97ff95;fill-opacity: 0;stroke-width: 1.41421354;paint-order: stroke fill markers;}#el_4C96u5CXI6u{-webkit-transform: translate(0px, 0px) scale(0.26458333, NaN);transform: translate(0px, 0px) scale(0.26458333, NaN);opacity: 1;fill: #008000;fill-opacity: 0;stroke-width: 1.41421354;paint-order: stroke fill markers;}#el_BI9S8vLy0wd{-webkit-transform: translate(0px, 0px) scale(0.26458333, NaN);transform: translate(0px, 0px) scale(0.26458333, NaN);opacity: 1;fill: #008000;fill-opacity: 0;stroke-width: 1.41421354;paint-order: stroke fill markers;}#el_bfQ_149fs8_0kRVLFWeC{-webkit-animation-name: el_bfQ_149fs8_0kRVLFWeC_Animation;animation-name: el_bfQ_149fs8_0kRVLFWeC_Animation;-webkit-transform-origin: 50% 50%;transform-origin: 50% 50%;transform-box: fill-box;}#el_bfQ_149fs8_OxEZpokrs{-webkit-animation-name: el_bfQ_149fs8_OxEZpokrs_Animation;animation-name: el_bfQ_149fs8_OxEZpokrs_Animation;-webkit-transform-origin: 50% 50%;transform-origin: 50% 50%;transform-box: fill-box;}</style>
  <defs id="defs2">
    <filter height="3.4023884" y="-1.2011942" width="3.3976163" x="-1.1988082" id="filter4941" style="color-interpolation-filters:sRGB">
      <feGaussianBlur id="feGaussianBlur4943" stdDeviation="132.01307"/>
    </filter>
  </defs>
  <metadata id="metadata5">
    <rdf:rdf>
      <cc:work rdf:about="">
        <dc:format>image/svg+xml</dc:format>
        <dc:type rdf:resource="http://purl.org/dc/dcmitype/StillImage"/>
        <dc:title/>
      </cc:work>
    </rdf:rdf>
  </metadata>
  <g id="el_Pfzv6tvrgp">
    <g id="el_bfQ_149fs8_0kRVLFWeC" data-animator-group="true" data-animator-type="1"><g id="el_bfQ_149fs8_OxEZpokrs" data-animator-group="true" data-animator-type="2"><rect rx="15" y="103.19091" x="-45.301514" height="150" width="150" id="el_bfQ_149fs8"/></g></g>
    <path id="el_2gJWq0PWKl" d="m 105.07245,121.44961 c 0,0 10.67286,50.23607 10.67284,50.23597 -2e-5,-1.1e-4 -10.67284,-50.23597 -10.67284,-50.23597 z"/>
    <path id="el_kwyTjfDPyn" d="m 119.14976,169.75358 c 11.68509,-9.66066 35.97506,-11.3168 26.22243,-23.3696 -9.75262,-12.05281 -53.548667,-34.50289 -65.233667,-24.84214 -11.685,9.66075 8.740603,51.43203 18.493411,63.48491 9.752806,12.05287 8.832736,-5.61251 20.517826,-15.27317 z"/>
    <rect ry="15" rx="15.000004" y="74.5" x="32.5" height="70" width="70.000015" id="el_PpyPCT0bQO"/>
    <rect ry="15" rx="15" y="74.5" x="107.5" height="70" width="70" id="el_IpQ-YGKR6y"/>
    <rect ry="15" rx="15" y="149.5" x="32.5" height="70" width="70" id="el_Vy6e7M3VAQ"/>
    <rect ry="15" rx="15" y="149.5" x="107.5" height="70" width="70" id="el_dmXVvI4o0_"/>
    <text id="el_XAcfFDEM1J" y="132.6364" x="50.642338" xml:space="preserve"><tspan y="132.6364" x="50.642338" id="el_IurpoordtP">J</tspan></text>
    <text id="el_Uz9zlgKGx3" y="132.6364" x="118.76276" xml:space="preserve"><tspan y="132.6364" x="118.76276" id="el_qvDk5-vLug">U</tspan></text>
    <text id="el_RJ01lSEzGK" y="219.14539" x="49.849922" xml:space="preserve"><tspan y="282.11621" x="49.849922" id="el_QJJu8-MLw5"/></text>
    <text id="el_QA-8Z3whmp" y="208.38501" x="43.798889" xml:space="preserve"><tspan y="208.38501" x="43.798889" id="el_kGqttVkhpgu">H</tspan></text>
    <text id="el_AJSNGnJr4BZ" y="208.1364" x="118.7389" xml:space="preserve"><tspan y="208.1364" x="118.7389" id="el_BNf6AZ2FcJ9">U</tspan></text>
    <path id="el_bBerNkAextZ" d="m 171.31241,545.01328 c -23.35343,-3.55228 -42.70215,-22.45809 -47.04892,-45.97194 -1.9624,-10.61558 -2.08821,-157.79472 -0.14504,-169.6612 3.00724,-18.36438 14.98427,-34.06729 32.20662,-42.22562 l 9.53287,-4.51577 84.79765,-0.40675 c 54.02238,-0.25912 87.24474,0.11806 91.54027,1.03929 22.12448,4.74485 39.26397,22.31392 43.53122,44.62229 1.14012,5.9603 1.49027,33.10395 1.17666,91.21678 -0.49712,92.12535 -0.0259,87.52825 -10.54736,102.89611 -6.12452,8.94564 -15.90482,16.40907 -26.96919,20.58042 -8.01416,3.02141 -9.68626,3.08318 -89.48405,3.30585 -44.72451,0.12473 -84.59033,-0.27096 -88.59073,-0.87946 z m 101.26542,-45.6406 c 10.10091,-5.08616 17.19886,-13.0604 21.9891,-24.70378 2.62442,-6.37907 2.80912,-10.93504 3.21245,-79.24662 l 0.42794,-72.47844 h -11.28928 -11.28927 l -0.4382,69.65002 c -0.39906,63.43121 -0.66518,70.15337 -2.98056,75.28756 -5.1855,11.49855 -12.67968,16.30436 -25.34292,16.25171 -4.14904,-0.0173 -9.98496,-1.17644 -13.1269,-2.60739 -5.40636,-2.46224 -15.19513,-11.83424 -16.52381,-15.82028 -0.44291,-1.32871 -3.20847,-0.0798 -9.32773,4.21273 l -8.69817,6.10141 4.18668,6.08514 c 14.815,21.53285 45.51627,29.19387 69.20067,17.26794 z"/>
    <path id="el_NFSyN7xVmu5" d="m 171.31241,545.01328 c -23.35343,-3.55228 -42.70215,-22.45809 -47.04892,-45.97194 -1.9624,-10.61558 -2.08821,-157.79472 -0.14504,-169.6612 3.00724,-18.36438 14.98427,-34.06729 32.20662,-42.22562 l 9.53287,-4.51577 84.79765,-0.40675 c 54.02238,-0.25912 87.24474,0.11806 91.54027,1.03929 22.12448,4.74485 39.26397,22.31392 43.53122,44.62229 1.14012,5.9603 1.49027,33.10395 1.17666,91.21678 -0.49712,92.12535 -0.0259,87.52825 -10.54736,102.89611 -6.12452,8.94564 -15.90482,16.40907 -26.96919,20.58042 -8.01416,3.02141 -9.68626,3.08318 -89.48405,3.30585 -44.72451,0.12473 -84.59033,-0.27096 -88.59073,-0.87946 z m 101.26542,-45.6406 c 10.10091,-5.08616 17.19886,-13.0604 21.9891,-24.70378 2.62442,-6.37907 2.80912,-10.93504 3.21245,-79.24662 l 0.42794,-72.47844 h -11.28928 -11.28927 l -0.4382,69.65002 c -0.39906,63.43121 -0.66518,70.15337 -2.98056,75.28756 -5.1855,11.49855 -12.67968,16.30436 -25.34292,16.25171 -4.14904,-0.0173 -9.98496,-1.17644 -13.1269,-2.60739 -5.40636,-2.46224 -15.19513,-11.83424 -16.52381,-15.82028 -0.44291,-1.32871 -3.20847,-0.0798 -9.32773,4.21273 l -8.69817,6.10141 4.18668,6.08514 c 14.815,21.53285 45.51627,29.19387 69.20067,17.26794 z"/>
    <path id="el_2Er971XNuCR" d="m 171.31241,545.01328 c -23.35343,-3.55228 -42.70215,-22.45809 -47.04892,-45.97194 -1.9624,-10.61558 -2.08821,-157.79472 -0.14504,-169.6612 3.00724,-18.36438 14.98427,-34.06729 32.20662,-42.22562 l 9.53287,-4.51577 84.79765,-0.40675 c 54.02238,-0.25912 87.24474,0.11806 91.54027,1.03929 22.12448,4.74485 39.26397,22.31392 43.53122,44.62229 1.14012,5.9603 1.49027,33.10395 1.17666,91.21678 -0.49712,92.12535 -0.0259,87.52825 -10.54736,102.89611 -6.12452,8.94564 -15.90482,16.40907 -26.96919,20.58042 -8.01416,3.02141 -9.68626,3.08318 -89.48405,3.30585 -44.72451,0.12473 -84.59033,-0.27096 -88.59073,-0.87946 z m 101.26542,-45.6406 c 10.10091,-5.08616 17.19886,-13.0604 21.9891,-24.70378 2.62442,-6.37907 2.80912,-10.93504 3.21245,-79.24662 l 0.42794,-72.47844 h -11.28928 -11.28927 l -0.4382,69.65002 c -0.39906,63.43121 -0.66518,70.15337 -2.98056,75.28756 -5.1855,11.49855 -12.67968,16.30436 -25.34292,16.25171 -4.14904,-0.0173 -9.98496,-1.17644 -13.1269,-2.60739 -5.40636,-2.46224 -15.19513,-11.83424 -16.52381,-15.82028 -0.44291,-1.32871 -3.20847,-0.0798 -9.32773,4.21273 l -8.69817,6.10141 4.18668,6.08514 c 14.815,21.53285 45.51627,29.19387 69.20067,17.26794 z"/>
    <path id="el_Vji767xI128" d="m 171.31241,545.01328 c -23.35343,-3.55228 -42.70215,-22.45809 -47.04892,-45.97194 -1.9624,-10.61558 -2.08821,-157.79472 -0.14504,-169.6612 3.00724,-18.36438 14.98427,-34.06729 32.20662,-42.22562 l 9.53287,-4.51577 84.79765,-0.40675 c 54.02238,-0.25912 87.24474,0.11806 91.54027,1.03929 22.12448,4.74485 39.26397,22.31392 43.53122,44.62229 1.14012,5.9603 1.49027,33.10395 1.17666,91.21678 -0.49712,92.12535 -0.0259,87.52825 -10.54736,102.89611 -6.12452,8.94564 -15.90482,16.40907 -26.96919,20.58042 -8.01416,3.02141 -9.68626,3.08318 -89.48405,3.30585 -44.72451,0.12473 -84.59033,-0.27096 -88.59073,-0.87946 z m 101.26542,-45.6406 c 10.10091,-5.08616 17.19886,-13.0604 21.9891,-24.70378 2.62442,-6.37907 2.80912,-10.93504 3.21245,-79.24662 l 0.42794,-72.47844 h -11.28928 -11.28927 l -0.4382,69.65002 c -0.39906,63.43121 -0.66518,70.15337 -2.98056,75.28756 -5.1855,11.49855 -12.67968,16.30436 -25.34292,16.25171 -4.14904,-0.0173 -9.98496,-1.17644 -13.1269,-2.60739 -5.40636,-2.46224 -15.19513,-11.83424 -16.52381,-15.82028 -0.44291,-1.32871 -3.20847,-0.0798 -9.32773,4.21273 l -8.69817,6.10141 4.18668,6.08514 c 14.815,21.53285 45.51627,29.19387 69.20067,17.26794 z"/>
    <path id="el_4C96u5CXI6u" d="m 171.31241,545.01328 c -23.35343,-3.55228 -42.70215,-22.45809 -47.04892,-45.97194 -1.9624,-10.61558 -2.08821,-157.79472 -0.14504,-169.6612 3.00724,-18.36438 14.98427,-34.06729 32.20662,-42.22562 l 9.53287,-4.51577 84.79765,-0.40675 c 54.02238,-0.25912 87.24474,0.11806 91.54027,1.03929 22.12448,4.74485 39.26397,22.31392 43.53122,44.62229 1.14012,5.9603 1.49027,33.10395 1.17666,91.21678 -0.49712,92.12535 -0.0259,87.52825 -10.54736,102.89611 -6.12452,8.94564 -15.90482,16.40907 -26.96919,20.58042 -8.01416,3.02141 -9.68626,3.08318 -89.48405,3.30585 -44.72451,0.12473 -84.59033,-0.27096 -88.59073,-0.87946 z m 101.26542,-45.6406 c 10.10091,-5.08616 17.19886,-13.0604 21.9891,-24.70378 2.62442,-6.37907 2.80912,-10.93504 3.21245,-79.24662 l 0.42794,-72.47844 h -11.28928 -11.28927 l -0.4382,69.65002 c -0.39906,63.43121 -0.66518,70.15337 -2.98056,75.28756 -5.1855,11.49855 -12.67968,16.30436 -25.34292,16.25171 -4.14904,-0.0173 -9.98496,-1.17644 -13.1269,-2.60739 -5.40636,-2.46224 -15.19513,-11.83424 -16.52381,-15.82028 -0.44291,-1.32871 -3.20847,-0.0798 -9.32773,4.21273 l -8.69817,6.10141 4.18668,6.08514 c 14.815,21.53285 45.51627,29.19387 69.20067,17.26794 z"/>
    <path id="el_BI9S8vLy0wd" d="m 454.6628,544.84775 c -15.94295,-2.33285 -29.74983,-11.10101 -38.49925,-24.44927 -9.37664,-14.30513 -9.30998,-13.47885 -8.87062,-109.95789 l 0.39553,-86.85315 4.62123,-9.38504 c 5.85395,-11.8885 18.17082,-23.63878 29.62454,-28.26176 l 8.18063,-3.30189 84.61219,-0.40639 c 73.27835,-0.35196 85.77636,-0.10815 93.30323,1.82015 16.62772,4.25982 29.51934,14.87941 36.91133,30.40605 l 4.37636,9.19238 v 90.50967 90.50967 l -3.95313,8.05 c -8.72142,17.75999 -24.63524,29.56814 -43.52946,32.29914 -11.236,1.62405 -155.91565,1.47549 -167.17258,-0.17167 z m 95.15412,-40.96949 c 23.88711,-3.84004 39.0528,-17.80323 47.52392,-43.75571 2.25705,-6.91474 2.59598,-14.96037 3.05328,-72.47844 l 0.5144,-64.70027 h -11.33601 -11.33599 l -0.46613,63.28605 c -0.40967,55.61991 -0.76488,64.17788 -2.93234,70.64827 -3.40905,10.17678 -10.31064,18.6836 -18.63248,22.96617 -6.00892,3.0923 -8.85925,3.61129 -19.78593,3.60261 -10.40055,-0.008 -13.83853,-0.58236 -18.55642,-3.09867 -7.81203,-4.16657 -13.74951,-11.24729 -17.75235,-21.17047 -3.29787,-8.17552 -3.33064,-8.80717 -3.74754,-72.2408 l -0.42057,-63.99316 H 483.88608 471.8294 l 0.55189,63.28605 c 0.59969,68.76663 0.81047,70.79254 9.15749,88.01675 4.4652,9.214 14.57034,19.7473 23.1377,24.11804 6.23615,3.18145 21.92149,6.65993 30.9983,6.8744 2.72236,0.0643 9.08633,-0.54805 14.14214,-1.36082 z"/>
  </g>
<script>(function(){var a=document.querySelector('#el_C9XpSVSwE'),b=a.querySelectorAll('style'),c=function(d){b.forEach(function(f){var g=f.textContent;g&amp;&amp;(f.textContent=g.replace(/transform-box:[^;\r\n]*/gi,'transform-box: '+d))})};c('initial'),window.requestAnimationFrame(function(){return c('fill-box')})})();</script></svg>