<!--?xml version="1.0" encoding="UTF-8" standalone="no"?-->
<!-- Created with Inkscape (http://www.inkscape.org/) -->

<svg xmlns:osb="http://www.openswatchbook.org/uri/2009/osb" xmlns:dc="http://purl.org/dc/elements/1.1/" xmlns:cc="http://creativecommons.org/ns#" xmlns:rdf="http://www.w3.org/1999/02/22-rdf-syntax-ns#" xmlns:svg="http://www.w3.org/2000/svg" xmlns="http://www.w3.org/2000/svg" xmlns:sodipodi="http://sodipodi.sourceforge.net/DTD/sodipodi-0.dtd" xmlns:inkscape="http://www.inkscape.org/namespaces/inkscape"
 width="300px" height="300px" viewBox="2 0 210 297" version="1.1" id="svg497" sodipodi:docname="PathLogo.svg" inkscape:version="0.92.3 (2405546, 2018-03-11)" style="">
  <defs id="defs491">
    <linearGradient id="linearGradient2746" osb:paint="solid">
      <stop style="stop-color:#000000;stop-opacity:1;" offset="0" id="stop2744"></stop>
    </linearGradient>
    <linearGradient id="linearGradient2740" osb:paint="solid">
      <stop style="stop-color:#000000;stop-opacity:1;" offset="0" id="stop2738"></stop>
    </linearGradient>
    <linearGradient id="linearGradient2734" osb:paint="solid">
      <stop style="stop-color:#000000;stop-opacity:1;" offset="0" id="stop2732"></stop>
    </linearGradient>
    <linearGradient id="linearGradient2728" osb:paint="solid">
      <stop style="stop-color:#000000;stop-opacity:1;" offset="0" id="stop2726"></stop>
    </linearGradient>
    <linearGradient id="linearGradient2722" osb:paint="solid">
      <stop style="stop-color:#000000;stop-opacity:1;" offset="0" id="stop2720"></stop>
    </linearGradient>
    <linearGradient id="linearGradient2716" osb:paint="solid">
      <stop style="stop-color:#000000;stop-opacity:1;" offset="0" id="stop2714"></stop>
    </linearGradient>
    <linearGradient id="linearGradient2710" osb:paint="solid">
      <stop style="stop-color:#000000;stop-opacity:1;" offset="0" id="stop2708"></stop>
    </linearGradient>
    <linearGradient id="linearGradient2704" osb:paint="solid">
      <stop style="stop-color:#000000;stop-opacity:1;" offset="0" id="stop2702"></stop>
    </linearGradient>
    <linearGradient id="linearGradient2698" osb:paint="solid">
      <stop style="stop-color:#000000;stop-opacity:1;" offset="0" id="stop2696"></stop>
    </linearGradient>
    <linearGradient id="linearGradient2692" osb:paint="solid">
      <stop style="stop-color:#000000;stop-opacity:1;" offset="0" id="stop2690"></stop>
    </linearGradient>
    <linearGradient id="linearGradient2686" osb:paint="solid">
      <stop style="stop-color:#000000;stop-opacity:1;" offset="0" id="stop2684"></stop>
    </linearGradient>
    <linearGradient id="linearGradient2680" osb:paint="solid">
      <stop style="stop-color:#000000;stop-opacity:1;" offset="0" id="stop2678"></stop>
    </linearGradient>
    <linearGradient id="linearGradient2674" osb:paint="solid">
      <stop style="stop-color:#000000;stop-opacity:1;" offset="0" id="stop2672"></stop>
    </linearGradient>
    <linearGradient id="linearGradient2668" osb:paint="solid">
      <stop style="stop-color:#000000;stop-opacity:1;" offset="0" id="stop2666"></stop>
    </linearGradient>
    <linearGradient id="linearGradient2662" osb:paint="solid">
      <stop style="stop-color:#000000;stop-opacity:1;" offset="0" id="stop2660"></stop>
    </linearGradient>
    <linearGradient id="linearGradient2656" osb:paint="solid">
      <stop style="stop-color:#000000;stop-opacity:1;" offset="0" id="stop2654"></stop>
    </linearGradient>
    <marker inkscape:isstock="true" style="overflow:visible" id="marker1644" refX="0.0" refY="0.0" orient="auto" inkscape:stockid="Arrow1Lstart">
      <path transform="scale(0.8) translate(12.5,0)" style="fill-rule:evenodd;stroke:#000000;stroke-width:1pt;stroke-opacity:1;fill:#000000;fill-opacity:1" d="M 0.0,0.0 L 5.0,-5.0 L -12.5,0.0 L 5.0,5.0 L 0.0,0.0 z " id="path1642" class="CsxSDJFf_0"></path>
    </marker>
    <marker inkscape:isstock="true" style="overflow:visible" id="marker1574" refX="0.0" refY="0.0" orient="auto" inkscape:stockid="Arrow1Lstart">
      <path transform="scale(0.8) translate(12.5,0)" style="fill-rule:evenodd;stroke:#000000;stroke-width:1pt;stroke-opacity:1;fill:#000000;fill-opacity:1" d="M 0.0,0.0 L 5.0,-5.0 L -12.5,0.0 L 5.0,5.0 L 0.0,0.0 z " id="path1572" class="CsxSDJFf_1"></path>
    </marker>
    <marker inkscape:isstock="true" style="overflow:visible" id="marker1510" refX="0.0" refY="0.0" orient="auto" inkscape:stockid="Arrow1Lstart">
      <path transform="scale(0.8) translate(12.5,0)" style="fill-rule:evenodd;stroke:#000000;stroke-width:1pt;stroke-opacity:1;fill:#000000;fill-opacity:1" d="M 0.0,0.0 L 5.0,-5.0 L -12.5,0.0 L 5.0,5.0 L 0.0,0.0 z " id="path1508" class="CsxSDJFf_2"></path>
    </marker>
    <marker inkscape:isstock="true" style="overflow:visible" id="marker1452" refX="0.0" refY="0.0" orient="auto" inkscape:stockid="Arrow1Lstart">
      <path transform="scale(0.8) translate(12.5,0)" style="fill-rule:evenodd;stroke:#000000;stroke-width:1pt;stroke-opacity:1;fill:#000000;fill-opacity:1" d="M 0.0,0.0 L 5.0,-5.0 L -12.5,0.0 L 5.0,5.0 L 0.0,0.0 z " id="path1450" class="CsxSDJFf_3"></path>
    </marker>
    <marker inkscape:isstock="true" style="overflow:visible" id="marker1400" refX="0.0" refY="0.0" orient="auto" inkscape:stockid="Arrow1Lstart">
      <path transform="scale(0.8) translate(12.5,0)" style="fill-rule:evenodd;stroke:#000000;stroke-width:1pt;stroke-opacity:1;fill:#000000;fill-opacity:1" d="M 0.0,0.0 L 5.0,-5.0 L -12.5,0.0 L 5.0,5.0 L 0.0,0.0 z " id="path1398" class="CsxSDJFf_4"></path>
    </marker>
    <marker inkscape:isstock="true" style="overflow:visible" id="marker1354" refX="0.0" refY="0.0" orient="auto" inkscape:stockid="Arrow1Lstart">
      <path transform="scale(0.8) translate(12.5,0)" style="fill-rule:evenodd;stroke:#000000;stroke-width:1pt;stroke-opacity:1;fill:#000000;fill-opacity:1" d="M 0.0,0.0 L 5.0,-5.0 L -12.5,0.0 L 5.0,5.0 L 0.0,0.0 z " id="path1352" class="CsxSDJFf_5"></path>
    </marker>
    <marker inkscape:isstock="true" style="overflow:visible" id="marker1314" refX="0.0" refY="0.0" orient="auto" inkscape:stockid="Arrow1Lstart">
      <path transform="scale(0.8) translate(12.5,0)" style="fill-rule:evenodd;stroke:#000000;stroke-width:1pt;stroke-opacity:1;fill:#000000;fill-opacity:1" d="M 0.0,0.0 L 5.0,-5.0 L -12.5,0.0 L 5.0,5.0 L 0.0,0.0 z " id="path1312" class="CsxSDJFf_6"></path>
    </marker>
    <marker inkscape:isstock="true" style="overflow:visible" id="marker1280" refX="0.0" refY="0.0" orient="auto" inkscape:stockid="Arrow1Lstart">
      <path transform="scale(0.8) translate(12.5,0)" style="fill-rule:evenodd;stroke:#000000;stroke-width:1pt;stroke-opacity:1;fill:#000000;fill-opacity:1" d="M 0.0,0.0 L 5.0,-5.0 L -12.5,0.0 L 5.0,5.0 L 0.0,0.0 z " id="path1278" class="CsxSDJFf_7"></path>
    </marker>
    <marker inkscape:isstock="true" style="overflow:visible" id="marker1252" refX="0.0" refY="0.0" orient="auto" inkscape:stockid="Arrow1Lstart">
      <path transform="scale(0.8) translate(12.5,0)" style="fill-rule:evenodd;stroke:#000000;stroke-width:1pt;stroke-opacity:1;fill:#000000;fill-opacity:1" d="M 0.0,0.0 L 5.0,-5.0 L -12.5,0.0 L 5.0,5.0 L 0.0,0.0 z " id="path1250" class="CsxSDJFf_8"></path>
    </marker>
    <marker inkscape:isstock="true" style="overflow:visible" id="marker1230" refX="0.0" refY="0.0" orient="auto" inkscape:stockid="Arrow1Lstart">
      <path transform="scale(0.8) translate(12.5,0)" style="fill-rule:evenodd;stroke:#000000;stroke-width:1pt;stroke-opacity:1;fill:#000000;fill-opacity:1" d="M 0.0,0.0 L 5.0,-5.0 L -12.5,0.0 L 5.0,5.0 L 0.0,0.0 z " id="path1228" class="CsxSDJFf_9"></path>
    </marker>
    <inkscape:path-effect effect="bspline" id="path-effect3745" is_visible="true" weight="33.333333" steps="2" helper_size="0" apply_no_weight="true" apply_with_weight="true" only_selected="false"></inkscape:path-effect>
  </defs>
  <sodipodi:namedview id="base" pagecolor="#ffffff" bordercolor="#666666" borderopacity="1.0" inkscape:pageopacity="0.0" inkscape:pageshadow="2" inkscape:zoom="0.35" inkscape:cx="66.145794" inkscape:cy="550.43567" inkscape:document-units="mm" inkscape:current-layer="layer1" showgrid="false" inkscape:window-width="1366" inkscape:window-height="705" inkscape:window-x="-8" inkscape:window-y="-8" inkscape:window-maximized="1" inkscape:snap-text-baseline="false"></sodipodi:namedview>
  <metadata id="metadata494">
    <rdf:rdf>
      <cc:work rdf:about="">
        <dc:format>image/svg+xml</dc:format>
        <dc:type rdf:resource="http://purl.org/dc/dcmitype/StillImage"></dc:type>
      </cc:work>
    </rdf:rdf>
  </metadata>
  <g inkscape:label="Ebene 1" inkscape:groupmode="layer" id="layer1">
    <path style="color: rgb(0, 0, 0); font: medium sans-serif; font-feature-settings: normal; text-indent: 0px; text-align: start; text-decoration: none solid rgb(0, 0, 0); letter-spacing: normal; word-spacing: normal; text-transform: none; writing-mode: lr-tb; direction: ltr; text-orientation: mixed; dominant-baseline: auto; baseline-shift: baseline; text-anchor: start; white-space: normal; clip-rule: nonzero; display: inline; overflow: visible; visibility: visible; opacity: 1; isolation: auto; mix-blend-mode: normal; color-interpolation: sRGB; color-interpolation-filters: linearRGB; vector-effect: none; fill-opacity: 0; fill-rule: nonzero; stroke: rgb(0, 0, 0); stroke-width: 3.175; stroke-linecap: round; stroke-linejoin: round; stroke-miterlimit: 4; stroke-opacity: 1; color-rendering: auto; image-rendering: auto; shape-rendering: auto; text-rendering: auto; paint-order: markers; fill: rgb(0, 0, 0);" d="m 96.315677,51.196188 c 5.926263,-5.926263 15.473383,-5.924883 21.399643,0.0014 l 84.85282,84.852813 c 5.92626,5.92626 5.92765,15.47339 0.001,21.39965 l -84.85281,84.85282 c -5.92626,5.92626 -15.47478,5.92626 -21.401038,-1e-5 L 11.462859,157.45003 c -5.9262624,-5.92626 -5.9262582,-15.47477 4e-6,-21.40103 z m 0.187829,0.187828 -84.852814,84.852814 c -5.8258518,5.82585 -5.8272363,15.2009 -0.0014,21.02675 l 84.852814,84.85281 c 5.825848,5.82586 15.200908,5.82448 21.026758,-0.001 l 84.85281,-84.85282 c 5.82586,-5.82585 5.82585,-15.19952 0,-21.02537 L 117.52888,51.384011 c -5.82585,-5.825852 -15.19952,-5.825847 -21.025374,5e-6 z" id="rect3737" inkscape:connector-curvature="0" class="CsxSDJFf_10"></path>
    <path style="color: rgb(0, 0, 0); font: medium sans-serif; font-feature-settings: normal; text-indent: 0px; text-align: start; text-decoration: none solid rgb(0, 0, 0); letter-spacing: normal; word-spacing: normal; text-transform: none; writing-mode: lr-tb; direction: ltr; text-orientation: mixed; dominant-baseline: auto; baseline-shift: baseline; text-anchor: start; white-space: normal; clip-rule: nonzero; display: inline; overflow: visible; visibility: visible; opacity: 1; isolation: auto; mix-blend-mode: normal; color-interpolation: sRGB; color-interpolation-filters: linearRGB; vector-effect: none; fill-opacity: 0; fill-rule: nonzero; stroke: rgb(0, 0, 0); stroke-width: 3.175; stroke-linecap: round; stroke-linejoin: round; stroke-miterlimit: 4; stroke-opacity: 1; color-rendering: auto; image-rendering: auto; shape-rendering: auto; text-rendering: auto; paint-order: markers; fill: rgb(0, 0, 0);" d="m 49.515625,74.117188 c -8.381003,0 -15.132813,6.751811 -15.132813,15.132812 v 40 c 0,8.381 6.75181,15.13281 15.132813,15.13281 h 40 c 8.381003,0 15.132815,-6.75181 15.132815,-15.13281 v -40 c 0,-8.381001 -6.751812,-15.132813 -15.132815,-15.132812 z m 0,0.265624 h 40 c 8.239001,0 14.867185,6.628189 14.867185,14.867188 v 40 c 0,8.239 -6.628184,14.86719 -14.867185,14.86719 h -40 c -8.239001,0 -14.867187,-6.62819 -14.867187,-14.86719 v -40 c 0,-8.238999 6.628186,-14.867187 14.867187,-14.867188 z" id="rect3747" inkscape:connector-curvature="0" class="CsxSDJFf_11"></path>
    <path style="color: rgb(0, 0, 0); font: medium sans-serif; font-feature-settings: normal; text-indent: 0px; text-align: start; text-decoration: none solid rgb(0, 0, 0); letter-spacing: normal; word-spacing: normal; text-transform: none; writing-mode: lr-tb; direction: ltr; text-orientation: mixed; dominant-baseline: auto; baseline-shift: baseline; text-anchor: start; white-space: normal; clip-rule: nonzero; display: inline; overflow: visible; visibility: visible; opacity: 1; isolation: auto; mix-blend-mode: normal; color-interpolation: sRGB; color-interpolation-filters: linearRGB; vector-effect: none; fill-opacity: 0; fill-rule: nonzero; stroke: rgb(0, 0, 0); stroke-width: 3.175; stroke-linecap: round; stroke-linejoin: round; stroke-miterlimit: 4; stroke-opacity: 1; color-rendering: auto; image-rendering: auto; shape-rendering: auto; text-rendering: auto; paint-order: markers; fill: rgb(0, 0, 0);" d="m 124.51562,74.117188 c -8.381,0 -15.13281,6.751811 -15.13281,15.132812 v 40 c 0,8.381 6.75181,15.13281 15.13281,15.13281 h 40 c 8.38101,0 15.13282,-6.75181 15.13282,-15.13281 v -40 c 0,-8.381001 -6.75181,-15.132812 -15.13282,-15.132812 z m 0,0.265624 h 40 c 8.239,0 14.86719,6.628189 14.86719,14.867188 v 40 c 0,8.239 -6.62819,14.86719 -14.86719,14.86719 h -40 c -8.23899,0 -14.86718,-6.62819 -14.86718,-14.86719 v -40 c 0,-8.238999 6.62819,-14.867188 14.86718,-14.867188 z" id="rect3747-4" inkscape:connector-curvature="0" class="CsxSDJFf_12"></path>
    <path style="color: rgb(0, 0, 0); font: medium sans-serif; font-feature-settings: normal; text-indent: 0px; text-align: start; text-decoration: none solid rgb(0, 0, 0); letter-spacing: normal; word-spacing: normal; text-transform: none; writing-mode: lr-tb; direction: ltr; text-orientation: mixed; dominant-baseline: auto; baseline-shift: baseline; text-anchor: start; white-space: normal; clip-rule: nonzero; display: inline; overflow: visible; visibility: visible; opacity: 1; isolation: auto; mix-blend-mode: normal; color-interpolation: sRGB; color-interpolation-filters: linearRGB; vector-effect: none; fill-opacity: 0; fill-rule: nonzero; stroke: rgb(0, 0, 0); stroke-width: 3.175; stroke-linecap: round; stroke-linejoin: round; stroke-miterlimit: 4; stroke-opacity: 1; color-rendering: auto; image-rendering: auto; shape-rendering: auto; text-rendering: auto; paint-order: markers; fill: rgb(0, 0, 0);" d="m 49.515625,149.11719 c -8.381001,0 -15.132813,6.75181 -15.132813,15.13281 v 40 c 0,8.381 6.751812,15.13281 15.132813,15.13281 h 40 c 8.381001,0 15.132815,-6.75181 15.132815,-15.13281 v -40 c 0,-8.381 -6.751814,-15.13281 -15.132815,-15.13281 z m 0,0.26562 h 40 c 8.238999,0 14.867185,6.62819 14.867185,14.86719 v 40 c 0,8.239 -6.628186,14.86719 -14.867185,14.86719 h -40 c -8.238999,0 -14.867187,-6.62819 -14.867187,-14.86719 v -40 c 0,-8.239 6.628188,-14.86719 14.867187,-14.86719 z" id="rect3747-5" inkscape:connector-curvature="0" class="CsxSDJFf_13"></path>
    <path style="color: rgb(0, 0, 0); font: medium sans-serif; font-feature-settings: normal; text-indent: 0px; text-align: start; text-decoration: none solid rgb(0, 0, 0); letter-spacing: normal; word-spacing: normal; text-transform: none; writing-mode: lr-tb; direction: ltr; text-orientation: mixed; dominant-baseline: auto; baseline-shift: baseline; text-anchor: start; white-space: normal; clip-rule: nonzero; display: inline; overflow: visible; visibility: visible; opacity: 1; isolation: auto; mix-blend-mode: normal; color-interpolation: sRGB; color-interpolation-filters: linearRGB; vector-effect: none; fill-opacity: 0; fill-rule: nonzero; stroke: rgb(0, 0, 0); stroke-width: 3.175; stroke-linecap: round; stroke-linejoin: round; stroke-miterlimit: 4; stroke-opacity: 1; color-rendering: auto; image-rendering: auto; shape-rendering: auto; text-rendering: auto; paint-order: markers; fill: rgb(0, 0, 0);" d="m 124.51562,149.11719 c -8.381,0 -15.13281,6.75181 -15.13281,15.13281 v 40 c 0,8.381 6.75181,15.13281 15.13281,15.13281 h 40 c 8.38101,0 15.13282,-6.75181 15.13282,-15.13281 v -40 c 0,-8.381 -6.75181,-15.13281 -15.13282,-15.13281 z m 0,0.26562 h 40 c 8.239,0 14.86719,6.62819 14.86719,14.86719 v 40 c 0,8.239 -6.62819,14.86719 -14.86719,14.86719 h -40 c -8.23899,0 -14.86718,-6.62819 -14.86718,-14.86719 v -40 c 0,-8.239 6.62819,-14.86719 14.86718,-14.86719 z" id="rect3747-0" inkscape:connector-curvature="0" class="CsxSDJFf_14"></path>
    <g aria-label="J" style="font-style:normal;font-variant:normal;font-weight:normal;font-stretch:normal;font-size:71.96666718px;line-height:1.25;font-family:'Source Sans Pro';-inkscape-font-specification:'Source Sans Pro';letter-spacing:0px;word-spacing:0px;fill:#000000;fill-opacity:0;stroke:#000000;stroke-width:3.175;stroke-opacity:1;stroke-miterlimit:4;stroke-dasharray:none;stroke-dashoffset:0;stroke-linejoin:round;stroke-linecap:round;paint-order:markers fill stroke;opacity:1" id="text4569">
      <path d="m 67.914992,133.24972 q -8.8519,0 -13.025967,-7.5565 l 4.318,-3.0226 q 1.583267,2.8067 3.598333,4.1021 2.015067,1.22344 4.5339,1.22344 3.814234,0 5.685367,-2.30294 1.871133,-2.3749 1.871133,-7.7724 V 85.17599 h 6.0452 v 33.32057 q 0,3.0226 -0.791633,5.75733 -0.719667,2.66277 -2.302933,4.67783 -1.5113,2.01507 -4.030134,3.16654 -2.446866,1.15146 -5.901266,1.15146 z" style="font-style: normal; font-variant: normal; font-weight: normal; font-stretch: normal; font-size: 71.9667px; font-family: &quot;Source Sans Pro&quot;; stroke-width: 3.175; stroke: rgb(0, 0, 0); stroke-opacity: 1; stroke-miterlimit: 4; stroke-linejoin: round; stroke-linecap: round; paint-order: markers; fill-opacity: 0; fill: rgb(0, 0, 0);" id="path90" class="CsxSDJFf_15"></path>
    </g>
    <g aria-label="U" style="font-style:normal;font-variant:normal;font-weight:normal;font-stretch:normal;font-size:71.96666718px;line-height:1.25;font-family:'Source Sans Pro';-inkscape-font-specification:'Source Sans Pro';letter-spacing:0px;word-spacing:0px;fill:#000000;fill-opacity:0;stroke:#000000;stroke-width:3.175;stroke-opacity:1;stroke-miterlimit:4;stroke-dasharray:none;stroke-dashoffset:0;stroke-linejoin:round;stroke-linecap:round;paint-order:markers fill stroke;opacity:1" id="text4569-0">
      <path d="m 144.02371,133.24972 q -3.59834,0 -6.76487,-1.00753 -3.09457,-1.0795 -5.3975,-3.4544 -2.23097,-2.44687 -3.52637,-6.33307 -1.2954,-3.8862 -1.2954,-9.57156 V 85.17599 h 5.97324 v 27.8511 q 0,4.24603 0.8636,7.1247 0.8636,2.87867 2.30293,4.60587 1.5113,1.7272 3.52637,2.51883 2.01506,0.71967 4.318,0.71967 2.3749,0 4.38996,-0.71967 2.01507,-0.79163 3.52637,-2.51883 1.5113,-1.7272 2.3749,-4.60587 0.8636,-2.87867 0.8636,-7.1247 v -27.8511 h 5.75733 v 27.70717 q 0,5.68536 -1.2954,9.57156 -1.2954,3.8862 -3.59833,6.33307 -2.23097,2.3749 -5.32553,3.4544 -3.09457,1.00753 -6.6929,1.00753 z" style="font-style: normal; font-variant: normal; font-weight: normal; font-stretch: normal; font-size: 71.9667px; font-family: &quot;Source Sans Pro&quot;; stroke-width: 3.175; stroke: rgb(0, 0, 0); stroke-opacity: 1; stroke-miterlimit: 4; stroke-linejoin: round; stroke-linecap: round; paint-order: markers; fill-opacity: 0; fill: rgb(0, 0, 0);" id="path93" class="CsxSDJFf_16"></path>
    </g>
    <g style="font-style:normal;font-variant:normal;font-weight:normal;font-stretch:normal;font-size:71.96666718px;line-height:1.25;font-family:'Source Sans Pro';-inkscape-font-specification:'Source Sans Pro';letter-spacing:0px;word-spacing:0px;fill:#000000;fill-opacity:0;stroke:#000000;stroke-width:3.175;stroke-opacity:1;stroke-miterlimit:4;stroke-dasharray:none;stroke-dashoffset:0;stroke-linejoin:round;stroke-linecap:round;paint-order:markers fill stroke;opacity:1" id="text4569-9"></g>
    <g aria-label="H" style="font-style:normal;font-variant:normal;font-weight:normal;font-stretch:normal;font-size:71.96666718px;line-height:1.25;font-family:'Source Sans Pro';-inkscape-font-specification:'Source Sans Pro';letter-spacing:0px;word-spacing:0px;fill:#000000;fill-opacity:0;stroke:#000000;stroke-width:3.175;stroke-opacity:1;stroke-miterlimit:4;stroke-dasharray:none;stroke-dashoffset:0;stroke-linejoin:round;stroke-linecap:round;paint-order:markers fill stroke;opacity:1" id="text4569-8">
      <path d="m 52.291613,160.92446 h 5.973234 V 180.7153 H 80.21468 v -19.79084 h 6.0452 v 47.21014 h -6.0452 V 185.8969 H 58.264847 v 22.2377 h -5.973234 z" style="font-style: normal; font-variant: normal; font-weight: normal; font-stretch: normal; font-size: 71.9667px; font-family: &quot;Source Sans Pro&quot;; stroke-width: 3.175; stroke: rgb(0, 0, 0); stroke-opacity: 1; stroke-miterlimit: 4; stroke-linejoin: round; stroke-linecap: round; paint-order: markers; fill-opacity: 0; fill: rgb(0, 0, 0);" id="path97" class="CsxSDJFf_17"></path>
    </g>
    <g aria-label="U" style="font-style:normal;font-variant:normal;font-weight:normal;font-stretch:normal;font-size:71.96666718px;line-height:1.25;font-family:'Source Sans Pro';-inkscape-font-specification:'Source Sans Pro';letter-spacing:0px;word-spacing:0px;fill:#000000;fill-opacity:0;stroke:#000000;stroke-width:3.175;stroke-opacity:1;stroke-miterlimit:4;stroke-dasharray:none;stroke-dashoffset:0;stroke-linejoin:round;stroke-linecap:round;paint-order:markers fill stroke;opacity:1" id="text4569-0-9">
      <path d="m 143.99986,208.74959 q -3.59834,0 -6.76487,-1.00754 -3.09457,-1.0795 -5.3975,-3.4544 -2.23097,-2.44686 -3.52637,-6.33306 -1.2954,-3.8862 -1.2954,-9.57157 v -27.70717 h 5.97324 v 27.8511 q 0,4.24604 0.8636,7.1247 0.8636,2.87867 2.30293,4.60587 1.5113,1.7272 3.52637,2.51883 2.01506,0.71967 4.318,0.71967 2.3749,0 4.38996,-0.71967 2.01507,-0.79163 3.52637,-2.51883 1.5113,-1.7272 2.3749,-4.60587 0.8636,-2.87866 0.8636,-7.1247 v -27.8511 h 5.75733 v 27.70717 q 0,5.68537 -1.2954,9.57157 -1.2954,3.8862 -3.59833,6.33306 -2.23097,2.3749 -5.32553,3.4544 -3.09457,1.00754 -6.6929,1.00754 z" style="font-style: normal; font-variant: normal; font-weight: normal; font-stretch: normal; font-size: 71.9667px; font-family: &quot;Source Sans Pro&quot;; stroke-width: 3.175; stroke: rgb(0, 0, 0); stroke-opacity: 1; stroke-miterlimit: 4; stroke-linejoin: round; stroke-linecap: round; paint-order: markers; fill-opacity: 0; fill: rgb(0, 0, 0);" id="path100" class="CsxSDJFf_18"></path>
    </g>
    <path style="color: rgb(0, 0, 0); font: medium sans-serif; font-feature-settings: normal; text-indent: 0px; text-align: start; text-decoration: none solid rgb(0, 0, 0); letter-spacing: normal; word-spacing: normal; text-transform: none; writing-mode: lr-tb; direction: ltr; text-orientation: mixed; dominant-baseline: auto; baseline-shift: baseline; text-anchor: start; white-space: normal; clip-rule: nonzero; display: inline; overflow: visible; visibility: visible; opacity: 1; isolation: auto; mix-blend-mode: normal; color-interpolation: sRGB; color-interpolation-filters: linearRGB; vector-effect: none; fill-opacity: 0; fill-rule: nonzero; stroke: rgb(0, 0, 0); stroke-width: 12; stroke-linecap: round; stroke-linejoin: round; stroke-miterlimit: 4; stroke-opacity: 1; paint-order: markers; color-rendering: auto; image-rendering: auto; shape-rendering: auto; text-rendering: auto; fill: rgb(0, 0, 0);" d="m 444.75977,316.20508 -84.95508,0.40625 -9.67578,4.58398 c -17.42498,8.25432 -29.55633,24.15358 -32.60157,42.75 -0.26183,1.59893 -0.46166,5.16289 -0.64062,10.35157 -0.17897,5.18867 -0.32597,11.95624 -0.44141,19.77539 -0.23088,15.63829 -0.33529,35.48168 -0.31836,55.28711 0.0169,19.80542 0.15462,39.57263 0.41211,55.05468 0.12875,7.74103 0.28685,14.41065 0.47461,19.48242 0.18776,5.07178 0.39039,8.48324 0.66211,9.95313 4.40264,23.81606 23.97194,42.94333 47.63672,46.54297 1.16145,0.17667 4.32558,0.29711 9.33008,0.41797 5.0045,0.12085 11.76235,0.22497 19.79297,0.30468 16.06124,0.15944 37.21124,0.22644 59.57617,0.16407 39.89906,-0.11134 60.2629,-0.18153 71.68555,-0.60352 11.42264,-0.42199 14.02609,-1.23218 18.04687,-2.74805 11.19618,-4.22104 21.08355,-11.75788 27.30274,-20.84179 5.24494,-7.66087 7.88416,-10.62034 9.15234,-22.99219 1.26817,-12.37185 1.26902,-34.23925 1.51758,-80.30078 0.15681,-29.05843 0.14799,-50.37421 -0.043,-65.17774 -0.19096,-14.80352 -0.53977,-23.0142 -1.14453,-26.17578 -4.32003,-22.58425 -21.67693,-40.37549 -44.07813,-45.17968 -1.24694,-0.26743 -4.07005,-0.44232 -8.64258,-0.60352 -4.57252,-0.1612 -10.82013,-0.28643 -18.62109,-0.375 -15.60192,-0.17713 -37.4142,-0.20574 -64.42773,-0.0762 z m 0.006,1.41406 c 27.00885,-0.12955 48.81752,-0.10081 64.40626,0.0762 7.79436,0.0885 14.0349,0.21449 18.58789,0.375 4.55298,0.16052 7.4937,0.37907 8.39453,0.57227 21.84776,4.6855 38.76989,22.03001 42.98437,44.0625 0.53536,2.79872 0.93035,11.14115 1.1211,25.92773 0.19074,14.78659 0.19976,36.09795 0.043,65.15235 -0.24856,46.06381 -0.2589,67.96115 -1.50976,80.16406 -1.25086,12.2029 -3.63755,14.6309 -8.91406,22.33789 -6.02986,8.80737 -15.70221,16.1967 -26.63477,20.31836 -3.99338,1.50554 -6.23322,2.23634 -17.59961,2.65625 -11.36639,0.41991 -31.73799,0.49218 -71.63672,0.60351 -22.35958,0.0624 -43.5057,-0.005 -59.55859,-0.16406 -8.02645,-0.0797 -14.77839,-0.18411 -19.77149,-0.30469 -4.99309,-0.12058 -8.31359,-0.27476 -9.15234,-0.40234 -23.04208,-3.50492 -42.16808,-22.19071 -46.45898,-45.40234 -0.21888,-1.18401 -0.45153,-4.69272 -0.63868,-9.74805 -0.18714,-5.05533 -0.34596,-11.71983 -0.47461,-19.45508 -0.25729,-15.4705 -0.39518,-35.22968 -0.4121,-55.02929 -0.0169,-19.79962 0.0876,-39.63866 0.31836,-55.26563 0.11535,-7.81349 0.26102,-14.57508 0.43945,-19.74805 0.17842,-5.17296 0.40104,-8.80418 0.625,-10.17187 2.96924,-18.13234 14.79082,-33.63883 31.81055,-41.70117 l 9.39062,-4.44922 z m 24.26758,39.29688 -0.44336,70.35351 c -0.19952,31.71477 -0.3666,49.25348 -0.77148,59.48047 -0.40488,10.22699 -1.03217,13.04861 -2.14648,15.51953 -2.55545,5.66656 -5.63886,9.61187 -9.60352,12.1543 -3.96466,2.54242 -8.85021,3.70759 -15.0918,3.68164 -4.02011,-0.0168 -9.86348,-1.18921 -12.83594,-2.54297 -2.5417,-1.15758 -6.34327,-4.09308 -9.5957,-7.20703 -1.62621,-1.55698 -3.12576,-3.16174 -4.28906,-4.60742 -1.1633,-1.44568 -1.98563,-2.75768 -2.26172,-3.58594 -0.0955,-0.28657 -0.29139,-0.56955 -0.5625,-0.74609 -0.27111,-0.17655 -0.58437,-0.24218 -0.88867,-0.24414 -0.60861,-0.004 -1.24593,0.20468 -2.04688,0.5664 -1.60188,0.72345 -3.83201,2.12474 -6.90625,4.28125 l -9.27148,6.50195 4.58398,6.66407 c 15.02918,21.84415 46.08734,29.58907 70.09961,17.49804 10.24723,-5.15983 17.48565,-13.30079 22.32617,-25.0664 1.33253,-3.23892 2.06647,-6.1368 2.49219,-16.63867 0.42572,-10.50188 0.57177,-28.71672 0.77344,-62.87305 l 0.43164,-73.18945 h -12 z m 1.4043,1.41406 h 10.58789 10.57813 l -0.42383,71.76758 c -0.20166,34.15524 -0.34987,52.37544 -0.77344,62.82422 -0.42357,10.44877 -1.09482,13.01804 -2.38672,16.1582 -4.73995,11.52114 -11.69775,19.32736 -21.65234,24.33984 -23.35653,11.76083 -53.69996,4.18444 -68.30078,-17.03711 l -3.78907,-5.50781 8.125,-5.69922 c 3.04503,-2.13602 5.25435,-3.50648 6.67578,-4.14844 0.71072,-0.32098 1.23131,-0.44286 1.45704,-0.4414 0.11286,7.3e-4 0.13619,0.0229 0.125,0.0156 -0.0112,-0.007 -0.023,-0.0398 -0.008,0.006 0.38826,1.16476 1.28723,2.51776 2.50196,4.02735 1.21473,1.50959 2.74925,3.15012 4.41211,4.74218 3.32572,3.18413 7.12363,6.16605 9.98828,7.47071 3.31142,1.50814 9.13804,2.65403 13.41601,2.67187 6.42165,0.0267 11.61672,-1.1843 15.86133,-3.90625 4.24462,-2.72195 7.49885,-6.92973 10.12891,-12.76172 1.20106,-2.66326 1.86469,-5.76948 2.27148,-16.04492 0.4068,-10.27544 0.57195,-27.81286 0.77149,-59.5293 z" id="path4651" inkscape:connector-curvature="0" transform="matrix(0.26458333,0,0,0.26458333,-49.341691,-9.4257626)" class="CsxSDJFf_19"></path>
    <path style="color: rgb(0, 0, 0); font: medium sans-serif; font-feature-settings: normal; text-indent: 0px; text-align: start; text-decoration: none solid rgb(0, 0, 0); letter-spacing: normal; word-spacing: normal; text-transform: none; writing-mode: lr-tb; direction: ltr; text-orientation: mixed; dominant-baseline: auto; baseline-shift: baseline; text-anchor: start; white-space: normal; clip-rule: nonzero; display: inline; overflow: visible; visibility: visible; opacity: 1; isolation: auto; mix-blend-mode: normal; color-interpolation: sRGB; color-interpolation-filters: linearRGB; vector-effect: none; fill-opacity: 0; fill-rule: nonzero; stroke: rgb(0, 0, 0); stroke-width: 3.175; stroke-linecap: round; stroke-linejoin: round; stroke-miterlimit: 4; stroke-opacity: 1; paint-order: markers; color-rendering: auto; image-rendering: auto; shape-rendering: auto; text-rendering: auto; fill: rgb(0, 0, 0);" d="m 68.333984,74.236328 -22.476562,0.107422 -2.560547,1.212891 c -4.610358,2.183953 -7.821235,6.390243 -8.626953,11.310547 -0.06927,0.42305 -0.120618,1.367394 -0.167969,2.740234 -0.04735,1.37284 -0.08664,3.163601 -0.117187,5.232422 -0.06109,4.137642 -0.08846,9.386756 -0.08398,14.626956 0.0045,5.24019 0.04125,10.4701 0.109375,14.5664 0.03406,2.04815 0.07532,3.81239 0.125,5.1543 0.04968,1.34191 0.101935,2.24586 0.173828,2.63477 1.164865,6.30133 6.344163,11.36204 12.605469,12.31445 0.307299,0.0467 1.144643,0.0794 2.46875,0.11133 1.324107,0.032 3.11156,0.059 5.236328,0.0801 4.249537,0.0422 9.846285,0.0595 15.763672,0.043 10.55663,-0.0295 15.942601,-0.0485 18.964844,-0.16015 3.022243,-0.11165 3.71156,-0.32549 4.775391,-0.72656 2.962324,-1.11682 5.579102,-3.11023 7.224612,-5.51368 1.38765,-2.02693 2.08631,-2.81059 2.42187,-6.08398 0.33556,-3.27339 0.33463,-9.05897 0.40039,-21.2461 0.0415,-7.6884 0.0408,-13.329317 -0.01,-17.246089 -0.0505,-3.916772 -0.14468,-6.087325 -0.30469,-6.923828 -1.14301,-5.975417 -5.735126,-10.683968 -11.66211,-11.955078 -0.329917,-0.07075 -1.075344,-0.117504 -2.285156,-0.160156 -1.209812,-0.04265 -2.863731,-0.07422 -4.927735,-0.09766 -4.128006,-0.04687 -9.899545,-0.05577 -17.046875,-0.02148 z m 0.002,0.375 c 7.14609,-0.03428 12.916497,-0.0273 17.041015,0.01953 2.062259,0.02341 3.713325,0.05714 4.917969,0.09961 1.204644,0.04247 1.98236,0.09928 2.220703,0.15039 5.780556,1.239707 10.257955,5.830728 11.373045,11.660157 0.14165,0.740493 0.24641,2.947083 0.29688,6.859375 0.0505,3.912291 0.0532,9.550939 0.0117,17.238279 -0.0658,12.18773 -0.0694,17.9803 -0.40039,21.20899 -0.33098,3.22869 -0.96142,3.87101 -2.35743,5.91015 -1.595407,2.33028 -4.154296,4.28643 -7.046872,5.37696 -1.05658,0.39834 -1.650846,0.59202 -4.658203,0.70312 -3.007357,0.1111 -8.396585,0.12874 -18.953125,0.1582 -5.915973,0.0165 -11.510483,-8e-4 -15.757812,-0.043 -2.123665,-0.0211 -3.911333,-0.0482 -5.232422,-0.0801 -1.32109,-0.0319 -2.198002,-0.0737 -2.419922,-0.10743 -6.096551,-0.92734 -11.157668,-5.8703 -12.292969,-12.01171 -0.05791,-0.31327 -0.120406,-1.24252 -0.169922,-2.58008 -0.04952,-1.33756 -0.09096,-3.09986 -0.125,-5.14649 -0.06808,-4.09324 -0.104896,-9.32188 -0.109375,-14.56054 -0.0045,-5.23866 0.02294,-10.488404 0.08398,-14.62305 0.03052,-2.067323 0.06998,-3.855926 0.117188,-5.224609 0.04721,-1.368684 0.104806,-2.329539 0.164062,-2.691407 0.785612,-4.797514 3.914833,-8.90004 8.417969,-11.033203 l 2.484375,-1.175781 z m 6.419921,10.396484 -0.117187,18.615238 c -0.05279,8.39123 -0.096,13.03238 -0.203125,15.73828 -0.107123,2.7059 -0.27353,3.4517 -0.568359,4.10547 -0.676131,1.49928 -1.492032,2.54216 -2.541016,3.21484 -1.048985,0.67268 -2.340768,0.98148 -3.992188,0.97461 -1.063773,-0.005 -2.610065,-0.31566 -3.396484,-0.67383 -0.672493,-0.30628 -1.678525,-1.08235 -2.539062,-1.90625 -0.430269,-0.41195 -0.826976,-0.83625 -1.134766,-1.21875 -0.30779,-0.3825 -0.52461,-0.73007 -0.597656,-0.94922 -0.02528,-0.0758 -0.07866,-0.15055 -0.150391,-0.19726 -0.07173,-0.0467 -0.153861,-0.0639 -0.234375,-0.0645 -0.161028,-0.001 -0.3291,0.0547 -0.541016,0.1504 -0.423831,0.19141 -1.014736,0.56224 -1.828125,1.13281 l -2.453125,1.7207 1.212891,1.76172 c 3.976468,5.7796 12.193634,7.82995 18.546875,4.63086 2.711253,-1.3652 4.627487,-3.51982 5.908203,-6.63281 0.352565,-0.85696 0.545565,-1.62372 0.658203,-4.40235 0.112639,-2.77863 0.151723,-7.59753 0.205078,-16.63476 l 0.115235,-19.365238 h -3.175781 z m 0.373047,0.375 h 2.800782 2.796874 l -0.111328,18.988278 c -0.05335,9.03695 -0.09106,13.85652 -0.203125,16.6211 -0.112069,2.76458 -0.290997,3.44456 -0.632812,4.27539 -1.254104,3.04831 -3.094689,5.11519 -5.728516,6.4414 -6.179739,3.11173 -14.20718,1.10707 -18.070312,-4.50781 l -1.003907,-1.45703 2.150391,-1.50781 c 0.805661,-0.56515 1.391489,-0.9278 1.767578,-1.09766 0.188045,-0.0849 0.325041,-0.11757 0.384766,-0.11719 0.02986,2e-4 0.03616,0.006 0.0332,0.004 0,0 -0.002,0.002 -0.002,0.002 0.102723,0.30818 0.340712,0.66504 0.662109,1.06446 0.321397,0.39941 0.726051,0.83462 1.166016,1.25586 0.87993,0.84246 1.884641,1.63137 2.642578,1.97656 0.876201,0.39905 2.419015,0.70188 3.550781,0.70703 1.69906,0.007 3.072257,-0.31302 4.195313,-1.0332 1.123055,-0.72019 1.985771,-1.83391 2.68164,-3.37696 0.317781,-0.70465 0.49198,-1.52737 0.59961,-4.24609 0.10763,-2.71872 0.152286,-7.35832 0.205078,-15.75 z" id="path4945" inkscape:connector-curvature="0" class="CsxSDJFf_20"></path>
    <path style="color: rgb(0, 0, 0); font: medium sans-serif; font-feature-settings: normal; text-indent: 0px; text-align: start; text-decoration: none solid rgb(0, 0, 0); letter-spacing: normal; word-spacing: normal; text-transform: none; writing-mode: lr-tb; direction: ltr; text-orientation: mixed; dominant-baseline: auto; baseline-shift: baseline; text-anchor: start; white-space: normal; clip-rule: nonzero; display: inline; overflow: visible; visibility: visible; opacity: 1; isolation: auto; mix-blend-mode: normal; color-interpolation: sRGB; color-interpolation-filters: linearRGB; vector-effect: none; fill-opacity: 0; fill-rule: nonzero; stroke: rgb(0, 0, 0); stroke-width: 3.175; stroke-linecap: round; stroke-linejoin: round; stroke-miterlimit: 4; stroke-opacity: 1; paint-order: markers; color-rendering: auto; image-rendering: auto; shape-rendering: auto; text-rendering: auto; fill: rgb(0, 0, 0);" d="m 68.333984,74.236328 -22.476562,0.107422 -2.560547,1.212891 c -4.610358,2.183953 -7.821235,6.390243 -8.626953,11.310547 -0.06927,0.42305 -0.120618,1.367394 -0.167969,2.740234 -0.04735,1.37284 -0.08664,3.163601 -0.117187,5.232422 -0.06109,4.137642 -0.08846,9.386756 -0.08398,14.626956 0.0045,5.24019 0.04125,10.4701 0.109375,14.5664 0.03406,2.04815 0.07532,3.81239 0.125,5.1543 0.04968,1.34191 0.101935,2.24586 0.173828,2.63477 1.164865,6.30133 6.344163,11.36204 12.605469,12.31445 0.307299,0.0467 1.144643,0.0794 2.46875,0.11133 1.324107,0.032 3.11156,0.059 5.236328,0.0801 4.249537,0.0422 9.846285,0.0595 15.763672,0.043 10.55663,-0.0295 15.942601,-0.0485 18.964844,-0.16015 3.022243,-0.11165 3.71156,-0.32549 4.775391,-0.72656 2.962324,-1.11682 5.579102,-3.11023 7.224612,-5.51368 1.38765,-2.02693 2.08631,-2.81059 2.42187,-6.08398 0.33556,-3.27339 0.33463,-9.05897 0.40039,-21.2461 0.0415,-7.6884 0.0408,-13.329317 -0.01,-17.246089 -0.0505,-3.916772 -0.14468,-6.087325 -0.30469,-6.923828 -1.14301,-5.975417 -5.735126,-10.683968 -11.66211,-11.955078 -0.329917,-0.07075 -1.075344,-0.117504 -2.285156,-0.160156 -1.209812,-0.04265 -2.863731,-0.07422 -4.927735,-0.09766 -4.128006,-0.04687 -9.899545,-0.05577 -17.046875,-0.02148 z m 0.002,0.375 c 7.14609,-0.03428 12.916497,-0.0273 17.041015,0.01953 2.062259,0.02341 3.713325,0.05714 4.917969,0.09961 1.204644,0.04247 1.98236,0.09928 2.220703,0.15039 5.780556,1.239707 10.257955,5.830728 11.373045,11.660157 0.14165,0.740493 0.24641,2.947083 0.29688,6.859375 0.0505,3.912291 0.0532,9.550939 0.0117,17.238279 -0.0658,12.18773 -0.0694,17.9803 -0.40039,21.20899 -0.33098,3.22869 -0.96142,3.87101 -2.35743,5.91015 -1.595407,2.33028 -4.154296,4.28643 -7.046872,5.37696 -1.05658,0.39834 -1.650846,0.59202 -4.658203,0.70312 -3.007357,0.1111 -8.396585,0.12874 -18.953125,0.1582 -5.915973,0.0165 -11.510483,-8e-4 -15.757812,-0.043 -2.123665,-0.0211 -3.911333,-0.0482 -5.232422,-0.0801 -1.32109,-0.0319 -2.198002,-0.0737 -2.419922,-0.10743 -6.096551,-0.92734 -11.157668,-5.8703 -12.292969,-12.01171 -0.05791,-0.31327 -0.120406,-1.24252 -0.169922,-2.58008 -0.04952,-1.33756 -0.09096,-3.09986 -0.125,-5.14649 -0.06808,-4.09324 -0.104896,-9.32188 -0.109375,-14.56054 -0.0045,-5.23866 0.02294,-10.488404 0.08398,-14.62305 0.03052,-2.067323 0.06998,-3.855926 0.117188,-5.224609 0.04721,-1.368684 0.104806,-2.329539 0.164062,-2.691407 0.785612,-4.797514 3.914833,-8.90004 8.417969,-11.033203 l 2.484375,-1.175781 z m 6.419921,10.396484 -0.117187,18.615238 c -0.05279,8.39123 -0.096,13.03238 -0.203125,15.73828 -0.107123,2.7059 -0.27353,3.4517 -0.568359,4.10547 -0.676131,1.49928 -1.492032,2.54216 -2.541016,3.21484 -1.048985,0.67268 -2.340768,0.98148 -3.992188,0.97461 -1.063773,-0.005 -2.610065,-0.31566 -3.396484,-0.67383 -0.672493,-0.30628 -1.678525,-1.08235 -2.539062,-1.90625 -0.430269,-0.41195 -0.826976,-0.83625 -1.134766,-1.21875 -0.30779,-0.3825 -0.52461,-0.73007 -0.597656,-0.94922 -0.02528,-0.0758 -0.07866,-0.15055 -0.150391,-0.19726 -0.07173,-0.0467 -0.153861,-0.0639 -0.234375,-0.0645 -0.161028,-0.001 -0.3291,0.0547 -0.541016,0.1504 -0.423831,0.19141 -1.014736,0.56224 -1.828125,1.13281 l -2.453125,1.7207 1.212891,1.76172 c 3.976468,5.7796 12.193634,7.82995 18.546875,4.63086 2.711253,-1.3652 4.627487,-3.51982 5.908203,-6.63281 0.352565,-0.85696 0.545565,-1.62372 0.658203,-4.40235 0.112639,-2.77863 0.151723,-7.59753 0.205078,-16.63476 l 0.115235,-19.365238 h -3.175781 z m 0.373047,0.375 h 2.800782 2.796874 l -0.111328,18.988278 c -0.05335,9.03695 -0.09106,13.85652 -0.203125,16.6211 -0.112069,2.76458 -0.290997,3.44456 -0.632812,4.27539 -1.254104,3.04831 -3.094689,5.11519 -5.728516,6.4414 -6.179739,3.11173 -14.20718,1.10707 -18.070312,-4.50781 l -1.003907,-1.45703 2.150391,-1.50781 c 0.805661,-0.56515 1.391489,-0.9278 1.767578,-1.09766 0.188045,-0.0849 0.325041,-0.11757 0.384766,-0.11719 0.02986,2e-4 0.03616,0.006 0.0332,0.004 0,0 -0.002,0.002 -0.002,0.002 0.102723,0.30818 0.340712,0.66504 0.662109,1.06446 0.321397,0.39941 0.726051,0.83462 1.166016,1.25586 0.87993,0.84246 1.884641,1.63137 2.642578,1.97656 0.876201,0.39905 2.419015,0.70188 3.550781,0.70703 1.69906,0.007 3.072257,-0.31302 4.195313,-1.0332 1.123055,-0.72019 1.985771,-1.83391 2.68164,-3.37696 0.317781,-0.70465 0.49198,-1.52737 0.59961,-4.24609 0.10763,-2.71872 0.152286,-7.35832 0.205078,-15.75 z" id="path4947" inkscape:connector-curvature="0" class="CsxSDJFf_21"></path>
    <path style="color: rgb(0, 0, 0); font: medium sans-serif; font-feature-settings: normal; text-indent: 0px; text-align: start; text-decoration: none solid rgb(0, 0, 0); letter-spacing: normal; word-spacing: normal; text-transform: none; writing-mode: lr-tb; direction: ltr; text-orientation: mixed; dominant-baseline: auto; baseline-shift: baseline; text-anchor: start; white-space: normal; clip-rule: nonzero; display: inline; overflow: visible; visibility: visible; opacity: 1; isolation: auto; mix-blend-mode: normal; color-interpolation: sRGB; color-interpolation-filters: linearRGB; vector-effect: none; fill-opacity: 0; fill-rule: nonzero; stroke: rgb(0, 0, 0); stroke-width: 3.175; stroke-linecap: round; stroke-linejoin: round; stroke-miterlimit: 4; stroke-opacity: 1; paint-order: markers; color-rendering: auto; image-rendering: auto; shape-rendering: auto; text-rendering: auto; fill: rgb(0, 0, 0);" d="m 68.333984,74.236328 -22.476562,0.107422 -2.560547,1.212891 c -4.610358,2.183953 -7.821235,6.390243 -8.626953,11.310547 -0.06927,0.42305 -0.120618,1.367394 -0.167969,2.740234 -0.04735,1.37284 -0.08664,3.163601 -0.117187,5.232422 -0.06109,4.137642 -0.08846,9.386756 -0.08398,14.626956 0.0045,5.24019 0.04125,10.4701 0.109375,14.5664 0.03406,2.04815 0.07532,3.81239 0.125,5.1543 0.04968,1.34191 0.101935,2.24586 0.173828,2.63477 1.164865,6.30133 6.344163,11.36204 12.605469,12.31445 0.307299,0.0467 1.144643,0.0794 2.46875,0.11133 1.324107,0.032 3.11156,0.059 5.236328,0.0801 4.249537,0.0422 9.846285,0.0595 15.763672,0.043 10.55663,-0.0295 15.942601,-0.0485 18.964844,-0.16015 3.022243,-0.11165 3.71156,-0.32549 4.775391,-0.72656 2.962324,-1.11682 5.579102,-3.11023 7.224612,-5.51368 1.38765,-2.02693 2.08631,-2.81059 2.42187,-6.08398 0.33556,-3.27339 0.33463,-9.05897 0.40039,-21.2461 0.0415,-7.6884 0.0408,-13.329317 -0.01,-17.246089 -0.0505,-3.916772 -0.14468,-6.087325 -0.30469,-6.923828 -1.14301,-5.975417 -5.735126,-10.683968 -11.66211,-11.955078 -0.329917,-0.07075 -1.075344,-0.117504 -2.285156,-0.160156 -1.209812,-0.04265 -2.863731,-0.07422 -4.927735,-0.09766 -4.128006,-0.04687 -9.899545,-0.05577 -17.046875,-0.02148 z m 0.002,0.375 c 7.14609,-0.03428 12.916497,-0.0273 17.041015,0.01953 2.062259,0.02341 3.713325,0.05714 4.917969,0.09961 1.204644,0.04247 1.98236,0.09928 2.220703,0.15039 5.780556,1.239707 10.257955,5.830728 11.373045,11.660157 0.14165,0.740493 0.24641,2.947083 0.29688,6.859375 0.0505,3.912291 0.0532,9.550939 0.0117,17.238279 -0.0658,12.18773 -0.0694,17.9803 -0.40039,21.20899 -0.33098,3.22869 -0.96142,3.87101 -2.35743,5.91015 -1.595407,2.33028 -4.154296,4.28643 -7.046872,5.37696 -1.05658,0.39834 -1.650846,0.59202 -4.658203,0.70312 -3.007357,0.1111 -8.396585,0.12874 -18.953125,0.1582 -5.915973,0.0165 -11.510483,-8e-4 -15.757812,-0.043 -2.123665,-0.0211 -3.911333,-0.0482 -5.232422,-0.0801 -1.32109,-0.0319 -2.198002,-0.0737 -2.419922,-0.10743 -6.096551,-0.92734 -11.157668,-5.8703 -12.292969,-12.01171 -0.05791,-0.31327 -0.120406,-1.24252 -0.169922,-2.58008 -0.04952,-1.33756 -0.09096,-3.09986 -0.125,-5.14649 -0.06808,-4.09324 -0.104896,-9.32188 -0.109375,-14.56054 -0.0045,-5.23866 0.02294,-10.488404 0.08398,-14.62305 0.03052,-2.067323 0.06998,-3.855926 0.117188,-5.224609 0.04721,-1.368684 0.104806,-2.329539 0.164062,-2.691407 0.785612,-4.797514 3.914833,-8.90004 8.417969,-11.033203 l 2.484375,-1.175781 z m 6.419921,10.396484 -0.117187,18.615238 c -0.05279,8.39123 -0.096,13.03238 -0.203125,15.73828 -0.107123,2.7059 -0.27353,3.4517 -0.568359,4.10547 -0.676131,1.49928 -1.492032,2.54216 -2.541016,3.21484 -1.048985,0.67268 -2.340768,0.98148 -3.992188,0.97461 -1.063773,-0.005 -2.610065,-0.31566 -3.396484,-0.67383 -0.672493,-0.30628 -1.678525,-1.08235 -2.539062,-1.90625 -0.430269,-0.41195 -0.826976,-0.83625 -1.134766,-1.21875 -0.30779,-0.3825 -0.52461,-0.73007 -0.597656,-0.94922 -0.02528,-0.0758 -0.07866,-0.15055 -0.150391,-0.19726 -0.07173,-0.0467 -0.153861,-0.0639 -0.234375,-0.0645 -0.161028,-0.001 -0.3291,0.0547 -0.541016,0.1504 -0.423831,0.19141 -1.014736,0.56224 -1.828125,1.13281 l -2.453125,1.7207 1.212891,1.76172 c 3.976468,5.7796 12.193634,7.82995 18.546875,4.63086 2.711253,-1.3652 4.627487,-3.51982 5.908203,-6.63281 0.352565,-0.85696 0.545565,-1.62372 0.658203,-4.40235 0.112639,-2.77863 0.151723,-7.59753 0.205078,-16.63476 l 0.115235,-19.365238 h -3.175781 z m 0.373047,0.375 h 2.800782 2.796874 l -0.111328,18.988278 c -0.05335,9.03695 -0.09106,13.85652 -0.203125,16.6211 -0.112069,2.76458 -0.290997,3.44456 -0.632812,4.27539 -1.254104,3.04831 -3.094689,5.11519 -5.728516,6.4414 -6.179739,3.11173 -14.20718,1.10707 -18.070312,-4.50781 l -1.003907,-1.45703 2.150391,-1.50781 c 0.805661,-0.56515 1.391489,-0.9278 1.767578,-1.09766 0.188045,-0.0849 0.325041,-0.11757 0.384766,-0.11719 0.02986,2e-4 0.03616,0.006 0.0332,0.004 0,0 -0.002,0.002 -0.002,0.002 0.102723,0.30818 0.340712,0.66504 0.662109,1.06446 0.321397,0.39941 0.726051,0.83462 1.166016,1.25586 0.87993,0.84246 1.884641,1.63137 2.642578,1.97656 0.876201,0.39905 2.419015,0.70188 3.550781,0.70703 1.69906,0.007 3.072257,-0.31302 4.195313,-1.0332 1.123055,-0.72019 1.985771,-1.83391 2.68164,-3.37696 0.317781,-0.70465 0.49198,-1.52737 0.59961,-4.24609 0.10763,-2.71872 0.152286,-7.35832 0.205078,-15.75 z" id="path4949" inkscape:connector-curvature="0" class="CsxSDJFf_22"></path>
    <path style="color: rgb(0, 0, 0); font: medium sans-serif; font-feature-settings: normal; text-indent: 0px; text-align: start; text-decoration: none solid rgb(0, 0, 0); letter-spacing: normal; word-spacing: normal; text-transform: none; writing-mode: lr-tb; direction: ltr; text-orientation: mixed; dominant-baseline: auto; baseline-shift: baseline; text-anchor: start; white-space: normal; clip-rule: nonzero; display: inline; overflow: visible; visibility: visible; opacity: 1; isolation: auto; mix-blend-mode: normal; color-interpolation: sRGB; color-interpolation-filters: linearRGB; vector-effect: none; fill-opacity: 0; fill-rule: nonzero; stroke: rgb(0, 0, 0); stroke-width: 3.175; stroke-linecap: round; stroke-linejoin: round; stroke-miterlimit: 4; stroke-opacity: 1; paint-order: markers; color-rendering: auto; image-rendering: auto; shape-rendering: auto; text-rendering: auto; fill: rgb(0, 0, 0);" d="m 68.333984,74.236328 -22.476562,0.107422 -2.560547,1.212891 c -4.610358,2.183953 -7.821235,6.390243 -8.626953,11.310547 -0.06927,0.42305 -0.120618,1.367394 -0.167969,2.740234 -0.04735,1.37284 -0.08664,3.163601 -0.117187,5.232422 -0.06109,4.137642 -0.08846,9.386756 -0.08398,14.626956 0.0045,5.24019 0.04125,10.4701 0.109375,14.5664 0.03406,2.04815 0.07532,3.81239 0.125,5.1543 0.04968,1.34191 0.101935,2.24586 0.173828,2.63477 1.164865,6.30133 6.344163,11.36204 12.605469,12.31445 0.307299,0.0467 1.144643,0.0794 2.46875,0.11133 1.324107,0.032 3.11156,0.059 5.236328,0.0801 4.249537,0.0422 9.846285,0.0595 15.763672,0.043 10.55663,-0.0295 15.942601,-0.0485 18.964844,-0.16015 3.022243,-0.11165 3.71156,-0.32549 4.775391,-0.72656 2.962324,-1.11682 5.579102,-3.11023 7.224612,-5.51368 1.38765,-2.02693 2.08631,-2.81059 2.42187,-6.08398 0.33556,-3.27339 0.33463,-9.05897 0.40039,-21.2461 0.0415,-7.6884 0.0408,-13.329317 -0.01,-17.246089 -0.0505,-3.916772 -0.14468,-6.087325 -0.30469,-6.923828 -1.14301,-5.975417 -5.735126,-10.683968 -11.66211,-11.955078 -0.329917,-0.07075 -1.075344,-0.117504 -2.285156,-0.160156 -1.209812,-0.04265 -2.863731,-0.07422 -4.927735,-0.09766 -4.128006,-0.04687 -9.899545,-0.05577 -17.046875,-0.02148 z m 0.002,0.375 c 7.14609,-0.03428 12.916497,-0.0273 17.041015,0.01953 2.062259,0.02341 3.713325,0.05714 4.917969,0.09961 1.204644,0.04247 1.98236,0.09928 2.220703,0.15039 5.780556,1.239707 10.257955,5.830728 11.373045,11.660157 0.14165,0.740493 0.24641,2.947083 0.29688,6.859375 0.0505,3.912291 0.0532,9.550939 0.0117,17.238279 -0.0658,12.18773 -0.0694,17.9803 -0.40039,21.20899 -0.33098,3.22869 -0.96142,3.87101 -2.35743,5.91015 -1.595407,2.33028 -4.154296,4.28643 -7.046872,5.37696 -1.05658,0.39834 -1.650846,0.59202 -4.658203,0.70312 -3.007357,0.1111 -8.396585,0.12874 -18.953125,0.1582 -5.915973,0.0165 -11.510483,-8e-4 -15.757812,-0.043 -2.123665,-0.0211 -3.911333,-0.0482 -5.232422,-0.0801 -1.32109,-0.0319 -2.198002,-0.0737 -2.419922,-0.10743 -6.096551,-0.92734 -11.157668,-5.8703 -12.292969,-12.01171 -0.05791,-0.31327 -0.120406,-1.24252 -0.169922,-2.58008 -0.04952,-1.33756 -0.09096,-3.09986 -0.125,-5.14649 -0.06808,-4.09324 -0.104896,-9.32188 -0.109375,-14.56054 -0.0045,-5.23866 0.02294,-10.488404 0.08398,-14.62305 0.03052,-2.067323 0.06998,-3.855926 0.117188,-5.224609 0.04721,-1.368684 0.104806,-2.329539 0.164062,-2.691407 0.785612,-4.797514 3.914833,-8.90004 8.417969,-11.033203 l 2.484375,-1.175781 z m 6.419921,10.396484 -0.117187,18.615238 c -0.05279,8.39123 -0.096,13.03238 -0.203125,15.73828 -0.107123,2.7059 -0.27353,3.4517 -0.568359,4.10547 -0.676131,1.49928 -1.492032,2.54216 -2.541016,3.21484 -1.048985,0.67268 -2.340768,0.98148 -3.992188,0.97461 -1.063773,-0.005 -2.610065,-0.31566 -3.396484,-0.67383 -0.672493,-0.30628 -1.678525,-1.08235 -2.539062,-1.90625 -0.430269,-0.41195 -0.826976,-0.83625 -1.134766,-1.21875 -0.30779,-0.3825 -0.52461,-0.73007 -0.597656,-0.94922 -0.02528,-0.0758 -0.07866,-0.15055 -0.150391,-0.19726 -0.07173,-0.0467 -0.153861,-0.0639 -0.234375,-0.0645 -0.161028,-0.001 -0.3291,0.0547 -0.541016,0.1504 -0.423831,0.19141 -1.014736,0.56224 -1.828125,1.13281 l -2.453125,1.7207 1.212891,1.76172 c 3.976468,5.7796 12.193634,7.82995 18.546875,4.63086 2.711253,-1.3652 4.627487,-3.51982 5.908203,-6.63281 0.352565,-0.85696 0.545565,-1.62372 0.658203,-4.40235 0.112639,-2.77863 0.151723,-7.59753 0.205078,-16.63476 l 0.115235,-19.365238 h -3.175781 z m 0.373047,0.375 h 2.800782 2.796874 l -0.111328,18.988278 c -0.05335,9.03695 -0.09106,13.85652 -0.203125,16.6211 -0.112069,2.76458 -0.290997,3.44456 -0.632812,4.27539 -1.254104,3.04831 -3.094689,5.11519 -5.728516,6.4414 -6.179739,3.11173 -14.20718,1.10707 -18.070312,-4.50781 l -1.003907,-1.45703 2.150391,-1.50781 c 0.805661,-0.56515 1.391489,-0.9278 1.767578,-1.09766 0.188045,-0.0849 0.325041,-0.11757 0.384766,-0.11719 0.02986,2e-4 0.03616,0.006 0.0332,0.004 0,0 -0.002,0.002 -0.002,0.002 0.102723,0.30818 0.340712,0.66504 0.662109,1.06446 0.321397,0.39941 0.726051,0.83462 1.166016,1.25586 0.87993,0.84246 1.884641,1.63137 2.642578,1.97656 0.876201,0.39905 2.419015,0.70188 3.550781,0.70703 1.69906,0.007 3.072257,-0.31302 4.195313,-1.0332 1.123055,-0.72019 1.985771,-1.83391 2.68164,-3.37696 0.317781,-0.70465 0.49198,-1.52737 0.59961,-4.24609 0.10763,-2.71872 0.152286,-7.35832 0.205078,-15.75 z" id="path4951" inkscape:connector-curvature="0" class="CsxSDJFf_23"></path>
    <path style="color: rgb(0, 0, 0); font: medium sans-serif; font-feature-settings: normal; text-indent: 0px; text-align: start; text-decoration: none solid rgb(0, 0, 0); letter-spacing: normal; word-spacing: normal; text-transform: none; writing-mode: lr-tb; direction: ltr; text-orientation: mixed; dominant-baseline: auto; baseline-shift: baseline; text-anchor: start; white-space: normal; clip-rule: nonzero; display: inline; overflow: visible; visibility: visible; opacity: 1; isolation: auto; mix-blend-mode: normal; color-interpolation: sRGB; color-interpolation-filters: linearRGB; vector-effect: none; fill-opacity: 0; fill-rule: nonzero; stroke: rgb(0, 0, 0); stroke-width: 3.175; stroke-linecap: round; stroke-linejoin: round; stroke-miterlimit: 4; stroke-opacity: 1; paint-order: markers; color-rendering: auto; image-rendering: auto; shape-rendering: auto; text-rendering: auto; fill: rgb(0, 0, 0);" d="m 143.49414,74.236328 -22.42187,0.107422 -2.19727,0.886719 c -3.08933,1.246923 -6.36429,4.375338 -7.9375,7.570312 l -1.24023,2.521485 -0.10547,23.023434 c -0.0581,12.76336 -0.0935,19.08693 0.19922,22.71485 0.29267,3.62792 0.93807,4.58923 2.17773,6.48047 2.31338,3.52933 5.957,5.84898 10.15625,6.50976 v 0.0176 l 0.16016,0.0234 c 0.4005,0.0586 1.31493,0.10448 2.65429,0.14648 1.33936,0.042 3.09149,0.0783 5.11914,0.10742 4.05531,0.0583 9.21351,0.0904 14.3711,0.0957 5.15758,0.005 10.31452,-0.0165 14.36914,-0.0664 2.02731,-0.025 3.77834,-0.0565 5.11719,-0.0957 1.33884,-0.0393 2.25435,-0.0828 2.65429,-0.14063 5.05995,-0.73137 9.32544,-3.89807 11.65821,-8.64844 l 1.06445,-2.16992 V 109.33008 85.339844 l -1.17578,-2.470703 c -1.97786,-4.154422 -5.43936,-7.004673 -9.88867,-8.144532 -2.03605,-0.521607 -5.34563,-0.581403 -24.73438,-0.488281 z m 0.002,0.375 c 19.38772,-0.09312 22.69174,-0.02417 24.63868,0.47461 4.34952,1.114294 7.71078,3.883553 9.64453,7.945312 l 1.14062,2.392578 v 23.906252 23.9043 l -1.02734,2.08984 c -2.28231,4.64761 -6.4387,7.72957 -11.37696,8.44336 -0.34327,0.0496 -1.27413,0.0976 -2.60937,0.13672 -1.33524,0.0391 -3.08531,0.0727 -5.11133,0.0976 -4.05204,0.0499 -9.20896,0.0717 -14.36523,0.0664 -5.15628,-0.005 -10.3125,-0.0375 -14.36524,-0.0957 -2.02637,-0.0291 -3.77751,-0.0655 -5.11328,-0.10743 -1.33576,-0.0419 -2.26723,-0.0922 -2.61133,-0.14257 -4.1671,-0.60975 -7.77252,-2.89905 -10.05859,-6.38672 -1.24124,-1.89366 -1.82752,-2.714 -2.11719,-6.30469 -0.28967,-3.59069 -0.25734,-9.9221 -0.19922,-22.68555 l 0.10547,-22.935544 1.20313,-2.445312 c 1.52449,-3.096024 4.76863,-6.187314 7.74023,-7.386719 l 2.13086,-0.859375 z m -16.83007,10.396484 0.14648,16.933598 c 0.0793,9.09746 0.13166,13.77954 0.44336,16.77539 0.31169,2.99585 0.89282,4.31114 1.99805,6.59179 1.20532,2.4872 3.88295,5.28215 6.20507,6.4668 1.71393,0.87438 5.83897,1.7821 8.28321,1.83984 0.75519,0.0178 2.42794,-0.14666 3.77539,-0.36328 6.37805,-1.02532 10.46705,-4.79272 12.72265,-11.70312 0.60875,-1.86497 0.69542,-4.01343 0.81641,-19.23242 l 0.13867,-17.308598 h -3.18945 -3.18359 l -0.125,16.929688 c -0.10839,14.71552 -0.20599,16.96408 -0.76563,18.63477 -0.8878,2.65027 -2.68828,4.86447 -4.83789,5.9707 -1.57603,0.81105 -2.26532,0.93392 -5.15039,0.93164 -2.74495,-0.002 -3.59685,-0.1433 -4.82227,-0.79688 -2.024,-1.0795 -3.56469,-2.91319 -4.61132,-5.50781 -0.43574,-1.0802 -0.64307,-1.61335 -0.76758,-4.01367 -0.12452,-2.40032 -0.15384,-6.6395 -0.20899,-15.03125 l -0.11328,-17.117188 h -3.375 z m 0.37695,0.375 h 3.00195 3.00391 l 0.10937,16.746098 c 0.0551,8.3918 0.0854,12.62696 0.21094,15.04687 0.12553,2.41991 0.3581,3.05186 0.79492,4.13477 1.07155,2.6564 2.6714,4.57197 4.78125,5.69726 1.27114,0.67797 2.23938,0.83979 4.99805,0.8418 2.89697,0.002 3.71662,-0.14932 5.32031,-0.97461 2.25403,-1.15997 4.10532,-3.44865 5.02149,-6.18359 0.58729,-1.75324 0.67676,-4.03317 0.78515,-18.75 l 0.12305,-16.558598 h 2.8125 2.81055 l -0.13282,16.929688 c -0.12098,15.2178 -0.21321,17.32506 -0.79882,19.11914 -2.22702,6.8228 -6.16357,10.44447 -12.42579,11.45117 -1.32793,0.21348 -3.02359,0.3736 -3.70898,0.35742 -2.3589,-0.0557 -6.53506,-0.98969 -8.12109,-1.79882 -2.21144,-1.12819 -4.8796,-3.90639 -6.03711,-6.29493 -1.10326,-2.27658 -1.65492,-3.50863 -1.96289,-6.46875 -0.30798,-2.96011 -0.36208,-7.64312 -0.44141,-16.74023 z" id="path4953" inkscape:connector-curvature="0" class="CsxSDJFf_24"></path>
  </g>
<style data-made-with="vivus-instant">.CsxSDJFf_0{stroke-dasharray:51 53;stroke-dashoffset:52;animation:CsxSDJFf_draw 3000ms ease-in-out 0ms forwards;}.CsxSDJFf_1{stroke-dasharray:51 53;stroke-dashoffset:52;animation:CsxSDJFf_draw 3000ms ease-in-out 20ms forwards;}.CsxSDJFf_2{stroke-dasharray:51 53;stroke-dashoffset:52;animation:CsxSDJFf_draw 3000ms ease-in-out 41ms forwards;}.CsxSDJFf_3{stroke-dasharray:51 53;stroke-dashoffset:52;animation:CsxSDJFf_draw 3000ms ease-in-out 62ms forwards;}.CsxSDJFf_4{stroke-dasharray:51 53;stroke-dashoffset:52;animation:CsxSDJFf_draw 3000ms ease-in-out 83ms forwards;}.CsxSDJFf_5{stroke-dasharray:51 53;stroke-dashoffset:52;animation:CsxSDJFf_draw 3000ms ease-in-out 104ms forwards;}.CsxSDJFf_6{stroke-dasharray:51 53;stroke-dashoffset:52;animation:CsxSDJFf_draw 3000ms ease-in-out 125ms forwards;}.CsxSDJFf_7{stroke-dasharray:51 53;stroke-dashoffset:52;animation:CsxSDJFf_draw 3000ms ease-in-out 145ms forwards;}.CsxSDJFf_8{stroke-dasharray:51 53;stroke-dashoffset:52;animation:CsxSDJFf_draw 3000ms ease-in-out 166ms forwards;}.CsxSDJFf_9{stroke-dasharray:51 53;stroke-dashoffset:52;animation:CsxSDJFf_draw 3000ms ease-in-out 187ms forwards;}.CsxSDJFf_10{stroke-dasharray:1149 1151;stroke-dashoffset:1150;animation:CsxSDJFf_draw 3000ms ease-in-out 208ms forwards;}.CsxSDJFf_11{stroke-dasharray:509 511;stroke-dashoffset:510;animation:CsxSDJFf_draw 3000ms ease-in-out 229ms forwards;}.CsxSDJFf_12{stroke-dasharray:509 511;stroke-dashoffset:510;animation:CsxSDJFf_draw 3000ms ease-in-out 250ms forwards;}.CsxSDJFf_13{stroke-dasharray:509 511;stroke-dashoffset:510;animation:CsxSDJFf_draw 3000ms ease-in-out 270ms forwards;}.CsxSDJFf_14{stroke-dasharray:509 511;stroke-dashoffset:510;animation:CsxSDJFf_draw 3000ms ease-in-out 291ms forwards;}.CsxSDJFf_15{stroke-dasharray:141 143;stroke-dashoffset:142;animation:CsxSDJFf_draw 3000ms ease-in-out 312ms forwards;}.CsxSDJFf_16{stroke-dasharray:226 228;stroke-dashoffset:227;animation:CsxSDJFf_draw 3000ms ease-in-out 333ms forwards;}.CsxSDJFf_17{stroke-dasharray:247 249;stroke-dashoffset:248;animation:CsxSDJFf_draw 3000ms ease-in-out 354ms forwards;}.CsxSDJFf_18{stroke-dasharray:226 228;stroke-dashoffset:227;animation:CsxSDJFf_draw 3000ms ease-in-out 375ms forwards;}.CsxSDJFf_19{stroke-dasharray:2973 2975;stroke-dashoffset:2974;animation:CsxSDJFf_draw 3000ms ease-in-out 395ms forwards;}.CsxSDJFf_20{stroke-dasharray:787 789;stroke-dashoffset:788;animation:CsxSDJFf_draw 3000ms ease-in-out 416ms forwards;}.CsxSDJFf_21{stroke-dasharray:787 789;stroke-dashoffset:788;animation:CsxSDJFf_draw 3000ms ease-in-out 437ms forwards;}.CsxSDJFf_22{stroke-dasharray:787 789;stroke-dashoffset:788;animation:CsxSDJFf_draw 3000ms ease-in-out 458ms forwards;}.CsxSDJFf_23{stroke-dasharray:787 789;stroke-dashoffset:788;animation:CsxSDJFf_draw 3000ms ease-in-out 479ms forwards;}.CsxSDJFf_24{stroke-dasharray:959 961;stroke-dashoffset:960;animation:CsxSDJFf_draw 3000ms ease-in-out 500ms forwards;}@keyframes CsxSDJFf_draw{100%{stroke-dashoffset:0;}}@keyframes CsxSDJFf_fade{0%{stroke-opacity:1;}84.31372549019608%{stroke-opacity:1;}100%{stroke-opacity:0;}}</style></svg>
