<?xml version="1.0" encoding="iso-8859-1"?>
<!-- Generator: Adobe Illustrator 19.0.0, SVG Export Plug-In . SVG Version: 6.00 Build 0)  -->
<svg version="1.1" id="Capa_1" xmlns="http://www.w3.org/2000/svg" xmlns:xlink="http://www.w3.org/1999/xlink" x="0px" y="0px"
	 viewBox="0 0 417.303 417.303" style="enable-background:new 0 0 417.303 417.303;" xml:space="preserve">
<g>
	<g>
		<path d="M101.026,324.983c-25.493,0-46.16,20.667-46.16,46.16s20.667,46.16,46.16,46.16s46.16-20.667,46.16-46.16
			C147.142,345.668,126.501,325.027,101.026,324.983z M101.026,401.303v0.08c-16.657,0-30.16-13.503-30.16-30.16
			s13.503-30.16,30.16-30.16s30.16,13.503,30.16,30.16C131.098,387.83,117.633,401.259,101.026,401.303z"/>
	</g>
</g>
<g>
	<g>
		<path d="M208.386,324.983c-25.493,0-46.16,20.667-46.16,46.16s20.667,46.16,46.16,46.16s46.16-20.667,46.16-46.16
			C254.502,345.668,233.861,325.027,208.386,324.983z M208.386,401.303v0.08c-16.657,0-30.16-13.503-30.16-30.16
			s13.503-30.16,30.16-30.16s30.16,13.503,30.16,30.16C238.458,387.83,224.993,401.259,208.386,401.303z"/>
	</g>
</g>
<g>
	<g>
		<path d="M315.746,324.983c-25.493,0-46.16,20.667-46.16,46.16s20.667,46.16,46.16,46.16s46.16-20.667,46.16-46.16
			C361.862,345.668,341.221,325.027,315.746,324.983z M315.746,401.303v0.08c-16.657,0-30.16-13.503-30.16-30.16
			s13.503-30.16,30.16-30.16c16.657,0,30.16,13.503,30.16,30.16C345.818,387.83,332.353,401.259,315.746,401.303z"/>
	</g>
</g>
<g>
	<g>
		<path d="M167.826,129.623c-16.171,0-29.28,13.109-29.28,29.28s13.109,29.28,29.28,29.28s29.28-13.109,29.28-29.28
			S183.997,129.623,167.826,129.623z M167.906,172.183c-7.334,0-13.28-5.946-13.28-13.28c0-7.334,5.946-13.28,13.28-13.28
			s13.28,5.946,13.28,13.28C181.186,166.237,175.24,172.183,167.906,172.183z"/>
	</g>
</g>
<g>
	<g>
		<path d="M248.946,129.703c-16.171,0-29.28,13.109-29.28,29.28s13.109,29.28,29.28,29.28s29.28-13.109,29.28-29.28
			S265.117,129.703,248.946,129.703z M248.946,172.183c-7.334,0-13.28-5.946-13.28-13.28c0-7.334,5.946-13.28,13.28-13.28
			s13.28,5.946,13.28,13.28S256.28,172.183,248.946,172.183z"/>
	</g>
</g>
<g>
	<g>
		<path d="M248.946,208.183h-81.12c-4.418,0-8,3.582-8,8s3.582,8,8,8h81.12c4.418,0,8-3.582,8-8S253.364,208.183,248.946,208.183z"
			/>
	</g>
</g>
<g>
	<g>
		<path d="M408.632,92.805c-2.272-12.616-9.848-23.65-20.806-30.302l0.08,0.24c-3.47-2.734-8.5-2.138-11.235,1.332
			c-2.734,3.47-2.138,8.5,1.332,11.235c0.58,0.457,1.22,0.831,1.903,1.113c13.553,8.24,17.86,25.907,9.62,39.46
			c-8.24,13.553-25.907,17.861-39.46,9.62c-13.553-8.24-17.86-25.907-9.62-39.46c2.39-3.931,5.689-7.23,9.62-9.62
			c4.085-1.684,6.031-6.36,4.348-10.445c-1.684-4.085-6.36-6.031-10.445-4.348c-0.682,0.281-1.323,0.656-1.903,1.113
			c-21.069,12.887-27.702,40.415-14.815,61.484c6.504,10.634,17.152,18.07,29.375,20.516v37.6
			c-0.044,10.674-8.686,19.316-19.36,19.36h-16.88v-9.84c0.15-58.862-45.288-107.796-104-112v-21.92
			c15.693-4.418,24.834-20.722,20.415-36.415c-4.418-15.693-20.722-24.834-36.415-20.415s-24.834,20.722-20.415,36.415
			c2.786,9.896,10.52,17.629,20.415,20.415v22c-58.712,4.204-104.15,53.138-104,112v10h-16.8
			c-10.674-0.044-19.316-8.686-19.36-19.36v-37.84c24.307-4.377,40.464-27.631,36.086-51.938
			c-2.272-12.616-9.848-23.65-20.806-30.302c-3.47-2.734-8.5-2.138-11.235,1.332c-2.734,3.47-2.138,8.5,1.332,11.235
			c0.58,0.457,1.22,0.831,1.903,1.113c13.553,8.24,17.861,25.907,9.62,39.46c-8.24,13.553-25.907,17.86-39.46,9.62
			c-13.553-8.24-17.861-25.907-9.62-39.46c2.39-3.931,5.689-7.23,9.62-9.62c4.085-1.684,6.031-6.36,4.348-10.445
			c-1.684-4.085-6.36-6.031-10.445-4.348c-0.682,0.281-1.323,0.656-1.903,1.113C8.49,75.214,1.628,102.686,14.34,123.861
			c6.526,10.871,17.36,18.461,29.806,20.881v37.6c0.044,19.511,15.849,35.316,35.36,35.36h16.88v87.04c0,4.418,3.582,8,8,8h208
			c4.418,0,8-3.582,8-8v-86.8h16.8c19.511-0.044,35.316-15.849,35.36-35.36v-37.84C396.853,140.366,413.009,117.112,408.632,92.805z
			 M194.866,29.703c0-7.467,6.053-13.52,13.52-13.52s13.52,6.053,13.52,13.52c0,7.467-6.053,13.52-13.52,13.52
			C200.919,43.223,194.866,37.17,194.866,29.703z M304.386,296.743h-192v-104.88c0-53.196,43.124-96.32,96.32-96.32
			c53.196,0,96.32,43.124,96.32,96.32L304.386,296.743z"/>
	</g>
</g>
<g>
</g>
<g>
</g>
<g>
</g>
<g>
</g>
<g>
</g>
<g>
</g>
<g>
</g>
<g>
</g>
<g>
</g>
<g>
</g>
<g>
</g>
<g>
</g>
<g>
</g>
<g>
</g>
<g>
</g>
</svg>
