<?xml version="1.0" encoding="iso-8859-1"?>
<!-- Generator: Adobe Illustrator 19.0.0, SVG Export Plug-In . SVG Version: 6.00 Build 0)  -->
<svg version="1.1" id="Capa_1" xmlns="http://www.w3.org/2000/svg" xmlns:xlink="http://www.w3.org/1999/xlink" x="0px" y="0px"
	 viewBox="0 0 427.958 427.958" style="enable-background:new 0 0 427.958 427.958;" xml:space="preserve">
<g>
	<g>
		<path d="M380.299,0H47.659c-8.452,0-15.316,6.828-15.36,15.28v36.24c0,38.72,28.24,52.48,52.48,52.48h90.48v89.6
			c-14.336,16.956-15.864,41.305-3.76,59.92h-19.44c-8.483,0-15.36,6.877-15.36,15.36v36.64c0,8.483,6.877,15.36,15.36,15.36h41.36
			v33.36c-20.073,11.087-27.357,36.346-16.27,56.419c3.555,6.436,8.756,11.813,15.07,15.581c3.47,2.734,8.5,2.138,11.235-1.332
			c2.735-3.47,2.138-8.5-1.332-11.235c-0.58-0.457-1.22-0.831-1.903-1.113c-12.112-7.379-15.95-23.179-8.571-35.291
			c7.379-12.112,23.179-15.95,35.291-8.571c12.112,7.378,15.95,23.179,8.571,35.291c-2.132,3.5-5.071,6.439-8.571,8.571
			c-4.085,1.684-6.031,6.36-4.348,10.445c1.684,4.085,6.36,6.031,10.445,4.348c0.682-0.281,1.323-0.656,1.903-1.113
			c19.705-11.728,26.171-37.21,14.442-56.914c-3.76-6.318-9.131-11.524-15.562-15.086V320.8h41.36c8.483,0,15.36-6.877,15.36-15.36
			V268.8c-0.034-8.179-6.47-14.897-14.64-15.28h-19.44c12.064-18.597,10.537-42.899-3.76-59.84V104h90.48
			c38.72,0,52.48-28.24,52.48-52.48V15.28C395.615,6.828,388.751,0,380.299,0z M102.939,88h-18.16c-10.96,0-36.48-3.52-36.48-36.48
			V16h54.64V88z M209.419,348.56V320.8h9.04l0.08,27.76H209.419z M275.259,269.52v35.36h-122.56v-35.36h35.36
			c15.921,9.589,35.839,9.589,51.76,0L275.259,269.52z M213.979,191.52c19.087,0,34.56,15.473,34.56,34.56
			c0,19.087-15.473,34.56-34.56,34.56s-34.56-15.473-34.56-34.56C179.463,207.011,194.911,191.564,213.979,191.52z M191.259,180.96
			V60h45.44v120.96C222.424,173.693,205.534,173.693,191.259,180.96z M309.019,88h-56V52c0-4.418-3.582-8-8-8h-61.76
			c-4.418,0-8,3.582-8,8v36h-56V16h189.76V88z M379.659,51.52c0,10.96-3.52,36.48-36.48,36.48h-18.16V16h54.64V51.52z"/>
	</g>
</g>
<g>
	<g>
		<circle cx="213.979" cy="226.08" r="11.2"/>
	</g>
</g>
<g>
</g>
<g>
</g>
<g>
</g>
<g>
</g>
<g>
</g>
<g>
</g>
<g>
</g>
<g>
</g>
<g>
</g>
<g>
</g>
<g>
</g>
<g>
</g>
<g>
</g>
<g>
</g>
<g>
</g>
</svg>
