<?xml version="1.0" encoding="iso-8859-1"?>
<!-- Generator: Adobe Illustrator 19.0.0, SVG Export Plug-In . SVG Version: 6.00 Build 0)  -->
<svg version="1.1" id="Capa_1" xmlns="http://www.w3.org/2000/svg" xmlns:xlink="http://www.w3.org/1999/xlink" x="0px" y="0px"
	 viewBox="0 0 466.147 466.147" style="enable-background:new 0 0 466.147 466.147;" xml:space="preserve">
<g>
	<g>
		<path d="M189.354,59.267c-18.247,0-33.04,14.792-33.04,33.04s14.792,33.04,33.04,33.04s33.04-14.793,33.04-33.04
			S207.601,59.267,189.354,59.267z M189.354,109.347c-9.411,0-17.04-7.629-17.04-17.04s7.629-17.04,17.04-17.04
			c9.411,0,17.04,7.629,17.04,17.04C206.394,101.718,198.765,109.347,189.354,109.347z"/>
	</g>
</g>
<g>
	<g>
		<path d="M276.714,59.267c-18.247,0-33.04,14.792-33.04,33.04s14.793,33.04,33.04,33.04c18.247,0,33.04-14.793,33.04-33.04
			S294.961,59.267,276.714,59.267z M276.714,109.347c-9.411,0-17.04-7.629-17.04-17.04s7.629-17.04,17.04-17.04
			c9.411,0,17.04,7.629,17.04,17.04C293.754,101.718,286.125,109.347,276.714,109.347z"/>
	</g>
</g>
<g>
	<g>
		<path d="M415.434,94.707h-0.08h-28.96c-4.207-25.637-28.401-43.008-54.037-38.801c-0.308,0.051-0.616,0.104-0.923,0.161
			C299.207,1.722,229.028-16.208,174.683,16.018c-16.496,9.782-30.268,23.554-40.049,40.049
			c-25.548-4.717-50.082,12.169-54.799,37.717c-0.057,0.307-0.11,0.615-0.161,0.923h-28.96c-4.418,0-8,3.582-8,8s3.582,8,8,8h28.96
			c3.783,21.839,22.185,38.148,44.32,39.28c6.062,18.726,16.865,35.565,31.36,48.88l-43.6,73.04c-1.429,2.475-1.429,5.525,0,8
			l40.88,68.48h-40v-21.68c0-8.837-7.163-16-16-16h-28.88c-8.837,0-16,7.163-16,16v123.44c0,8.837,7.163,16,16,16h28.24
			c8.837,0,16-7.163,16-16v-21.84h241.68v21.84c0,8.837,7.163,16,16,16h28.24c8.837,0,16-7.163,16-16v-123.44
			c0-8.837-7.163-16-16-16h-27.84c-8.837,0-16,7.163-16,16v21.84h-40l40.88-68.48c1.429-2.475,1.429-5.525,0-8l-44.16-73.2
			c14.492-13.318,25.295-30.156,31.36-48.88c22.135-1.132,40.537-17.441,44.32-39.28h28.96c4.418,0,8-3.582,8-8
			S419.852,94.707,415.434,94.707z M96.394,364.867v85.28h-28.64v-123.84h28.64V364.867z M370.074,326.307h28.64v123.84h-28.64
			L370.074,326.307z M118.314,114.707c0.048,6.275,0.61,12.536,1.68,18.72c-16.967-3.689-27.731-20.435-24.042-37.402
			c3.114-14.32,15.708-24.59,30.362-24.758h0.56C121.207,85.048,118.299,99.807,118.314,114.707z M353.674,364.867v47.04h-240.96
			v-47.44L353.674,364.867z M338.154,275.987l-43.28,72.56h-123.68l-43.28-72.56l43.28-72.56h123.68L338.154,275.987z
			 M305.937,181.004c-2.041,2.239-4.185,4.382-6.423,6.423h-133.04c-40.286-36.738-43.161-99.178-6.423-139.463
			c36.738-40.285,99.178-43.161,139.463-6.423C339.799,78.279,342.675,140.718,305.937,181.004z M346.074,133.427
			c3.723-20.951,1.335-42.531-6.88-62.16h0.56c17.363,0.199,31.277,14.436,31.078,31.798
			C370.663,117.719,360.394,130.313,346.074,133.427z"/>
	</g>
</g>
<g>
	<g>
		<path d="M271.594,261.187c-2.441-3.65-7.369-4.65-11.04-2.24c-3.678,2.416-4.715,7.348-2.32,11.04
			c9.118,13.94,5.209,32.632-8.73,41.75c-13.94,9.118-32.632,5.209-41.75-8.73c-6.56-10.029-6.56-22.99,0-33.019
			c2.491-3.649,1.553-8.627-2.096-11.118c-3.649-2.491-8.627-1.553-11.118,2.096c-0.05,0.073-0.099,0.147-0.146,0.222
			c-13.98,21.318-8.032,49.933,13.286,63.914c21.318,13.98,49.933,8.032,63.914-13.286
			C281.674,296.444,281.674,276.558,271.594,261.187z"/>
	</g>
</g>
<g>
	<g>
		<path d="M233.034,224.547c-4.418,0-8,3.582-8,8v55.12c0,4.418,3.582,8,8,8s8-3.582,8-8v-55.12
			C241.034,228.129,237.452,224.547,233.034,224.547z"/>
	</g>
</g>
<g>
</g>
<g>
</g>
<g>
</g>
<g>
</g>
<g>
</g>
<g>
</g>
<g>
</g>
<g>
</g>
<g>
</g>
<g>
</g>
<g>
</g>
<g>
</g>
<g>
</g>
<g>
</g>
<g>
</g>
</svg>
