<?xml version="1.0" encoding="iso-8859-1"?>
<!-- Generator: Adobe Illustrator 19.0.0, SVG Export Plug-In . SVG Version: 6.00 Build 0)  -->
<svg version="1.1" id="Capa_1" xmlns="http://www.w3.org/2000/svg" xmlns:xlink="http://www.w3.org/1999/xlink" x="0px" y="0px"
	 viewBox="0 0 476.96 476.96" style="enable-background:new 0 0 476.96 476.96;" xml:space="preserve">
<g>
	<g>
		<path d="M218.16,112.8h-38.64c-4.418,0-8,3.582-8,8s3.582,8,8,8h38.64c4.418,0,8-3.582,8-8S222.578,112.8,218.16,112.8z"/>
	</g>
</g>
<g>
	<g>
		<path d="M292.16,112.8h-38.64c-4.418,0-8,3.582-8,8s3.582,8,8,8h0h38.64c4.418,0,8-3.582,8-8S296.578,112.8,292.16,112.8z"/>
	</g>
</g>
<g>
	<g>
		<path d="M235.84,144.16c-4.418,0-8,3.582-8,8v31.36c0,4.418,3.582,8,8,8s8-3.582,8-8v-31.36
			C243.84,147.742,240.258,144.16,235.84,144.16z"/>
	</g>
</g>
<g>
	<g>
		<path d="M171.84,350.48c-0.088-18.45-15.07-33.36-33.52-33.36c-18.513,0-33.52,15.008-33.52,33.52
			c0,18.513,15.008,33.52,33.52,33.52c18.513,0,33.52-15.008,33.52-33.52C171.84,350.586,171.84,350.533,171.84,350.48z
			 M138.481,368.159c-0.054,0-0.107,0.001-0.161,0.001c-9.676,0-17.52-7.845-17.519-17.521c0-9.676,7.845-17.52,17.521-17.519
			c9.613,0,17.431,7.747,17.518,17.36C155.928,360.156,148.156,368.071,138.481,368.159z"/>
	</g>
</g>
<g>
	<g>
		<path d="M269.28,350.48c-0.088-18.419-15.021-33.316-33.44-33.36c-18.513-0.044-33.556,14.928-33.599,33.44
			c-0.044,18.513,14.928,33.556,33.44,33.6s33.556-14.928,33.6-33.44C269.28,350.64,269.28,350.56,269.28,350.48z M235.921,368.159
			c-0.027,0-0.054,0-0.081,0.001c-9.676,0.044-17.555-7.765-17.599-17.441c-0.044-9.676,7.765-17.555,17.44-17.599
			c9.644-0.044,17.51,7.716,17.599,17.36C253.368,360.156,245.597,368.071,235.921,368.159z"/>
	</g>
</g>
<g>
	<g>
		<path d="M333.28,317.12c-18.512-0.177-33.662,14.687-33.838,33.199s14.687,33.662,33.199,33.838
			c18.512,0.177,33.662-14.687,33.838-33.199c0.002-0.159,0.002-0.319,0.001-0.478C366.393,332.154,351.605,317.295,333.28,317.12z
			 M333.28,368.16c-9.674,0.176-17.66-7.523-17.836-17.198c-0.176-9.674,7.523-17.66,17.198-17.836
			c9.674-0.176,17.66,7.523,17.836,17.198c0.001,0.052,0.002,0.104,0.002,0.156C350.569,360.095,342.893,367.985,333.28,368.16z"/>
	</g>
</g>
<g>
	<g>
		<path d="M468.96,161.84c-4.418,0-8,3.582-8,8v13.68c-0.006,9.853-7.998,17.835-17.851,17.829
			c-9.844-0.006-17.823-7.985-17.829-17.829v-13.68c0-4.418-3.582-8-8-8s-8,3.582-8,8v13.68c0.037,15.578,10.704,29.117,25.84,32.8
			v35.84l-34.08,25.44c-2.905-2.601-6.66-4.052-10.56-4.08h-126v-28h53.04c8.837,0,16-7.163,16-16v-34.24
			c26.2-4.038,44.167-28.55,40.129-54.751c-3.19-20.698-19.431-36.94-40.129-40.129V66.16c0-8.837-7.163-16-16-16H154.16
			c-8.837,0-16,7.163-16,16v34.24c-26.2,4.038-44.167,28.55-40.129,54.751c3.19,20.698,19.431,36.94,40.129,40.129v34.24
			c0,8.837,7.163,16,16,16h53.04v28H86.48c-3.9,0.028-7.655,1.479-10.56,4.08l-34.08-25.44v-35.92
			c15.136-3.683,25.803-17.222,25.84-32.8v-13.6c0-4.418-3.582-8-8-8s-8,3.582-8,8v13.68c0,9.853-7.987,17.84-17.84,17.84
			c-9.853,0-17.84-7.987-17.84-17.84v-13.68c0-4.418-3.582-8-8-8s-8,3.582-8,8v13.68c0.037,15.578,10.704,29.117,25.84,32.8v40
			c0,2.518,1.186,4.889,3.2,6.4l41.44,30.8V410.8c0,8.837,7.163,16,16,16h304c8.837,0,16-7.163,16-16V293.52l41.44-31.04
			c2.014-1.511,3.2-3.882,3.2-6.4v-40c15.136-3.683,25.803-17.222,25.84-32.8v-13.44C476.96,165.422,473.378,161.84,468.96,161.84z
			 M333.52,116.64c17.209,4.023,27.899,21.235,23.876,38.444c-2.77,11.852-12.024,21.106-23.876,23.876V116.64z M138.16,178.96
			c-17.209-4.023-27.899-21.235-23.876-38.444c2.77-11.852,12.024-21.106,23.876-23.876V178.96z M154.16,229.12V66.16h163.36v41.52
			v80v41.44H154.16z M248.48,245.44v28h-25.36v-28H248.48z M390.48,410.8h-304V289.52h304V410.8z"/>
	</g>
</g>
<g>
</g>
<g>
</g>
<g>
</g>
<g>
</g>
<g>
</g>
<g>
</g>
<g>
</g>
<g>
</g>
<g>
</g>
<g>
</g>
<g>
</g>
<g>
</g>
<g>
</g>
<g>
</g>
<g>
</g>
</svg>
