<?xml version="1.0" encoding="iso-8859-1"?>
<!-- Generator: Adobe Illustrator 19.0.0, SVG Export Plug-In . SVG Version: 6.00 Build 0)  -->
<svg version="1.1" id="Capa_1" xmlns="http://www.w3.org/2000/svg" xmlns:xlink="http://www.w3.org/1999/xlink" x="0px" y="0px"
	 viewBox="0 0 421.55 421.55" style="enable-background:new 0 0 421.55 421.55;" xml:space="preserve">
<g>
	<g>
		<path d="M404.06,312.065c-1.125-1.023-2.292-1.997-3.5-2.92l-102.08-108.32l25.44-72.72c9.367-26.745-3.806-56.147-30-66.96
			v-28.64c0-8.837-7.163-16-16-16H64c-8.837,0-16,7.163-16,16v24.48H8c-4.418,0-8,3.582-8,8s3.582,8,8,8h40v24.48
			c0,8.837,7.163,16,16,16h151.52l-25.2,72L69.84,312.425c-0.88,0.88-1.68,1.76-2.56,2.72l-1.04,1.12
			c-18.827,22.729-15.664,56.417,7.065,75.245c19.94,16.517,48.851,16.363,68.615-0.365h190.24
			c21.837,19.855,55.636,18.247,75.49-3.59C427.505,365.717,425.898,331.919,404.06,312.065z M64.08,97.545v-32v-32h213.6v24.88
			c-1.52,0-2.96,0-4.48,0c-22.722,0.039-42.951,14.401-50.48,35.84l-1.6,4.56L64.08,97.545z M237.84,98.425
			c6.826-19.529,28.191-29.826,47.72-23c19.529,6.826,29.826,28.191,23,47.72l-22.72,64.88l-10.72-11.36
			c-15.902-15.903-40.095-20.069-60.4-10.4L237.84,98.425z M236.72,176.105c20.854,0,37.76,16.906,37.76,37.76
			c0,20.854-16.906,37.76-37.76,37.76s-37.76-16.906-37.76-37.76S215.866,176.105,236.72,176.105z M133.812,377.069
			c-7.109,7.062-16.752,10.979-26.772,10.876v0.32c-20.633,0.036-37.389-16.661-37.425-37.295
			c-0.017-9.575,3.644-18.791,10.225-25.745l1.2-1.28c14.67-14.573,38.375-14.494,52.948,0.176
			C148.56,338.791,148.482,362.497,133.812,377.069z M319.52,375.145H154.48c13.52-26.186,3.253-58.373-22.933-71.893
			c-7.601-3.924-16.033-5.964-24.587-5.947h-0.48l77.44-81.6c1.36,14.4,12.56,51.52,53.44,51.52
			c28.167-0.488,51.708-21.576,55.28-49.52l75.04,79.44c-29.47-0.059-53.408,23.783-53.467,53.253
			c-0.017,8.554,2.022,16.986,5.947,24.587L319.52,375.145z M367.04,388.265c-20.678,0-37.44-16.762-37.44-37.44
			s16.762-37.44,37.44-37.44s37.44,16.762,37.44,37.44C404.436,371.484,387.699,388.221,367.04,388.265z"/>
	</g>
</g>
<g>
	<g>
		<circle cx="273.68" cy="105.385" r="12"/>
	</g>
</g>
<g>
</g>
<g>
</g>
<g>
</g>
<g>
</g>
<g>
</g>
<g>
</g>
<g>
</g>
<g>
</g>
<g>
</g>
<g>
</g>
<g>
</g>
<g>
</g>
<g>
</g>
<g>
</g>
<g>
</g>
</svg>
