<?xml version="1.0" encoding="iso-8859-1"?>
<!-- Generator: Adobe Illustrator 19.0.0, SVG Export Plug-In . SVG Version: 6.00 Build 0)  -->
<svg version="1.1" id="Capa_1" xmlns="http://www.w3.org/2000/svg" xmlns:xlink="http://www.w3.org/1999/xlink" x="0px" y="0px"
	 viewBox="0 0 477.92 477.92" style="enable-background:new 0 0 477.92 477.92;" xml:space="preserve">
<g>
	<g>
		<path d="M292.8,63.84H185.28c-9.083,0.044-16.436,7.397-16.48,16.48v71.28c0.044,9.083,7.397,16.436,16.48,16.48H292.8
			c9.083-0.044,16.436-7.397,16.48-16.48V80.4C309.28,71.285,301.915,63.884,292.8,63.84z M292.8,152.32l-108-0.48l0.48-72l108,0.48
			l0,71.52C293.28,152.105,293.065,152.32,292.8,152.32z"/>
	</g>
</g>
<g>
	<g>
		<path d="M285.6,289.52h-93.12c-9.083,0.044-16.436,7.397-16.48,16.48v51.04c0,9.115,7.365,16.516,16.48,16.56h93.12
			c9.083-0.044,16.436-7.397,16.48-16.48V306C302.036,296.917,294.683,289.564,285.6,289.52z M286.16,357.04
			c0,0.265-0.215,0.48-0.48,0.48L192,357.04l0.48-51.52l93.68,0.48V357.04z"/>
	</g>
</g>
<g>
	<g>
		<path d="M353.682,230.961c-0.028,0-0.055-0.001-0.083-0.001c-5.28,0.048-10.459,1.453-15.04,4.08V198h9.04c4.418,0,8-3.582,8-8
			V98.48C355.6,44.16,303.04,0,239.04,0S122.48,44.16,122.48,98.48V190c0,4.418,3.582,8,8,8h9.04v37.36
			c-14.769-8.44-33.583-3.309-42.023,11.46c-2.71,4.742-4.11,10.119-4.057,15.58v86.16c0,4.418,3.582,8,8,8h38.08v36.72
			c0,4.418,3.582,8,8,8h3.52v68.64c0,4.418,3.582,8,8,8h64c4.418,0,8-3.582,8-8v-68.64h16v68.64c0,4.418,3.582,8,8,8h64
			c4.418,0,8-3.582,8-8v-68.64h3.36c4.418,0,8-3.582,8-8v-36.72h38.08c4.418,0,8-3.582,8-8V262.4
			C384.657,245.214,370.869,231.138,353.682,230.961z M109.36,340.56V262.4c0-8.306,6.734-15.04,15.04-15.04
			c8.306,0,15.04,6.734,15.04,15.04l0.08,78.16H109.36z M215.04,461.92h-48v-60.64h48V461.92z M311.04,461.92h-48v-60.64h48V461.92z
			 M322.4,385.28H155.52V198h167.04L322.4,385.28z M330.4,182h-192V98.48C138.48,52.96,183.6,16,239.04,16S339.6,52.96,339.6,98.48
			V182H330.4z M338.56,340.56V262.4c-0.008-8.306,6.719-15.046,15.026-15.054c8.306-0.008,15.046,6.719,15.054,15.026
			c0,0.009,0,0.019,0,0.028l0.08,78.16H338.56z"/>
	</g>
</g>
<g>
</g>
<g>
</g>
<g>
</g>
<g>
</g>
<g>
</g>
<g>
</g>
<g>
</g>
<g>
</g>
<g>
</g>
<g>
</g>
<g>
</g>
<g>
</g>
<g>
</g>
<g>
</g>
<g>
</g>
</svg>
