<?xml version="1.0" encoding="iso-8859-1"?>
<!-- Generator: Adobe Illustrator 19.0.0, SVG Export Plug-In . SVG Version: 6.00 Build 0)  -->
<svg version="1.1" id="Capa_1" xmlns="http://www.w3.org/2000/svg" xmlns:xlink="http://www.w3.org/1999/xlink" x="0px" y="0px"
	 viewBox="0 0 481.84 481.84" style="enable-background:new 0 0 481.84 481.84;" xml:space="preserve">
<g>
	<g>
		<path d="M200.36,38.08c-17.275,0-31.28,14.005-31.28,31.28c0,17.276,14.005,31.28,31.28,31.28
			c17.257-0.044,31.236-14.023,31.28-31.28C231.64,52.085,217.635,38.08,200.36,38.08z M200.44,84.72c-0.027,0-0.053,0-0.08,0v-0.08
			c-8.439,0-15.28-6.841-15.28-15.28s6.841-15.28,15.28-15.28s15.28,6.841,15.28,15.28C215.684,77.799,208.879,84.676,200.44,84.72z
			"/>
	</g>
</g>
<g>
	<g>
		<path d="M281.48,38.08C281.48,38.08,281.48,38.08,281.48,38.08c-17.275,0.088-31.208,14.164-31.12,31.44
			s14.164,31.208,31.44,31.12c17.213-0.088,31.12-14.066,31.12-31.279C312.876,52.04,298.8,38.036,281.48,38.08z M281.721,84.721
			c-0.08,0-0.161,0-0.241-0.001v-0.08c-8.438-0.088-15.208-7.001-15.119-15.439c0.088-8.438,7.001-15.208,15.439-15.119
			c8.376,0.088,15.12,6.902,15.12,15.278C296.965,77.799,290.16,84.676,281.721,84.721z"/>
	</g>
</g>
<g>
	<g>
		<path d="M269.48,121.52h-57.12c-4.418,0-8,3.582-8,8c0,4.418,3.582,8,8,8h57.12c4.418,0,8-3.582,8-8
			C277.48,125.102,273.898,121.52,269.48,121.52z"/>
	</g>
</g>
<g>
	<g>
		<path d="M280.92,270.96c-2.491-3.649-7.469-4.587-11.118-2.095c-3.563,2.433-4.555,7.253-2.242,10.895
			c9.118,13.94,5.209,32.632-8.73,41.75c-13.94,9.118-32.632,5.209-41.75-8.73c-6.56-10.029-6.56-22.99,0-33.019
			c2.491-3.649,1.553-8.627-2.096-11.118c-3.649-2.491-8.627-1.553-11.118,2.096c-0.05,0.073-0.099,0.147-0.146,0.222
			c-14.006,21.301-8.092,49.924,13.21,63.93c7.551,4.965,16.393,7.604,25.43,7.59l0.08,0.08
			c25.493-0.02,46.143-20.703,46.123-46.197C288.556,287.33,285.898,278.497,280.92,270.96z"/>
	</g>
</g>
<g>
	<g>
		<path d="M242.44,234.32c-4.418,0-8,3.582-8,8v55.12c0.044,4.387,3.613,7.92,8,7.92c4.418,0,8-3.582,8-8v-55.04
			C250.44,237.902,246.858,234.32,242.44,234.32z"/>
	</g>
</g>
<g>
	<g>
		<path d="M355.08,198.24h-78.72v-22l43.12,0c9.039-0.044,16.356-7.361,16.4-16.4v-34.56c18.72-3.52,38-18.8,38-37.2
			c0-18.4-19.2-33.6-38-37.2V16.4c-0.044-9.039-7.361-16.356-16.4-16.4H162.36c-9.039,0.044-16.356,7.361-16.4,16.4v34.48
			c-18.72,3.52-38,18.8-38,37.2c0,18.4,19.2,33.6,38,37.2v34.48c0.044,9.039,7.361,16.356,16.4,16.4h43.12v21.92h-78.4
			c-9.039,0.044-16.356,7.361-16.4,16.4v147.76c0.044,9.039,7.361,16.356,16.4,16.4h33.84v95.2c0,4.418,3.582,8,8,8h54.8
			c4.418,0,8-3.582,8-8v-95.2h17.76v95.2c0,4.418,3.582,8,8,8h55.44c4.418,0,8-3.582,8-8v-95.2h34.16
			c9.039-0.044,16.356-7.361,16.4-16.4v-147.6C371.436,205.601,364.119,198.284,355.08,198.24z M335.88,67.36
			c10.96,3.12,22,11.84,22,20.8c0,8.96-11.04,17.6-22,20.72V67.36z M145.96,108.88c-10.96-3.12-22-11.84-22-20.72
			s11.04-17.6,22-20.8V108.88z M161.88,159.76l0.4-144l157.52,0.4v143.6c-0.032,0.206-0.194,0.368-0.4,0.4L161.88,159.76z
			 M260.28,176.24v21.92h-38.8v-21.92H260.28z M176.92,465.84v-87.2h38.8l0.32,87.2H176.92z M304.6,465.84h-38.8v-87.2h39.12
			L304.6,465.84z M355.24,362.24c0,0.221-0.179,0.4-0.4,0.4l-228.16-0.4l0.4-148l228.16,0.4V362.24z"/>
	</g>
</g>
<g>
</g>
<g>
</g>
<g>
</g>
<g>
</g>
<g>
</g>
<g>
</g>
<g>
</g>
<g>
</g>
<g>
</g>
<g>
</g>
<g>
</g>
<g>
</g>
<g>
</g>
<g>
</g>
<g>
</g>
</svg>
